<?xml version="1.0" encoding="UTF-8" standalone="no"?>
<!DOCTYPE svg PUBLIC "-//W3C//DTD SVG 1.1//EN"
"http://www.w3.org/Graphics/SVG/1.1/DTD/svg11.dtd">
<svg viewBox="0 0 1100 825" version="1.1" xmlns="http://www.w3.org/2000/svg" xmlns:xlink="http://www.w3.org/1999/xlink">
<defs>
<style type="text/css"><![CDATA[
.g1_8{
fill: #FFFFFF;
}
.g2_8{
fill: #4F81BD;
}
.g3_8{
fill: none;
stroke: #3A5F8B;
stroke-width: 3.069764;
stroke-linecap: butt;
stroke-linejoin: round;
}
.g4_8{
fill: none;
stroke: #4A7EBB;
stroke-width: 1.1241388;
stroke-linecap: butt;
stroke-linejoin: round;
}
.g5_8{
fill: #4A7EBB;
}
]]></style>
</defs>
<path fill-rule="evenodd" d="M0,0L1100,0l0,825L0,825L0,0Z" class="g1_8" />
<path fill-rule="evenodd" d="M0,0L1100,0l0,825L0,825L0,0Z" class="g1_8" />
<path fill-rule="evenodd" d="M247.5,394l-100.8,0l0,-100.7l201.6,0l0,100.7l-100.8,0Z" class="g2_8" />
<path d="M247.5,394l-100.8,0l0,-100.7l201.6,0l0,100.7l-100.8,0Z" class="g3_8" />
<path fill-rule="evenodd" d="M522.5,650.7l-100.8,0l0,-100.7l201.6,0l0,100.7l-100.8,0Z" class="g2_8" />
<path d="M522.5,650.7l-100.8,0l0,-100.7l201.6,0l0,100.7l-100.8,0Z" class="g3_8" />
<path fill-rule="evenodd" d="M779.2,394l-100.9,0l0,-100.7l201.7,0L880,394l-100.8,0Z" class="g2_8" />
<path d="M779.2,394l-100.9,0l0,-100.7l201.7,0L880,394l-100.8,0Z" class="g3_8" />
<path d="M348.3,343.8l317.2,0" class="g4_8" />
<path fill-rule="evenodd" d="M678.3,343.8L666,350.6l-1.4,-2l8.8,-4.8L664.6,339l1.4,-2l12.3,6.8Z" class="g5_8" />
<path d="M797.3,403.3L649.6,585.9" class="g4_8" />
<path fill-rule="evenodd" d="M641.7,595.8l2.4,-13.9l2.5,0.3l-1.9,9.8l9.2,-3.8l0.8,2.3l-13,5.3Z" class="g5_8" />
<path d="M412.5,605L237.7,412.7" class="g4_8" />
<path fill-rule="evenodd" d="M229.2,403.3l13.3,4.6l-0.7,2.3l-9.4,-3.4l2.4,9.8l-2.4,0.5l-3.2,-13.8Z" class="g5_8" />
</svg>