<?xml version="1.0" encoding="UTF-8" standalone="no"?>
<!DOCTYPE svg PUBLIC "-//W3C//DTD SVG 1.1//EN"
"http://www.w3.org/Graphics/SVG/1.1/DTD/svg11.dtd">
<svg viewBox="0 0 1100 825" version="1.1" xmlns="http://www.w3.org/2000/svg" xmlns:xlink="http://www.w3.org/1999/xlink">
<defs>
<style type="text/css"><![CDATA[
.g1_37{
fill: #FFFFFF;
}
.g2_37{
}
.g3_37{
fill: none;
stroke: #76B200;
stroke-width: 2.5972223;
stroke-linecap: butt;
stroke-linejoin: miter;
}
.g4_37{
fill: none;
stroke: #9BCC00;
stroke-width: 0.15277778;
stroke-linecap: butt;
stroke-linejoin: round;
}
]]></style>
</defs>
<path fill-rule="evenodd" d="M0,0L1100,0l0,825L0,825L0,0Z" class="g1_37" />
<path fill-rule="evenodd" d="M0,0L1100,0l0,825L0,825L0,0Z" class="g2_37" />
<image preserveAspectRatio="none" x="0" y="0" width="1100" height="825" xlink:href="img/1.png" />
<image preserveAspectRatio="none" x="0" y="8" width="1100" height="710" xlink:href="img/2.png" />
<image preserveAspectRatio="none" x="0" y="30" width="1100" height="581" xlink:href="img/3.png" />
<image preserveAspectRatio="none" x="18" y="28" width="207" height="51" opacity="0.75" xlink:href="img/4.png" />
<image preserveAspectRatio="none" x="18" y="28" width="207" height="51" xlink:href="img/5.png" />
<path d="M149.3,300.7l782.6,0" class="g3_37" />
<path d="M149.3,443.7l499.7,0" class="g3_37" />
<path d="M149.3,586.7l729.6,0" class="g3_37" />
<path d="M149.3,729.7l685.5,0" class="g3_37" />
<image preserveAspectRatio="none" x="905" y="628" width="140" height="152" xlink:href="img/6.png" />
<image preserveAspectRatio="none" x="667" y="321" width="378" height="110" xlink:href="img/7.png" />
<path d="M667.5,320.8l377.5,0l0,110.5l-377.5,0l0,-110.5Z" class="g4_37" />
<image preserveAspectRatio="none" x="932" y="482" width="113" height="112" xlink:href="img/8.png" />
<image preserveAspectRatio="none" x="910" y="135" width="135" height="135" xlink:href="img/9.png" />
</svg>