<?xml version="1.0" encoding="UTF-8" standalone="no"?>
<!DOCTYPE svg PUBLIC "-//W3C//DTD SVG 1.1//EN"
"http://www.w3.org/Graphics/SVG/1.1/DTD/svg11.dtd">
<svg viewBox="0 0 1100 825" version="1.1" xmlns="http://www.w3.org/2000/svg" xmlns:xlink="http://www.w3.org/1999/xlink">
<defs>
<clipPath id="c0_20"><path d="M0,190.5L0,148.7l1100,0l0,41.8Z" /></clipPath>
<style type="text/css"><![CDATA[
.g1_20{
fill: #FFFFFF;
}
.g2_20{
fill-opacity: 0.46;
}
.g3_20{
fill: #009DD9;
}
.g4_20{
fill: #0F6FC6;
}
.g5_20{
fill: #F4F6A8;
}
.g6_20{
fill: none;
stroke: #000000;
stroke-width: 2.291514;
stroke-linecap: butt;
stroke-linejoin: round;
}
.g7_20{
fill: #DBE7B6;
}
]]></style>
</defs>
<path fill-rule="evenodd" d="M0,0L1100,0l0,825L0,825L0,0Z" class="g1_20" />
<path fill-rule="evenodd" d="M0,0L1100,0l0,825L0,825L0,0Z" class="g1_20" />
<path fill-rule="evenodd" d="M550,190.5l-550,0L0,152.2l1099.8,0l0,38.3l-549.8,0Z" class="g2_20" />
<g clip-path="url(#c0_20)">
<path fill-rule="evenodd" d="M550,186.8l-550,0L0,148.5l1099.8,0l0,38.3l-549.8,0Z" class="g1_20" />
</g>
<path fill-rule="evenodd" d="M32.1,185L0,185L0,157.5l64.2,0l0,27.5l-32.1,0Z" class="g2_20" />
<path fill-rule="evenodd" d="M32.1,181.3L0,181.3L0,153.8l64.2,0l0,27.5l-32.1,0Z" class="g3_20" />
<path fill-rule="evenodd" d="M585.4,185L71,185l0,-27.5l1028.8,0l0,27.5l-514.4,0Z" class="g2_20" />
<path fill-rule="evenodd" d="M585.4,181.3L71,181.3l0,-27.5l1028.8,0l0,27.5l-514.4,0Z" class="g4_20" />
<path fill-rule="evenodd" d="M563.8,260.2l-490.5,0l0,-76.9l980.7,0l0,76.9l-490.2,0Z" class="g5_20" />
<path d="M563.8,260.2l-490.5,0l0,-76.9l980.7,0l0,76.9l-490.2,0Z" class="g6_20" />
<path fill-rule="evenodd" d="M563.8,384.8l-490.5,0L73.3,275l980.7,0l0,109.8l-490.2,0Z" class="g7_20" />
<path d="M563.8,384.8l-490.5,0L73.3,275l980.7,0l0,109.8l-490.2,0Z" class="g6_20" />
<path fill-rule="evenodd" d="M563.8,645.2l-490.5,0l0,-241.9l980.7,0l0,241.9l-490.2,0Z" class="g5_20" />
<path d="M563.8,645.2l-490.5,0l0,-241.9l980.7,0l0,241.9l-490.2,0Z" class="g6_20" />
</svg>