<?xml version="1.0" encoding="UTF-8" standalone="no"?>
<!DOCTYPE svg PUBLIC "-//W3C//DTD SVG 1.1//EN"
"http://www.w3.org/Graphics/SVG/1.1/DTD/svg11.dtd">
<svg viewBox="0 0 1100 825" version="1.1" xmlns="http://www.w3.org/2000/svg" xmlns:xlink="http://www.w3.org/1999/xlink">
<defs>
<style type="text/css"><![CDATA[
.g1_20{
fill: #FFFFFF;
}
.g2_20{
}
]]></style>
</defs>
<path fill-rule="evenodd" d="M0,0L1100,0l0,825L0,825L0,0Z" class="g1_20" />
<image preserveAspectRatio="none" x="0" y="0" width="1100" height="825" xlink:href="img/1.png" />
<path fill-rule="evenodd" d="M545.4,779.2l-527.1,0l0,-678.4l1054,0l0,678.4l-526.9,0Z" class="g1_20" />
<path fill-rule="evenodd" d="M64.2,196.3l-0.6,0.6l0,-41.7l0.6,0.6l0.6,0.6l0,39.2l-0.6,0.7Z" class="g2_20" />
<path fill-rule="evenodd" d="M292.9,196.3l-0.6,-0.7l0,-39.2l0.6,-0.6l0.7,0.6l0,39.2l-0.7,0.7Z" class="g2_20" />
<path fill-rule="evenodd" d="M292.9,155.8l-0.6,0.6l-227.5,0l-0.6,-0.6l-0.6,-0.6l230,0l-0.7,0.6Z" class="g2_20" />
<path fill-rule="evenodd" d="M292.9,196.3l-0.6,-0.7l0,-39.2l0.6,-0.6l0.7,0.6l0,39.2l-0.7,0.7Z" class="g2_20" />
<path fill-rule="evenodd" d="M573.4,196.3l-0.6,-0.7l0,-39.2l0.6,-0.6l0.7,-0.6l0,41.7l-0.7,-0.6Z" class="g2_20" />
<path fill-rule="evenodd" d="M573.4,155.8l-0.6,0.6l-279.2,0l-0.7,-0.6l-0.6,-0.6l281.8,0l-0.7,0.6Z" class="g2_20" />
<path fill-rule="evenodd" d="M573.4,196.3l-0.6,-0.7l0,-39.2l0.6,-0.6l0.7,0.6l0,39.2l-0.7,0.7Z" class="g2_20" />
<path fill-rule="evenodd" d="M1034.9,196.3l-0.7,-0.7l0,-39.2l0.7,-0.6l0.6,-0.6l0,41.7l-0.6,-0.6Z" class="g2_20" />
<path fill-rule="evenodd" d="M1034.9,155.8l-0.7,0.6l-460.1,0l-0.7,-0.6l-0.6,-0.6l462.7,0l-0.6,0.6Z" class="g2_20" />
<path fill-rule="evenodd" d="M64.2,236.7l-0.6,0.7l0,-41.8l0.6,0.7l0.6,0.6l0,39.1l-0.6,0.7Z" class="g2_20" />
<path fill-rule="evenodd" d="M292.9,236.7L292.3,236l0,-39.1l0.6,-0.6l0.7,0.6l0,39.1l-0.7,0.7Z" class="g2_20" />
<path fill-rule="evenodd" d="M292.9,196.3l-0.6,0.6l-227.5,0l-0.6,-0.6l0.6,-0.7l227.5,0l0.6,0.7Z" class="g2_20" />
<path fill-rule="evenodd" d="M292.9,236.7L292.3,236l0,-39.1l0.6,-0.6l0.7,0.6l0,39.1l-0.7,0.7Z" class="g2_20" />
<path fill-rule="evenodd" d="M573.4,236.7L572.8,236l0,-39.1l0.6,-0.6l0.7,-0.7l0,41.8l-0.7,-0.7Z" class="g2_20" />
<path fill-rule="evenodd" d="M573.4,196.3l-0.6,0.6l-279.2,0l-0.7,-0.6l0.7,-0.7l279.2,0l0.6,0.7Z" class="g2_20" />
<path fill-rule="evenodd" d="M573.4,236.7L572.8,236l0,-39.1l0.6,-0.6l0.7,0.6l0,39.1l-0.7,0.7Z" class="g2_20" />
<path fill-rule="evenodd" d="M1034.9,236.7l-0.7,-0.7l0,-39.1l0.7,-0.6l0.6,-0.7l0,41.8l-0.6,-0.7Z" class="g2_20" />
<path fill-rule="evenodd" d="M1034.9,196.3l-0.7,0.6l-460.1,0l-0.7,-0.6l0.7,-0.7l460.1,0l0.7,0.7Z" class="g2_20" />
<path fill-rule="evenodd" d="M64.2,303.9l-0.6,0.7l0,-68.6l0.6,0.7l0.6,0.7l0,65.9l-0.6,0.6Z" class="g2_20" />
<path fill-rule="evenodd" d="M292.9,303.9l-0.6,-0.6l0,-65.9l0.6,-0.7l0.7,0.7l0,65.9l-0.7,0.6Z" class="g2_20" />
<path fill-rule="evenodd" d="M292.9,236.7l-0.6,0.7l-227.5,0l-0.6,-0.7L64.8,236l227.5,0l0.6,0.7Z" class="g2_20" />
<path fill-rule="evenodd" d="M292.9,303.9l-0.6,-0.6l0,-65.9l0.6,-0.7l0.7,0.7l0,65.9l-0.7,0.6Z" class="g2_20" />
<path fill-rule="evenodd" d="M573.4,303.9l-0.6,-0.6l0,-65.9l0.6,-0.7l0.7,-0.7l0,68.6l-0.7,-0.7Z" class="g2_20" />
<path fill-rule="evenodd" d="M573.4,236.7l-0.6,0.7l-279.2,0l-0.7,-0.7l0.7,-0.7l279.2,0l0.6,0.7Z" class="g2_20" />
<path fill-rule="evenodd" d="M573.4,303.9l-0.6,-0.6l0,-65.9l0.6,-0.7l0.7,0.7l0,65.9l-0.7,0.6Z" class="g2_20" />
<path fill-rule="evenodd" d="M1034.9,303.9l-0.7,-0.6l0,-65.9l0.7,-0.7l0.6,-0.7l0,68.6l-0.6,-0.7Z" class="g2_20" />
<path fill-rule="evenodd" d="M1034.9,236.7l-0.7,0.7l-460.1,0l-0.7,-0.7l0.7,-0.7l460.1,0l0.7,0.7Z" class="g2_20" />
<path fill-rule="evenodd" d="M64.2,344.4L63.6,345l0,-41.7l0.6,0.6l0.6,0.7l0,39.2l-0.6,0.6Z" class="g2_20" />
<path fill-rule="evenodd" d="M292.9,344.4l-0.6,-0.6l0,-39.2l0.6,-0.7l0.7,0.7l0,39.2l-0.7,0.6Z" class="g2_20" />
<path fill-rule="evenodd" d="M292.9,303.9l-0.6,0.7l-227.5,0l-0.6,-0.7l0.6,-0.6l227.5,0l0.6,0.6Z" class="g2_20" />
<path fill-rule="evenodd" d="M292.9,344.4l-0.6,-0.6l0,-39.2l0.6,-0.7l0.7,0.7l0,39.2l-0.7,0.6Z" class="g2_20" />
<path fill-rule="evenodd" d="M573.4,344.4l-0.6,-0.6l0,-39.2l0.6,-0.7l0.7,-0.6l0,41.7l-0.7,-0.6Z" class="g2_20" />
<path fill-rule="evenodd" d="M573.4,303.9l-0.6,0.7l-279.2,0l-0.7,-0.7l0.7,-0.6l279.2,0l0.6,0.6Z" class="g2_20" />
<path fill-rule="evenodd" d="M573.4,344.4l-0.6,-0.6l0,-39.2l0.6,-0.7l0.7,0.7l0,39.2l-0.7,0.6Z" class="g2_20" />
<path fill-rule="evenodd" d="M1034.9,344.4l-0.7,-0.6l0,-39.2l0.7,-0.7l0.6,-0.6l0,41.7l-0.6,-0.6Z" class="g2_20" />
<path fill-rule="evenodd" d="M1034.9,303.9l-0.7,0.7l-460.1,0l-0.7,-0.7l0.7,-0.6l460.1,0l0.7,0.6Z" class="g2_20" />
<path fill-rule="evenodd" d="M64.2,438.5l-0.6,0.7l0,-95.4l0.6,0.6l0.6,0.6l0,92.9l-0.6,0.6Z" class="g2_20" />
<path fill-rule="evenodd" d="M292.9,438.5l-0.6,-0.6l0,-92.9l0.6,-0.6l0.7,0.6l0,92.9l-0.7,0.6Z" class="g2_20" />
<path fill-rule="evenodd" d="M292.9,344.4l-0.6,0.6L64.8,345l-0.6,-0.6l0.6,-0.6l227.5,0l0.6,0.6Z" class="g2_20" />
<path fill-rule="evenodd" d="M292.9,438.5l-0.6,-0.6l0,-92.9l0.6,-0.6l0.7,0.6l0,92.9l-0.7,0.6Z" class="g2_20" />
<path fill-rule="evenodd" d="M573.4,438.5l-0.6,-0.6l0,-92.9l0.6,-0.6l0.7,-0.6l0,95.4l-0.7,-0.7Z" class="g2_20" />
<path fill-rule="evenodd" d="M573.4,344.4l-0.6,0.6l-279.2,0l-0.7,-0.6l0.7,-0.6l279.2,0l0.6,0.6Z" class="g2_20" />
<path fill-rule="evenodd" d="M573.4,438.5l-0.6,-0.6l0,-92.9l0.6,-0.6l0.7,0.6l0,92.9l-0.7,0.6Z" class="g2_20" />
<path fill-rule="evenodd" d="M1034.9,438.5l-0.7,-0.6l0,-92.9l0.7,-0.6l0.6,-0.6l0,95.4l-0.6,-0.7Z" class="g2_20" />
<path fill-rule="evenodd" d="M1034.9,344.4l-0.7,0.6l-460.1,0l-0.7,-0.6l0.7,-0.6l460.1,0l0.7,0.6Z" class="g2_20" />
<path fill-rule="evenodd" d="M64.2,497l-0.6,0.6l0,-59.7l0.6,0.6l0.6,0.7l0,57.2L64.2,497Z" class="g2_20" />
<path fill-rule="evenodd" d="M292.9,497l-0.6,-0.6l0,-57.2l0.6,-0.7l0.7,0.7l0,57.2l-0.7,0.6Z" class="g2_20" />
<path fill-rule="evenodd" d="M292.9,438.5l-0.6,0.7l-227.5,0l-0.6,-0.7l0.6,-0.6l227.5,0l0.6,0.6Z" class="g2_20" />
<path fill-rule="evenodd" d="M292.9,497l-0.6,-0.6l0,-57.2l0.6,-0.7l0.7,0.7l0,57.2l-0.7,0.6Z" class="g2_20" />
<path fill-rule="evenodd" d="M573.4,497l-0.6,-0.6l0,-57.2l0.6,-0.7l0.7,-0.6l0,59.7L573.4,497Z" class="g2_20" />
<path fill-rule="evenodd" d="M573.4,438.5l-0.6,0.7l-279.2,0l-0.7,-0.7l0.7,-0.6l279.2,0l0.6,0.6Z" class="g2_20" />
<path fill-rule="evenodd" d="M573.4,497l-0.6,-0.6l0,-57.2l0.6,-0.7l0.7,0.7l0,57.2l-0.7,0.6Z" class="g2_20" />
<path fill-rule="evenodd" d="M1034.9,497l-0.7,-0.6l0,-57.2l0.7,-0.7l0.6,-0.6l0,59.7l-0.6,-0.6Z" class="g2_20" />
<path fill-rule="evenodd" d="M1034.9,438.5l-0.7,0.7l-460.1,0l-0.7,-0.7l0.7,-0.6l460.1,0l0.7,0.6Z" class="g2_20" />
<path fill-rule="evenodd" d="M64.2,555.2l-0.6,0.6l0,-59.4l0.6,0.6l0.6,0.6l0,56.8l-0.6,0.8Z" class="g2_20" />
<path fill-rule="evenodd" d="M292.9,555.2l-0.6,-0.8l0,-56.8l0.6,-0.6l0.7,0.6l0,56.8l-0.7,0.8Z" class="g2_20" />
<path fill-rule="evenodd" d="M292.9,497l-0.6,0.6l-227.5,0L64.2,497l0.6,-0.6l227.5,0l0.6,0.6Z" class="g2_20" />
<path fill-rule="evenodd" d="M292.9,555.2l-0.6,-0.8l0,-56.8l0.6,-0.6l0.7,0.6l0,56.8l-0.7,0.8Z" class="g2_20" />
<path fill-rule="evenodd" d="M573.4,555.2l-0.6,-0.8l0,-56.8l0.6,-0.6l0.7,-0.6l0,59.4l-0.7,-0.6Z" class="g2_20" />
<path fill-rule="evenodd" d="M573.4,497l-0.6,0.6l-279.2,0L292.9,497l0.7,-0.6l279.2,0l0.6,0.6Z" class="g2_20" />
<path fill-rule="evenodd" d="M573.4,555.2l-0.6,-0.8l0,-56.8l0.6,-0.6l0.7,0.6l0,56.8l-0.7,0.8Z" class="g2_20" />
<path fill-rule="evenodd" d="M1034.9,555.2l-0.7,-0.8l0,-56.8l0.7,-0.6l0.6,-0.6l0,59.4l-0.6,-0.6Z" class="g2_20" />
<path fill-rule="evenodd" d="M1034.9,497l-0.7,0.6l-460.1,0L573.4,497l0.7,-0.6l460.1,0l0.7,0.6Z" class="g2_20" />
<path fill-rule="evenodd" d="M64.2,595.8l-0.6,0.6l0,-42l0.6,0.8l0.6,0.6l0,39.3l-0.6,0.7Z" class="g2_20" />
<path fill-rule="evenodd" d="M292.9,595.8l0.7,0.6l-230,0l0.6,-0.6l0.6,-0.7l227.5,0l0.6,0.7Z" class="g2_20" />
<path fill-rule="evenodd" d="M292.9,595.8l-0.6,-0.7l0,-39.3l0.6,-0.6l0.7,0.6l0,39.3l-0.7,0.7Z" class="g2_20" />
<path fill-rule="evenodd" d="M292.9,555.2l-0.6,0.6l-227.5,0l-0.6,-0.6l0.6,-0.8l227.5,0l0.6,0.8Z" class="g2_20" />
<path fill-rule="evenodd" d="M292.9,595.8l-0.6,-0.7l0,-39.3l0.6,-0.6l0.7,0.6l0,39.3l-0.7,0.7Z" class="g2_20" />
<path fill-rule="evenodd" d="M573.4,595.8l0.7,0.6l-281.8,0l0.6,-0.6l0.7,-0.7l279.2,0l0.6,0.7Z" class="g2_20" />
<path fill-rule="evenodd" d="M573.4,595.8l-0.6,-0.7l0,-39.3l0.6,-0.6l0.7,-0.8l0,42l-0.7,-0.6Z" class="g2_20" />
<path fill-rule="evenodd" d="M573.4,555.2l-0.6,0.6l-279.2,0l-0.7,-0.6l0.7,-0.8l279.2,0l0.6,0.8Z" class="g2_20" />
<path fill-rule="evenodd" d="M573.4,595.8l-0.6,-0.7l0,-39.3l0.6,-0.6l0.7,0.6l0,39.3l-0.7,0.7Z" class="g2_20" />
<path fill-rule="evenodd" d="M1034.9,595.8l0.6,0.6l-462.7,0l0.6,-0.6l0.7,-0.7l460.1,0l0.7,0.7Z" class="g2_20" />
<path fill-rule="evenodd" d="M1034.9,595.8l-0.7,-0.7l0,-39.3l0.7,-0.6l0.6,-0.8l0,42l-0.6,-0.6Z" class="g2_20" />
<path fill-rule="evenodd" d="M1034.9,555.2l-0.7,0.6l-460.1,0l-0.7,-0.6l0.7,-0.8l460.1,0l0.7,0.8Z" class="g2_20" />
</svg>