<?xml version="1.0" encoding="UTF-8" standalone="no"?>
<!DOCTYPE svg PUBLIC "-//W3C//DTD SVG 1.1//EN"
"http://www.w3.org/Graphics/SVG/1.1/DTD/svg11.dtd">
<svg viewBox="0 0 1100 825" version="1.1" xmlns="http://www.w3.org/2000/svg" xmlns:xlink="http://www.w3.org/1999/xlink">
<defs>
<style type="text/css"><![CDATA[
.g1_21{
fill: #FFFFFF;
}
.g2_21{
fill: none;
stroke: #808080;
stroke-width: 4.583028;
stroke-linecap: butt;
stroke-linejoin: round;
}
.g3_21{
fill: #808080;
}
.g4_21{
fill: none;
stroke: #808080;
stroke-width: 3.069764;
stroke-linecap: butt;
stroke-linejoin: round;
}
]]></style>
</defs>
<path fill-rule="evenodd" d="M0,0L1100,0l0,825L0,825L0,0Z" class="g1_21" />
<image x="0" y="0" width="1101" height="826" xlink:href="shade/1.png" />
<image preserveAspectRatio="none" x="147" y="412" width="834" height="319" xlink:href="img/1.png" />
<path d="M446.9,379.8L628.4,653.9" class="g2_21" />
<path fill-rule="evenodd" d="M635.6,664.6l-13.3,-7.7l11.4,-7.6l1.9,15.3Z" class="g3_21" />
<path d="M525.9,691.3l0,0l0,-0.3l0.1,-0.4l0,-0.3l0.2,-0.4l0,-0.4l0.1,-0.3l0.2,-0.3l0,-0.3l0.1,-0.3l0.3,-0.5l0.2,-0.3l0.1,-0.3l0.3,-0.2l0.2,-0.3l0.3,-0.3l0.2,-0.3l0.3,-0.1l0.3,-0.3l0.3,-0.2l0.3,-0.1l0.3,-0.2l0.4,-0.1l0.3,-0.2l0.3,-0.1l0.4,-0.2l0.4,0l0.3,-0.2l0.3,0l0.5,0l0.3,0l226.1,0l0.3,0l0.5,0l0.3,0l0.3,0.2l0.4,0l0.3,0.2l0.3,0.1l0.4,0.2l0.3,0.1l0.4,0.2l0.3,0.1l0.3,0.2l0.2,0.3l0.3,0.1l0.3,0.3l0.3,0.3l0.1,0.3l0.4,0.2l0.1,0.3L765,688l0.1,0.3l0.2,0.3l0.1,0.3l0.2,0.3l0.1,0.3l0,0.4l0.2,0.4l0,0.3l0,0.4l0,0.3l0.1,27.8l0,0.5l-0.1,0.3l0,0.4l0,0.4l-0.2,0.3l-0.1,0.4l0,0.3l-0.2,0.3l-0.1,0.3l-0.3,0.3l-0.2,0.3l-0.1,0.4l-0.4,0.3l-0.1,0.3l-0.3,0.3l-0.2,0.3l-0.3,0.1l-0.3,0.2l-0.3,0.3l-0.3,0.1l-0.3,0.2l-0.4,0.1l-0.4,0.2l-0.3,0.1l-0.3,0.2l-0.4,0l-0.3,0.2l-0.3,0l-0.5,0l-0.3,0l-226.1,0l-0.3,0l-0.5,0l-0.3,0L531.5,726l-0.4,0l-0.4,-0.2l-0.3,-0.1l-0.3,-0.2l-0.4,-0.1l-0.3,-0.2l-0.3,-0.1l-0.3,-0.2l-0.3,-0.3l-0.3,-0.1L528,724.2l-0.3,-0.3l-0.2,-0.3l-0.3,-0.2l-0.1,-0.3l-0.2,-0.3l-0.3,-0.5L526.5,722l0,-0.3l-0.2,-0.3l-0.1,-0.3l0,-0.4L526,720.3l0,-0.3l-0.1,-0.4l0,-0.3l0,-28Z" class="g4_21" />
<path d="M525.9,684.4l0,0Z" class="g4_21" />
<path d="M766,726.2l0,0Z" class="g4_21" />
</svg>