<?xml version="1.0" encoding="UTF-8" standalone="no"?>
<!DOCTYPE svg PUBLIC "-//W3C//DTD SVG 1.1//EN"
"http://www.w3.org/Graphics/SVG/1.1/DTD/svg11.dtd">
<svg viewBox="0 0 1100 825" version="1.1" xmlns="http://www.w3.org/2000/svg" xmlns:xlink="http://www.w3.org/1999/xlink">
<defs>
<style type="text/css"><![CDATA[
.g1_19{
fill: #FFFFFF;
}
.g2_19{
}
.g3_19{
fill: #B5DBE5;
fill-opacity: 0.15;
}
.g4_19{
fill: none;
stroke: #90CAD7;
stroke-width: 1.513264;
stroke-linecap: butt;
stroke-linejoin: round;
}
.g5_19{
fill: #9F8471;
}
.g6_19{
fill: none;
stroke: #F5FFE0;
stroke-width: 0.77825004;
stroke-linecap: butt;
stroke-linejoin: round;
}
]]></style>
</defs>
<path fill-rule="evenodd" d="M0,0L1100,0l0,825L0,825L0,0Z" class="g1_19" />
<path fill-rule="evenodd" d="M0,0L1100,0l0,825L0,825L0,0Z" class="g2_19" />
<image preserveAspectRatio="none" x="0" y="0" width="1100" height="825" xlink:href="img/1.png" />
<image preserveAspectRatio="none" x="0" y="8" width="1100" height="710" xlink:href="img/2.png" />
<image preserveAspectRatio="none" x="0" y="30" width="1100" height="581" xlink:href="img/3.png" />
<image preserveAspectRatio="none" x="18" y="28" width="207" height="51" opacity="0.75" xlink:href="img/4.png" />
<image preserveAspectRatio="none" x="18" y="28" width="207" height="51" xlink:href="img/5.png" />
<path fill-rule="evenodd" d="M550,721.9l-451.8,0l0,-254.7l903.6,0l0,254.7l-451.8,0Z" class="g3_19" />
<path d="M550,721.9l-451.8,0l0,-254.7l903.6,0l0,254.7l-451.8,0Z" class="g4_19" />
<path fill-rule="evenodd" d="M405.3,664.9l0,-1.4l0.2,-1.4l0.1,-1.3l0.3,-1.4l0.3,-1.2l0.3,-1.4l0.5,-1.4l0.6,-1.2l0.6,-1.2l0.6,-1.2l0.8,-1.3l0.8,-1l0.7,-1.3l0.9,-0.9l1,-1l1,-1l1.1,-0.9l1.1,-0.7l1,-1l1.3,-0.6l1.2,-0.7l1.2,-0.5l1.2,-0.6l1.4,-0.5l1.4,-0.3l1.4,-0.4l1.2,-0.2l1.3,-0.1l1.4,-0.2l1.4,0l99.5,0l73.3,-42l-19.4,42l9.6,0l1.4,0l1.4,0.2l1.3,0.1l1.4,0.2l1.2,0.4l1.4,0.3l1.4,0.5l1.2,0.6l1.2,0.5l1.2,0.7l1.3,0.6l1,1l1.3,0.7l0.9,0.9l1,1l1,1l0.9,0.9l0.7,1.3l1,1l0.6,1.3l0.7,1.2l0.5,1.2l0.6,1.2l0.5,1.4l0.3,1.4l0.4,1.2l0.2,1.4l0.1,1.3l0.2,1.4l0,1.4l0.1,0l0,39.6l0,66l-0.1,0l0,1.3l-0.2,1.3l-0.1,1.3l-0.2,1.4l-0.4,1.4l-0.3,1.4l-0.5,1.2l-0.4,1.4l-0.7,1.2l-0.7,1.2l-0.6,1.1l-1,1.2l-0.7,1.1l-0.9,1l-1,0.9l-1,1l-0.9,0.9l-1.3,0.9l-1,0.8l-1.3,0.7l-1.2,0.6l-1.2,0.6l-1.2,0.5l-1.2,0.5l-1.4,0.4l-1.4,0.3l-1.4,0.3l-1.3,0.2l-1.4,0.1l-1.4,0l-9.6,0l-53.9,0l-99.5,0l-1.4,0l-1.4,-0.1l-1.3,-0.2l-1.2,-0.3l-1.4,-0.3l-1.4,-0.4l-1.4,-0.3l-1.2,-0.7l-1.2,-0.6l-1.2,-0.6l-1.3,-0.7l-1,-0.8l-1.1,-0.8L414,790l-1,-1.1L412,788l-0.9,-1l-0.7,-1.1l-0.8,-1.1l-0.8,-1.2l-0.6,-1.2l-0.6,-1.2l-0.4,-1.3l-0.7,-1.3l-0.3,-1.4L405.9,776l-0.3,-1.4l-0.1,-1.4l-0.2,-1.4l0,-1.3l0,-66l0,-39.6Z" class="g5_19" />
<path d="M405.3,664.9l0,-1.4l0.2,-1.4l0.1,-1.3l0.3,-1.4l0.3,-1.2l0.3,-1.4l0.5,-1.4l0.6,-1.2l0.6,-1.2l0.6,-1.2l0.8,-1.3l0.8,-1l0.7,-1.3l0.9,-0.9l1,-1l1,-1l1.1,-0.9l1.1,-0.7l1,-1l1.3,-0.6l1.2,-0.7l1.2,-0.5l1.2,-0.6l1.4,-0.5l1.4,-0.3l1.4,-0.4l1.2,-0.2l1.3,-0.1l1.4,-0.2l1.4,0l99.5,0l73.3,-42l-19.4,42l9.6,0l1.4,0l1.4,0.2l1.3,0.1l1.4,0.2l1.2,0.4l1.4,0.3l1.4,0.5l1.2,0.6l1.2,0.5l1.2,0.7l1.3,0.6l1,1l1.3,0.7l0.9,0.9l1,1l1,1l0.9,0.9l0.7,1.3l1,1l0.6,1.3l0.7,1.2l0.5,1.2l0.6,1.2l0.5,1.4l0.3,1.4l0.4,1.2l0.2,1.4l0.1,1.3l0.2,1.4l0,1.4l0.1,0l0,39.6l0,66l-0.1,0l0,1.3l-0.2,1.3l-0.1,1.3l-0.2,1.4l-0.4,1.4l-0.3,1.4l-0.5,1.2l-0.4,1.4l-0.7,1.2l-0.7,1.2l-0.6,1.1l-1,1.2l-0.7,1.1l-0.9,1l-1,0.9l-1,1l-0.9,0.9l-1.3,0.9l-1,0.8l-1.3,0.7l-1.2,0.6l-1.2,0.6l-1.2,0.5l-1.2,0.5l-1.4,0.4l-1.4,0.3l-1.4,0.3l-1.3,0.2l-1.4,0.1l-1.4,0l-9.6,0l-53.9,0l-99.5,0l-1.4,0l-1.4,-0.1l-1.3,-0.2l-1.2,-0.3l-1.4,-0.3l-1.4,-0.4l-1.4,-0.3l-1.2,-0.7l-1.2,-0.6l-1.2,-0.6l-1.3,-0.7l-1,-0.8l-1.1,-0.8L414,790l-1,-1.1L412,788l-0.9,-1l-0.7,-1.1l-0.8,-1.1l-0.8,-1.2l-0.6,-1.2l-0.6,-1.2l-0.4,-1.3l-0.7,-1.3l-0.3,-1.4L405.9,776l-0.3,-1.4l-0.1,-1.4l-0.2,-1.4l0,-1.3l0,-66l0,-39.6Z" class="g6_19" />
</svg>