<?xml version="1.0" encoding="UTF-8" standalone="no"?>
<!DOCTYPE svg PUBLIC "-//W3C//DTD SVG 1.1//EN"
"http://www.w3.org/Graphics/SVG/1.1/DTD/svg11.dtd">
<svg viewBox="0 0 1100 825" version="1.1" xmlns="http://www.w3.org/2000/svg" xmlns:xlink="http://www.w3.org/1999/xlink">
<defs>
<clipPath id="c0_34"><path d="M0,825L0,0L1100,0l0,825Z" /></clipPath>
<style type="text/css"><![CDATA[
.g1_34{
fill: #FFFFFF;
}
.g2_34{
}
.g3_34{
fill: #B5DBE5;
fill-opacity: 0.15;
}
.g4_34{
fill: none;
stroke: #90CAD7;
stroke-width: 1.513264;
stroke-linecap: butt;
stroke-linejoin: round;
}
]]></style>
</defs>
<path fill-rule="evenodd" d="M0,0L1100,0l0,825L0,825L0,0Z" class="g1_34" />
<path fill-rule="evenodd" d="M0,0L1100,0l0,825L0,825L0,0Z" class="g2_34" />
<image preserveAspectRatio="none" x="0" y="0" width="1100" height="825" xlink:href="img/1.png" />
<image preserveAspectRatio="none" x="0" y="8" width="1100" height="710" xlink:href="img/2.png" />
<image preserveAspectRatio="none" x="0" y="30" width="1100" height="581" xlink:href="img/3.png" />
<image preserveAspectRatio="none" x="18" y="28" width="207" height="51" opacity="0.75" xlink:href="img/4.png" />
<image preserveAspectRatio="none" x="18" y="28" width="207" height="51" xlink:href="img/5.png" />
<g clip-path="url(#c0_34)">
<path fill-rule="evenodd" d="M550,845.6l-389.3,0l0,-359l778.6,0l0,359l-389.3,0Z" class="g3_34" />
<path d="M550,845.6l-389.3,0l0,-359l778.6,0l0,359l-389.3,0Z" class="g4_34" />
</g>
<path fill-rule="evenodd" d="M659.8,813.2l-279.2,0l0,-80.3l558.7,0l0,80.3l-279.5,0Z" class="g3_34" />
<path d="M659.8,813.2l-279.2,0l0,-80.3l558.7,0l0,80.3l-279.5,0Z" class="g4_34" />
<image preserveAspectRatio="none" x="676" y="485" width="263" height="110" xlink:href="img/6.png" />
</svg>