<?xml version="1.0" encoding="UTF-8" standalone="no"?>
<!DOCTYPE svg PUBLIC "-//W3C//DTD SVG 1.1//EN"
"http://www.w3.org/Graphics/SVG/1.1/DTD/svg11.dtd">
<svg viewBox="0 0 1100 825" version="1.1" xmlns="http://www.w3.org/2000/svg" xmlns:xlink="http://www.w3.org/1999/xlink">
<defs>
<style type="text/css"><![CDATA[
.g1_28{
fill: #FFFFFF;
}
.g2_28{
fill: none;
stroke: #0000FF;
stroke-width: 0.9166667;
stroke-linecap: butt;
stroke-linejoin: miter;
}
.g3_28{
fill: none;
stroke: #FF0000;
stroke-width: 3.069764;
stroke-linecap: butt;
stroke-linejoin: round;
}
]]></style>
</defs>
<path fill-rule="evenodd" d="M0,0L1100,0l0,825L0,825L0,0Z" class="g1_28" />
<path fill-rule="evenodd" d="M0,0L1100,0l0,825L0,825L0,0Z" class="g1_28" />
<image preserveAspectRatio="none" x="0" y="752" width="64" height="64" xlink:href="img/1.png" />
<image preserveAspectRatio="none" x="516" y="147" width="618" height="284" xlink:href="img/2.png" />
<image preserveAspectRatio="none" x="502" y="495" width="609" height="275" xlink:href="img/3.png" />
<image preserveAspectRatio="none" x="476" y="419" width="660" height="76" xlink:href="img/4.png" />
<image preserveAspectRatio="none" x="518" y="745" width="593" height="83" xlink:href="img/5.png" />
<path d="M87.4,785.7l401.6,0" class="g2_28" />
<path d="M825,485.8l-256.7,0l0,-67l513.4,0l0,67l-256.7,0Z" class="g3_28" />
<path d="M825,820.3l-256.7,0l0,-67.1l513.4,0l0,67.1l-256.7,0Z" class="g3_28" />
</svg>