<?xml version="1.0" encoding="UTF-8" standalone="no"?>
<!DOCTYPE svg PUBLIC "-//W3C//DTD SVG 1.1//EN"
"http://www.w3.org/Graphics/SVG/1.1/DTD/svg11.dtd">
<svg viewBox="0 0 1100 825" version="1.1" xmlns="http://www.w3.org/2000/svg" xmlns:xlink="http://www.w3.org/1999/xlink">
<defs>
<style type="text/css"><![CDATA[
.g1_20{
fill: #FFFFFF;
}
.g2_20{
fill: none;
stroke: #808080;
stroke-width: 4.583028;
stroke-linecap: butt;
stroke-linejoin: round;
}
.g3_20{
fill: #808080;
}
.g4_20{
fill: none;
stroke: #808080;
stroke-width: 3.069764;
stroke-linecap: butt;
stroke-linejoin: round;
}
]]></style>
</defs>
<path fill-rule="evenodd" d="M0,0L1100,0l0,825L0,825L0,0Z" class="g1_20" />
<image x="0" y="0" width="1101" height="826" xlink:href="shade/1.png" />
<image preserveAspectRatio="none" x="694" y="323" width="277" height="408" xlink:href="img/1.png" />
<path d="M379.8,418l390.5,89.8" class="g2_20" />
<path fill-rule="evenodd" d="M782.8,510.6l-14.9,3.7l3,-13.5l11.9,9.8Z" class="g3_20" />
<path d="M796.9,509.8l0,0l0,-0.4l0.1,-0.3l0,-0.3l0,-0.5l0.2,-0.3l0.1,-0.5l0,-0.3l0.2,-0.3l0.2,-0.3l0.3,-0.3l0.1,-0.3l0.2,-0.3l0.3,-0.3l0.1,-0.3l0.3,-0.3l0.2,-0.2l0.3,-0.3l0.3,-0.1l0.3,-0.3l0.3,-0.2l0.3,-0.1l0.5,-0.2l0.3,-0.2l0.3,-0.1l0.3,-0.2l0.4,0l0.3,0l0.4,-0.1l0.4,0l0.3,0l148.5,0l0.5,0l0.3,0l0.3,0.1l0.4,0l0.3,0l0.4,0.2l0.4,0.1l0.3,0.2l0.3,0.2l0.3,0.1l0.3,0.2l0.3,0.3l0.3,0.1l0.4,0.3l0.3,0.2l0.1,0.3l0.3,0.3l0.2,0.3l0.3,0.3l0.1,0.3l0.2,0.3l0.1,0.3l0.2,0.3l0.1,0.3l0,0.5l0.2,0.3l0,0.5l0.1,0.3l0,0.3l0,0.4l0,27.8l0,0.3l0,0.5l0,0.3l-0.1,0.3l0,0.5l-0.2,0.3l-0.1,0.3l-0.2,0.3l-0.1,0.4l-0.2,0.3l-0.1,0.3l-0.3,0.4l-0.2,0.3l-0.1,0.3l-0.3,0.1l-0.3,0.3l-0.4,0.2l-0.3,0.3l-0.3,0.1l-0.3,0.2l-0.3,0.1l-0.3,0.3l-0.3,0l-0.3,0.2l-0.5,0.1l-0.3,0l-0.3,0.2l-0.4,0l-0.3,0.2l-0.3,0l-148.7,0l-0.3,0l-0.4,0l-0.4,-0.2l-0.3,0l-0.4,-0.2l-0.3,0l-0.3,-0.1L801.2,544l-0.5,-0.1l-0.3,-0.2l-0.3,-0.3l-0.3,-0.1l-0.3,-0.2l-0.3,-0.3L799,542.7l-0.3,-0.3l-0.1,-0.3l-0.3,-0.3l-0.2,-0.4L798,541.1l-0.3,-0.3l-0.2,-0.3l-0.2,-0.3l0,-0.4l-0.1,-0.3L797,539.2l0,-0.5l0,-0.3l-0.1,-0.5l0,-0.3l0,-27.8Z" class="g4_20" />
<path d="M796.9,502.8l0,0Z" class="g4_20" />
<path d="M959.4,544.7l0,0Z" class="g4_20" />
</svg>