<?xml version="1.0" encoding="UTF-8" standalone="no"?>
<!DOCTYPE svg PUBLIC "-//W3C//DTD SVG 1.1//EN"
"http://www.w3.org/Graphics/SVG/1.1/DTD/svg11.dtd">
<svg viewBox="0 0 1100 825" version="1.1" xmlns="http://www.w3.org/2000/svg" xmlns:xlink="http://www.w3.org/1999/xlink">
<defs>
<style type="text/css"><![CDATA[
.g1_9{
fill: #FFFFFF;
}
.g2_9{
fill: #4F81BD;
}
.g3_9{
fill: none;
stroke: #3A5F8B;
stroke-width: 3.069764;
stroke-linecap: butt;
stroke-linejoin: round;
}
.g4_9{
fill: #808080;
}
.g5_9{
fill: none;
stroke: #4A7EBB;
stroke-width: 1.1241388;
stroke-linecap: butt;
stroke-linejoin: round;
}
.g6_9{
fill: #4A7EBB;
}
]]></style>
</defs>
<path fill-rule="evenodd" d="M0,0L1100,0l0,825L0,825L0,0Z" class="g1_9" />
<path fill-rule="evenodd" d="M0,0L1100,0l0,825L0,825L0,0Z" class="g1_9" />
<path fill-rule="evenodd" d="M275,696.7l-119.2,0l0,-110l238.4,0l0,110l-119.2,0Z" class="g2_9" />
<path d="M275,696.7l-119.2,0l0,-110l238.4,0l0,110l-119.2,0Z" class="g3_9" />
<path fill-rule="evenodd" d="M275,384.8l-119.2,0l0,-109.8l238.4,0l0,109.8l-119.2,0Z" class="g2_9" />
<path d="M275,384.8l-119.2,0l0,-109.8l238.4,0l0,109.8l-119.2,0Z" class="g3_9" />
<path fill-rule="evenodd" d="M275,531.7l-119.2,0l0,-110l238.4,0l0,110l-119.2,0Z" class="g2_9" />
<path d="M275,531.7l-119.2,0l0,-110l238.4,0l0,110l-119.2,0Z" class="g3_9" />
<path fill-rule="evenodd" d="M825,696.7l-119.2,0l0,-110l238.4,0l0,110l-119.2,0Z" class="g4_9" />
<path d="M825,696.7l-119.2,0l0,-110l238.4,0l0,110l-119.2,0Z" class="g3_9" />
<path fill-rule="evenodd" d="M825,522.3l-119.2,0l0,-109.8l238.4,0l0,109.8l-119.2,0Z" class="g4_9" />
<path d="M825,522.3l-119.2,0l0,-109.8l238.4,0l0,109.8l-119.2,0Z" class="g3_9" />
<path fill-rule="evenodd" d="M825,384.8l-119.2,0l0,-109.8l238.4,0l0,109.8l-119.2,0Z" class="g4_9" />
<path d="M825,384.8l-119.2,0l0,-109.8l238.4,0l0,109.8l-119.2,0Z" class="g3_9" />
<path d="M394.2,330l299,0" class="g5_9" />
<path fill-rule="evenodd" d="M705.8,330l-12.3,6.9l-1.3,-2.2l8.7,-4.7l-8.7,-4.7l1.3,-2.2l12.3,6.9Z" class="g6_9" />
<path d="M394.2,641.7l299,0" class="g5_9" />
<path fill-rule="evenodd" d="M705.8,641.7l-12.3,6.8l-1.3,-1.9l8.7,-4.9l-8.7,-4.8l1.3,-2l12.3,6.8Z" class="g6_9" />
<path d="M394.2,467.5l299,0" class="g5_9" />
<path fill-rule="evenodd" d="M705.8,467.5l-12.3,6.9l-1.3,-2.2l8.7,-4.7l-8.7,-4.7l1.3,-2.2l12.3,6.9Z" class="g6_9" />
</svg>