<?xml version="1.0" encoding="UTF-8" standalone="no"?>
<!DOCTYPE svg PUBLIC "-//W3C//DTD SVG 1.1//EN"
"http://www.w3.org/Graphics/SVG/1.1/DTD/svg11.dtd">
<svg viewBox="0 0 1100 825" version="1.1" xmlns="http://www.w3.org/2000/svg" xmlns:xlink="http://www.w3.org/1999/xlink">
<defs>
<style type="text/css"><![CDATA[
.g1_12{
fill: #FFFFFF;
}
.g2_12{
}
]]></style>
</defs>
<path fill-rule="evenodd" d="M0,0L1100,0l0,825L0,825L0,0Z" class="g1_12" />
<image preserveAspectRatio="none" x="0" y="0" width="1100" height="825" xlink:href="img/1.png" />
<path fill-rule="evenodd" d="M545.4,779.2l-527.1,0l0,-678.4l1054,0l0,678.4l-526.9,0Z" class="g1_12" />
<path fill-rule="evenodd" d="M73.3,330l-0.6,0.6l0,-111.2l0.6,0.6l0.6,0.6l0,108.8L73.3,330Z" class="g2_12" />
<path fill-rule="evenodd" d="M282.2,330l-0.6,-0.6l0,-108.8l0.6,-0.6l0.7,-0.6l0,111.2L282.2,330Z" class="g2_12" />
<path fill-rule="evenodd" d="M282.2,220l-0.6,0.6l-207.7,0L73.3,220l-0.6,-0.6l210.2,0l-0.7,0.6Z" class="g2_12" />
<path fill-rule="evenodd" d="M282.2,330l-0.6,-0.6l0,-108.8l0.6,-0.6l0.7,0.6l0,108.8l-0.7,0.6Z" class="g2_12" />
<path fill-rule="evenodd" d="M1017.5,330l-0.8,-0.6l0,-108.8l0.8,-0.6l0.6,-0.6l0,111.2l-0.6,-0.6Z" class="g2_12" />
<path fill-rule="evenodd" d="M1017.5,220l-0.8,0.6l-733.8,0L282.2,220l-0.6,-0.6l736.5,0l-0.6,0.6Z" class="g2_12" />
<path fill-rule="evenodd" d="M73.3,449.6l-0.6,0.6l0,-120.8l0.6,0.6l0.6,0.6l0,118.4l-0.6,0.6Z" class="g2_12" />
<path fill-rule="evenodd" d="M282.2,449.6l0.7,0.6l-210.2,0l0.6,-0.6L73.9,449l207.7,0l0.6,0.6Z" class="g2_12" />
<path fill-rule="evenodd" d="M282.2,449.6L281.6,449l0,-118.4l0.6,-0.6l0.7,-0.6l0,120.8l-0.7,-0.6Z" class="g2_12" />
<path fill-rule="evenodd" d="M282.2,330l-0.6,0.6l-207.7,0L73.3,330l0.6,-0.6l207.7,0l0.6,0.6Z" class="g2_12" />
<path fill-rule="evenodd" d="M282.2,449.6L281.6,449l0,-118.4l0.6,-0.6l0.7,0.6l0,118.4l-0.7,0.6Z" class="g2_12" />
<path fill-rule="evenodd" d="M1017.5,449.6l0.6,0.6l-736.5,0l0.6,-0.6l0.7,-0.6l733.8,0l0.8,0.6Z" class="g2_12" />
<path fill-rule="evenodd" d="M1017.5,449.6l-0.8,-0.6l0,-118.4l0.8,-0.6l0.6,-0.6l0,120.8l-0.6,-0.6Z" class="g2_12" />
<path fill-rule="evenodd" d="M1017.5,330l-0.8,0.6l-733.8,0L282.2,330l0.7,-0.6l733.8,0l0.8,0.6Z" class="g2_12" />
</svg>