<?xml version="1.0" encoding="UTF-8" standalone="no"?>
<!DOCTYPE svg PUBLIC "-//W3C//DTD SVG 1.1//EN"
"http://www.w3.org/Graphics/SVG/1.1/DTD/svg11.dtd">
<svg viewBox="0 0 1100 825" version="1.1" xmlns="http://www.w3.org/2000/svg" xmlns:xlink="http://www.w3.org/1999/xlink">
<defs>
<style type="text/css"><![CDATA[
.g1_11{
fill: #FFFFFF;
}
.g2_11{
fill: #DEF6F1;
}
.g3_11{
fill: none;
stroke: #000000;
stroke-width: 1.513264;
stroke-linecap: butt;
stroke-linejoin: miter;
stroke-miterlimit: 7;
}
.g4_11{
fill: #0066FF;
}
.g5_11{
}
.g6_11{
fill: none;
stroke: #000000;
stroke-width: 1.513264;
stroke-linecap: butt;
stroke-linejoin: round;
}
.g7_11{
fill: none;
stroke: #000000;
stroke-width: 0.15277778;
stroke-linecap: butt;
stroke-linejoin: miter;
}
.g8_11{
fill: none;
stroke: #000000;
stroke-width: 1.513264;
stroke-linecap: butt;
stroke-linejoin: miter;
}
]]></style>
</defs>
<path fill-rule="evenodd" d="M0,0L1100,0l0,825L0,825L0,0Z" class="g1_11" />
<image preserveAspectRatio="none" x="0" y="0" width="1100" height="825" xlink:href="img/1.png" />
<path fill-rule="evenodd" d="M545.4,779.2l-527.1,0l0,-678.4l1054,0l0,678.4l-526.9,0Z" class="g1_11" />
<path fill-rule="evenodd" d="M495,439.8l-247.5,0l0,-174l494.8,0l0,174l-247.3,0Z" class="g2_11" />
<path d="M495,439.8l-247.5,0l0,-174l494.8,0l0,174l-247.3,0Z" class="g3_11" />
<path fill-rule="evenodd" d="M270.4,439.8l-22.9,0l0,-174l45.7,0l0,174l-22.8,0Z" class="g4_11" />
<path d="M270.4,439.8l-22.9,0l0,-174l45.7,0l0,174l-22.8,0Z" class="g3_11" />
<path fill-rule="evenodd" d="M316.3,439.8l-23,0l0,-174l45.7,0l0,174l-22.7,0Z" class="g4_11" />
<path d="M316.3,439.8l-23,0l0,-174l45.7,0l0,174l-22.7,0Z" class="g3_11" />
<path fill-rule="evenodd" d="M362.1,439.8l-22.9,0l0,-174l45.6,0l0,174l-22.7,0Z" class="g4_11" />
<path d="M362.1,439.8l-22.9,0l0,-174l45.6,0l0,174l-22.7,0Z" class="g3_11" />
<path fill-rule="evenodd" d="M407.9,439.8l-22.9,0l0,-174l45.7,0l0,174l-22.8,0Z" class="g4_11" />
<path d="M407.9,439.8l-22.9,0l0,-174l45.7,0l0,174l-22.8,0Z" class="g3_11" />
<path fill-rule="evenodd" d="M453.8,439.8l-23,0l0,-174l45.7,0l0,174l-22.7,0Z" class="g4_11" />
<path d="M453.8,439.8l-23,0l0,-174l45.7,0l0,174l-22.7,0Z" class="g3_11" />
<path fill-rule="evenodd" d="M724.2,439.8l-18.4,0l0,-174l36.7,0l0,174l-18.3,0Z" class="g5_11" />
<path d="M724.2,439.8l-18.4,0l0,-174l36.7,0l0,174l-18.3,0Z" class="g3_11" />
<path fill-rule="evenodd" d="M499.6,439.8l-22.9,0l0,-174l45.6,0l0,174l-22.7,0Z" class="g4_11" />
<path d="M499.6,439.8l-22.9,0l0,-174l45.6,0l0,174l-22.7,0Z" class="g3_11" />
<path fill-rule="evenodd" d="M325.4,531.7l-142.1,0l0,-55l284,0l0,55l-141.9,0Z" class="g1_11" />
<path d="M412.5,476.7L381.8,446" class="g6_11" />
<path fill-rule="evenodd" d="M375.8,440l9.7,3.2l-6.5,6.4L375.8,440Z" class="g5_11" />
<path fill-rule="evenodd" d="M788.3,531.7l-119.1,0l0,-55l238.3,0l0,55l-119.2,0Z" class="g1_11" />
<path d="M715,476.7l7,-28.5" class="g6_11" />
<path fill-rule="evenodd" d="M724.2,440l2.1,9.9l-8.9,-2.3l6.8,-7.6Z" class="g5_11" />
<path fill-rule="evenodd" d="M568.3,531.7l-73.3,0l0,-55l146.7,0l0,55l-73.4,0Z" class="g1_11" />
<path d="M577.5,476.7l-7,-28.5" class="g6_11" />
<path fill-rule="evenodd" d="M568.3,440l6.6,7.6l-8.9,2.3l2.3,-9.9Z" class="g5_11" />
<path d="M586.7,280.8l14.9,-15" class="g7_11" />
<path d="M586.7,296.1l30.2,-30.3" class="g7_11" />
<path d="M586.7,311.4l45.6,-45.6" class="g7_11" />
<path d="M586.7,326.8l60.9,-61" class="g7_11" />
<path d="M586.7,342.1l76.2,-76.3" class="g7_11" />
<path d="M586.7,357.3l91.6,-91.5" class="g7_11" />
<path d="M586.7,372.8L687.3,271.9" class="g7_11" />
<path d="M586.7,388.1L687.3,287.4" class="g7_11" />
<path d="M586.7,403.3L687.3,302.7" class="g7_11" />
<path d="M586.7,418.8L687.3,317.9" class="g7_11" />
<path d="M586.7,434L687.3,333.4" class="g7_11" />
<path d="M596.1,439.8l91.2,-91.2" class="g7_11" />
<path d="M611.4,439.8l75.9,-75.9" class="g7_11" />
<path d="M626.8,439.8l60.5,-60.5" class="g7_11" />
<path d="M642.1,439.8l45.2,-45.2" class="g7_11" />
<path d="M657.4,439.8l29.9,-29.9" class="g7_11" />
<path d="M672.8,439.8l14.5,-14.5" class="g7_11" />
<path d="M637.2,439.8l-0.1,0l-0.6,0" class="g8_11" />
<path d="M636,439.8l-0.6,0" class="g8_11" />
<path d="M634.9,439.8l-0.6,0" class="g8_11" />
<path d="M633.9,439.8l-0.6,0" class="g8_11" />
<path d="M632.8,439.8l-0.6,0" class="g8_11" />
<path d="M631.7,439.8l-0.6,0" class="g8_11" />
<path d="M630.7,439.8l-0.6,0" class="g8_11" />
<path d="M629.6,439.8l-0.5,0" class="g8_11" />
<path d="M628.5,439.8l-0.4,0" class="g8_11" />
<path d="M627.5,439.8l-0.5,0" class="g8_11" />
<path d="M626.4,439.8l-0.5,0" class="g8_11" />
<path d="M625.3,439.8l-0.4,0" class="g8_11" />
<path d="M624.3,439.8l-0.5,0" class="g8_11" />
<path d="M623.2,439.8l-0.5,0" class="g8_11" />
<path d="M622.3,439.8l-0.6,0" class="g8_11" />
<path d="M621,439.8l-0.4,0" class="g8_11" />
<path d="M620.1,439.8l-0.6,0" class="g8_11" />
<path d="M619.1,439.8l-0.7,0" class="g8_11" />
<path d="M618,439.8l-0.6,0" class="g8_11" />
<path d="M616.9,439.8l-0.6,0" class="g8_11" />
<path d="M615.8,439.8l-0.6,0" class="g8_11" />
<path d="M614.8,439.8l-0.6,0" class="g8_11" />
<path d="M613.7,439.8l-0.6,0" class="g8_11" />
<path d="M612.6,439.8l-0.6,0" class="g8_11" />
<path d="M611.6,439.8l-0.6,0" class="g8_11" />
<path d="M610.5,439.8l-0.5,0" class="g8_11" />
<path d="M609.4,439.8l-0.4,0" class="g8_11" />
<path d="M608.4,439.8l-0.5,0" class="g8_11" />
<path d="M607.3,439.8l-0.5,0" class="g8_11" />
<path d="M606.2,439.8l-0.4,0" class="g8_11" />
<path d="M605.2,439.8l-0.5,0" class="g8_11" />
<path d="M604.1,439.8l-0.5,0" class="g8_11" />
<path d="M603.2,439.8l-0.6,0" class="g8_11" />
<path d="M601.9,439.8l-0.4,0" class="g8_11" />
<path d="M601,439.8l-0.6,0" class="g8_11" />
<path d="M600,439.8l-0.7,0" class="g8_11" />
<path d="M598.9,439.8l-0.6,0" class="g8_11" />
<path d="M597.8,439.8l-0.6,0" class="g8_11" />
<path d="M596.8,439.8l-0.7,0" class="g8_11" />
<path d="M595.7,439.8l-0.6,0" class="g8_11" />
<path d="M594.6,439.8l-0.6,0" class="g8_11" />
<path d="M593.5,439.8l-0.6,0" class="g8_11" />
<path d="M592.5,439.8l-0.6,0" class="g8_11" />
<path d="M591.4,439.8l-0.5,0" class="g8_11" />
<path d="M590.3,439.8l-0.4,0" class="g8_11" />
<path d="M589.3,439.8l-0.5,0" class="g8_11" />
<path d="M588.2,439.8l-0.5,0" class="g8_11" />
<path d="M587.1,439.8l-0.4,0" class="g8_11" />
<path d="M586.7,439.4l0,-0.6" class="g8_11" />
<path d="M586.7,438.3l0,-0.4" class="g8_11" />
<path d="M586.7,437.2l0,-0.6" class="g8_11" />
<path d="M586.7,436.2l0,-0.5" class="g8_11" />
<path d="M586.7,435.1l0,-0.4" class="g8_11" />
<path d="M586.7,434l0,-0.4" class="g8_11" />
<path d="M586.7,433l0,-0.5" class="g8_11" />
<path d="M586.7,431.9l0,-0.5" class="g8_11" />
<path d="M586.7,430.8l0,-0.4" class="g8_11" />
<path d="M586.7,429.8l0,-0.5" class="g8_11" />
<path d="M586.7,428.8l0,-0.6" class="g8_11" />
<path d="M586.7,427.6l0,-0.4" class="g8_11" />
<path d="M586.7,426.7l0,-0.6" class="g8_11" />
<path d="M586.7,425.6l0,-0.6" class="g8_11" />
<path d="M586.7,424.6l0,-0.6" class="g8_11" />
<path d="M586.7,423.5l0,-0.6" class="g8_11" />
<path d="M586.7,422.4l0,-0.6" class="g8_11" />
<path d="M586.7,421.4l0,-0.7" class="g8_11" />
<path d="M586.7,420.3l0,-0.6" class="g8_11" />
<path d="M586.7,419.2l0,-0.4" class="g8_11" />
<path d="M586.7,418.2l0,-0.7" class="g8_11" />
<path d="M586.7,417.1l0,-0.5" class="g8_11" />
<path d="M586.7,416l0,-0.4" class="g8_11" />
<path d="M586.7,414.9l0,-0.4" class="g8_11" />
<path d="M586.7,413.9l0,-0.5" class="g8_11" />
<path d="M586.7,412.8l0,-0.5" class="g8_11" />
<path d="M586.7,411.7l0,-0.4" class="g8_11" />
<path d="M586.7,410.7l0,-0.5" class="g8_11" />
<path d="M586.7,409.8l0,-0.7" class="g8_11" />
<path d="M586.7,408.5l0,-0.4" class="g8_11" />
<path d="M586.7,407.6l0,-0.6" class="g8_11" />
<path d="M586.7,406.5l0,-0.6" class="g8_11" />
<path d="M586.7,405.5l0,-0.6" class="g8_11" />
<path d="M586.7,404.4l0,-0.6" class="g8_11" />
<path d="M586.7,403.3l0,-0.6" class="g8_11" />
<path d="M586.7,402.3l0,-0.6" class="g8_11" />
<path d="M586.7,401.2l0,-0.6" class="g8_11" />
<path d="M586.7,400.1l0,-0.4" class="g8_11" />
<path d="M586.7,399.1l0,-0.7" class="g8_11" />
<path d="M586.7,398l0,-0.5" class="g8_11" />
<path d="M586.7,396.9l0,-0.4" class="g8_11" />
<path d="M586.7,395.8l0,-0.4" class="g8_11" />
<path d="M586.7,394.8l0,-0.5" class="g8_11" />
<path d="M586.7,393.7l0,-0.5" class="g8_11" />
<path d="M586.7,392.6l0,-0.4" class="g8_11" />
<path d="M586.7,391.6l0,-0.5" class="g8_11" />
<path d="M586.7,390.7l0,-0.7" class="g8_11" />
<path d="M586.7,389.4l0,-0.4" class="g8_11" />
<path d="M586.7,388.5l0,-0.6" class="g8_11" />
<path d="M586.7,387.4l0,-0.6" class="g8_11" />
<path d="M586.7,386.4l0,-0.6" class="g8_11" />
<path d="M586.7,385.3l0,-0.6" class="g8_11" />
<path d="M586.7,384.2l0,-0.6" class="g8_11" />
<path d="M586.7,383.2l0,-0.6" class="g8_11" />
<path d="M586.7,382.1l0,-0.6" class="g8_11" />
<path d="M586.7,381l0,-0.4" class="g8_11" />
<path d="M586.7,380l0,-0.7" class="g8_11" />
<path d="M586.7,378.9l0,-0.5" class="g8_11" />
<path d="M586.7,377.8l0,-0.4" class="g8_11" />
<path d="M586.7,376.8l0,-0.5" class="g8_11" />
<path d="M586.7,375.7l0,-0.5" class="g8_11" />
<path d="M586.7,374.6l0,-0.4" class="g8_11" />
<path d="M586.7,373.5l0,-0.4" class="g8_11" />
<path d="M586.7,372.5l0,-0.5" class="g8_11" />
<path d="M586.7,371.6l0,-0.7" class="g8_11" />
<path d="M586.7,370.3l0,-0.4" class="g8_11" />
<path d="M586.7,369.4l0,-0.6" class="g8_11" />
<path d="M586.7,368.3l0,-0.6" class="g8_11" />
<path d="M586.7,367.3l0,-0.6" class="g8_11" />
<path d="M586.7,366.2l0,-0.6" class="g8_11" />
<path d="M586.7,365.1l0,-0.6" class="g8_11" />
<path d="M586.7,364.1l0,-0.6" class="g8_11" />
<path d="M586.7,363l0,-0.6" class="g8_11" />
<path d="M586.7,361.9l0,-0.4" class="g8_11" />
<path d="M586.7,360.9l0,-0.7" class="g8_11" />
<path d="M586.7,359.8l0,-0.5" class="g8_11" />
<path d="M586.7,358.7l0,-0.4" class="g8_11" />
<path d="M586.7,357.7l0,-0.5" class="g8_11" />
<path d="M586.7,356.6l0,-0.5" class="g8_11" />
<path d="M586.7,355.5l0,-0.4" class="g8_11" />
<path d="M586.7,354.4l0,-0.4" class="g8_11" />
<path d="M586.7,353.4l0,-0.5" class="g8_11" />
<path d="M586.7,352.5l0,-0.7" class="g8_11" />
<path d="M586.7,351.2l0,-0.4" class="g8_11" />
<path d="M586.7,350.3l0,-0.6" class="g8_11" />
<path d="M586.7,349.3l0,-0.7" class="g8_11" />
<path d="M586.7,348.2l0,-0.6" class="g8_11" />
<path d="M586.7,347.1l0,-0.6" class="g8_11" />
<path d="M586.7,346l0,-0.6" class="g8_11" />
<path d="M586.7,345l0,-0.6" class="g8_11" />
<path d="M586.7,343.9l0,-0.6" class="g8_11" />
<path d="M586.7,342.8l0,-0.4" class="g8_11" />
<path d="M586.7,341.8l0,-0.6" class="g8_11" />
<path d="M586.7,340.7l0,-0.5" class="g8_11" />
<path d="M586.7,339.6l0,-0.4" class="g8_11" />
<path d="M586.7,338.6l0,-0.5" class="g8_11" />
<path d="M586.7,337.5l0,-0.5" class="g8_11" />
<path d="M586.7,336.4l0,-0.4" class="g8_11" />
<path d="M586.7,335.3l0,-0.4" class="g8_11" />
<path d="M586.7,334.3l0,-0.5" class="g8_11" />
<path d="M586.7,333.4l0,-0.7" class="g8_11" />
<path d="M586.7,332.1l0,-0.4" class="g8_11" />
<path d="M586.7,331.2l0,-0.6" class="g8_11" />
<path d="M586.7,330.2l0,-0.7" class="g8_11" />
<path d="M586.7,329.1l0,-0.6" class="g8_11" />
<path d="M586.7,328l0,-0.6" class="g8_11" />
<path d="M586.7,326.9l0,-0.6" class="g8_11" />
<path d="M586.7,325.9l0,-0.6" class="g8_11" />
<path d="M586.7,324.8l0,-0.6" class="g8_11" />
<path d="M586.7,323.7l0,-0.6" class="g8_11" />
<path d="M586.7,322.7l0,-0.6" class="g8_11" />
<path d="M586.7,321.6l0,-0.5" class="g8_11" />
<path d="M586.7,320.5l0,-0.4" class="g8_11" />
<path d="M586.7,319.5l0,-0.5" class="g8_11" />
<path d="M586.7,318.4l0,-0.5" class="g8_11" />
<path d="M586.7,317.3l0,-0.4" class="g8_11" />
<path d="M586.7,316.3l0,-0.5" class="g8_11" />
<path d="M586.7,315.2l0,-0.5" class="g8_11" />
<path d="M586.7,314.3l0,-0.6" class="g8_11" />
<path d="M586.7,313l0,-0.4" class="g8_11" />
<path d="M586.7,312.1l0,-0.6" class="g8_11" />
<path d="M586.7,311.1l0,-0.7" class="g8_11" />
<path d="M586.7,310l0,-0.6" class="g8_11" />
<path d="M586.7,308.9l0,-0.6" class="g8_11" />
<path d="M586.7,307.8l0,-0.6" class="g8_11" />
<path d="M586.7,306.8l0,-0.6" class="g8_11" />
<path d="M586.7,305.7l0,-0.6" class="g8_11" />
<path d="M586.7,304.6l0,-0.6" class="g8_11" />
<path d="M586.7,303.6l0,-0.6" class="g8_11" />
<path d="M586.7,302.5l0,-0.5" class="g8_11" />
<path d="M586.7,301.4l0,-0.4" class="g8_11" />
<path d="M586.7,300.4l0,-0.5" class="g8_11" />
<path d="M586.7,299.3l0,-0.5" class="g8_11" />
<path d="M586.7,298.2l0,-0.4" class="g8_11" />
<path d="M586.7,297.2l0,-0.5" class="g8_11" />
<path d="M586.7,296.1l0,-0.5" class="g8_11" />
<path d="M586.7,295.2l0,-0.6" class="g8_11" />
<path d="M586.7,293.9l0,-0.4" class="g8_11" />
<path d="M586.7,293l0,-0.6" class="g8_11" />
<path d="M586.7,292l0,-0.7" class="g8_11" />
<path d="M586.7,290.9l0,-0.6" class="g8_11" />
<path d="M586.7,289.8l0,-0.6" class="g8_11" />
<path d="M586.7,288.8l0,-0.7" class="g8_11" />
<path d="M586.7,287.7l0,-0.6" class="g8_11" />
<path d="M586.7,286.6l0,-0.6" class="g8_11" />
<path d="M586.7,285.5l0,-0.6" class="g8_11" />
<path d="M586.7,284.5l0,-0.6" class="g8_11" />
<path d="M586.7,283.4l0,-0.5" class="g8_11" />
<path d="M586.7,282.3l0,-0.4" class="g8_11" />
<path d="M586.7,281.3l0,-0.5" class="g8_11" />
<path d="M586.7,280.2l0,-0.5" class="g8_11" />
<path d="M586.7,279.1l0,-0.4" class="g8_11" />
<path d="M586.7,278.1l0,-0.5" class="g8_11" />
<path d="M586.7,277l0,-0.5" class="g8_11" />
<path d="M586.7,276.1l0,-0.6" class="g8_11" />
<path d="M586.7,274.8l0,-0.4" class="g8_11" />
<path d="M586.7,273.9l0,-0.6" class="g8_11" />
<path d="M586.7,272.9l0,-0.6" class="g8_11" />
<path d="M586.7,271.8l0,-0.6" class="g8_11" />
<path d="M586.7,270.7l0,-0.6" class="g8_11" />
<path d="M586.7,269.7l0,-0.7" class="g8_11" />
<path d="M586.7,268.6l0,-0.6" class="g8_11" />
<path d="M586.7,267.5l0,-0.6" class="g8_11" />
<path d="M586.7,266.4l0,-0.6" class="g8_11" />
<path d="M587.1,265.8l0.5,0" class="g8_11" />
<path d="M588,265.8l0.7,0" class="g8_11" />
<path d="M589.3,265.8l0.4,0" class="g8_11" />
<path d="M590.2,265.8l0.6,0" class="g8_11" />
<path d="M591.3,265.8l0.6,0" class="g8_11" />
<path d="M592.3,265.8l0.6,0" class="g8_11" />
<path d="M593.4,265.8l0.6,0" class="g8_11" />
<path d="M594.5,265.8l0.6,0" class="g8_11" />
<path d="M595.5,265.8l0.6,0" class="g8_11" />
<path d="M596.6,265.8l0.5,0" class="g8_11" />
<path d="M597.7,265.8l0.4,0" class="g8_11" />
<path d="M598.7,265.8l0.5,0" class="g8_11" />
<path d="M599.8,265.8l0.5,0" class="g8_11" />
<path d="M600.9,265.8l0.4,0" class="g8_11" />
<path d="M601.9,265.8l0.5,0" class="g8_11" />
<path d="M603,265.8l0.5,0" class="g8_11" />
<path d="M604.1,265.8l0.4,0" class="g8_11" />
<path d="M605.2,265.8l0.4,0" class="g8_11" />
<path d="M606.2,265.8l0.5,0" class="g8_11" />
<path d="M607.1,265.8l0.6,0" class="g8_11" />
<path d="M608.4,265.8l0.4,0" class="g8_11" />
<path d="M609.3,265.8l0.6,0" class="g8_11" />
<path d="M610.3,265.8l0.7,0" class="g8_11" />
<path d="M611.4,265.8l0.6,0" class="g8_11" />
<path d="M612.5,265.8l0.6,0" class="g8_11" />
<path d="M613.6,265.8l0.6,0" class="g8_11" />
<path d="M614.6,265.8l0.6,0" class="g8_11" />
<path d="M615.7,265.8l0.5,0" class="g8_11" />
<path d="M616.8,265.8l0.6,0" class="g8_11" />
<path d="M617.8,265.8l0.5,0" class="g8_11" />
<path d="M618.9,265.8l0.5,0" class="g8_11" />
<path d="M620,265.8l0.4,0" class="g8_11" />
<path d="M621,265.8l0.5,0" class="g8_11" />
<path d="M622.1,265.8l0.5,0" class="g8_11" />
<path d="M623.2,265.8l0.4,0" class="g8_11" />
<path d="M624.3,265.8l0.4,0" class="g8_11" />
<path d="M625.3,265.8l0.5,0" class="g8_11" />
<path d="M626.2,265.8l0.6,0" class="g8_11" />
<path d="M627.5,265.8l0.4,0" class="g8_11" />
<path d="M628.4,265.8l0.6,0" class="g8_11" />
<path d="M629.4,265.8l0.7,0" class="g8_11" />
<path d="M630.5,265.8l0.6,0" class="g8_11" />
<path d="M631.6,265.8l0.6,0" class="g8_11" />
<path d="M632.7,265.8l0.6,0" class="g8_11" />
<path d="M633.7,265.8l0.6,0" class="g8_11" />
<path d="M634.8,265.8l0.4,0" class="g8_11" />
<path d="M635.9,265.8l0.6,0" class="g8_11" />
<path d="M636.9,265.8l0.5,0" class="g8_11" />
<path d="M638,265.8l0.5,0" class="g8_11" />
<path d="M639.1,265.8l0.4,0" class="g8_11" />
<path d="M640.1,265.8l0.5,0" class="g8_11" />
<path d="M641.2,265.8l0.5,0" class="g8_11" />
<path d="M642.3,265.8l0.4,0" class="g8_11" />
<path d="M643.3,265.8l0.5,0" class="g8_11" />
<path d="M644.4,265.8l0.5,0" class="g8_11" />
<path d="M645.3,265.8l0.6,0" class="g8_11" />
<path d="M646.6,265.8l0.4,0" class="g8_11" />
<path d="M647.5,265.8l0.6,0" class="g8_11" />
<path d="M648.5,265.8l0.7,0" class="g8_11" />
<path d="M649.6,265.8l0.6,0" class="g8_11" />
<path d="M650.7,265.8l0.6,0" class="g8_11" />
<path d="M651.8,265.8l0.6,0" class="g8_11" />
<path d="M652.8,265.8l0.6,0" class="g8_11" />
<path d="M653.9,265.8l0.4,0" class="g8_11" />
<path d="M655,265.8l0.6,0" class="g8_11" />
<path d="M656,265.8l0.5,0" class="g8_11" />
<path d="M657.1,265.8l0.5,0" class="g8_11" />
<path d="M658.2,265.8l0.4,0" class="g8_11" />
<path d="M659.2,265.8l0.5,0" class="g8_11" />
<path d="M660.3,265.8l0.5,0" class="g8_11" />
<path d="M661.4,265.8l0.4,0" class="g8_11" />
<path d="M662.4,265.8l0.5,0" class="g8_11" />
<path d="M663.5,265.8l0.5,0" class="g8_11" />
<path d="M664.4,265.8l0.6,0" class="g8_11" />
<path d="M665.7,265.8l0.4,0" class="g8_11" />
<path d="M666.6,265.8l0.6,0" class="g8_11" />
<path d="M667.6,265.8l0.6,0" class="g8_11" />
<path d="M668.7,265.8l0.6,0" class="g8_11" />
<path d="M669.8,265.8l0.6,0" class="g8_11" />
<path d="M670.8,265.8l0.7,0" class="g8_11" />
<path d="M671.9,265.8l0.6,0" class="g8_11" />
<path d="M673,265.8l0.4,0" class="g8_11" />
<path d="M674.1,265.8l0.6,0" class="g8_11" />
<path d="M675.1,265.8l0.5,0" class="g8_11" />
<path d="M676.2,265.8l0.5,0" class="g8_11" />
<path d="M677.3,265.8l0.4,0" class="g8_11" />
<path d="M678.3,265.8l0.5,0" class="g8_11" />
<path d="M679.4,265.8l0.5,0" class="g8_11" />
<path d="M680.5,265.8l0.4,0" class="g8_11" />
<path d="M681.5,265.8l0.5,0" class="g8_11" />
<path d="M682.6,265.8l0.5,0" class="g8_11" />
<path d="M683.5,265.8l0.6,0" class="g8_11" />
<path d="M684.8,265.8l0.4,0" class="g8_11" />
<path d="M685.7,265.8l0.6,0" class="g8_11" />
<path d="M686.7,265.8l0.6,0" class="g8_11" />
<path d="M687.3,266.1l0,0.7" class="g8_11" />
<path d="M687.3,267.4l0,0.4" class="g8_11" />
<path d="M687.3,268.3l0,0.6" class="g8_11" />
<path d="M687.3,269.3l0,0.7" class="g8_11" />
<path d="M687.3,270.4l0,0.6" class="g8_11" />
<path d="M687.3,271.5l0,0.6" class="g8_11" />
<path d="M687.3,272.6l0,0.6" class="g8_11" />
<path d="M687.3,273.6l0,0.6" class="g8_11" />
<path d="M687.3,274.7l0,0.5" class="g8_11" />
<path d="M687.3,275.8l0,0.6" class="g8_11" />
<path d="M687.3,276.8l0,0.5" class="g8_11" />
<path d="M687.3,277.9l0,0.5" class="g8_11" />
<path d="M687.3,279l0,0.4" class="g8_11" />
<path d="M687.3,280l0,0.5" class="g8_11" />
<path d="M687.3,281.1l0,0.5" class="g8_11" />
<path d="M687.3,282.2l0,0.4" class="g8_11" />
<path d="M687.3,283.2l0,0.5" class="g8_11" />
<path d="M687.3,284.3l0,0.5" class="g8_11" />
<path d="M687.3,285.2l0,0.6" class="g8_11" />
<path d="M687.3,286.5l0,0.4" class="g8_11" />
<path d="M687.3,287.4l0,0.6" class="g8_11" />
<path d="M687.3,288.4l0,0.7" class="g8_11" />
<path d="M687.3,289.5l0,0.6" class="g8_11" />
<path d="M687.3,290.6l0,0.6" class="g8_11" />
<path d="M687.3,291.7l0,0.6" class="g8_11" />
<path d="M687.3,292.7l0,0.6" class="g8_11" />
<path d="M687.3,293.8l0,0.5" class="g8_11" />
<path d="M687.3,294.9l0,0.6" class="g8_11" />
<path d="M687.3,295.9l0,0.5" class="g8_11" />
<path d="M687.3,297l0,0.5" class="g8_11" />
<path d="M687.3,298.1l0,0.4" class="g8_11" />
<path d="M687.3,299.1l0,0.5" class="g8_11" />
<path d="M687.3,300.2l0,0.5" class="g8_11" />
<path d="M687.3,301.3l0,0.4" class="g8_11" />
<path d="M687.3,302.3l0,0.5" class="g8_11" />
<path d="M687.3,303.4l0,0.5" class="g8_11" />
<path d="M687.3,304.3l0,0.6" class="g8_11" />
<path d="M687.3,305.6l0,0.4" class="g8_11" />
<path d="M687.3,306.5l0,0.6" class="g8_11" />
<path d="M687.3,307.5l0,0.7" class="g8_11" />
<path d="M687.3,308.6l0,0.6" class="g8_11" />
<path d="M687.3,309.7l0,0.6" class="g8_11" />
<path d="M687.3,310.7l0,0.7" class="g8_11" />
<path d="M687.3,311.8l0,0.6" class="g8_11" />
<path d="M687.3,312.9l0,0.4" class="g8_11" />
<path d="M687.3,314l0,0.6" class="g8_11" />
<path d="M687.3,315l0,0.5" class="g8_11" />
<path d="M687.3,316.1l0,0.5" class="g8_11" />
<path d="M687.3,317.2l0,0.4" class="g8_11" />
<path d="M687.3,318.2l0,0.5" class="g8_11" />
<path d="M687.3,319.3l0,0.5" class="g8_11" />
<path d="M687.3,320.4l0,0.4" class="g8_11" />
<path d="M687.3,321.4l0,0.5" class="g8_11" />
<path d="M687.3,322.5l0,0.5" class="g8_11" />
<path d="M687.3,323.4l0,0.6" class="g8_11" />
<path d="M687.3,324.7l0,0.4" class="g8_11" />
<path d="M687.3,325.6l0,0.6" class="g8_11" />
<path d="M687.3,326.6l0,0.7" class="g8_11" />
<path d="M687.3,327.7l0,0.6" class="g8_11" />
<path d="M687.3,328.8l0,0.6" class="g8_11" />
<path d="M687.3,329.8l0,0.7" class="g8_11" />
<path d="M687.3,330.9l0,0.6" class="g8_11" />
<path d="M687.3,332l0,0.4" class="g8_11" />
<path d="M687.3,333.1l0,0.6" class="g8_11" />
<path d="M687.3,334.1l0,0.5" class="g8_11" />
<path d="M687.3,335.2l0,0.5" class="g8_11" />
<path d="M687.3,336.3l0,0.4" class="g8_11" />
<path d="M687.3,337.3l0,0.5" class="g8_11" />
<path d="M687.3,338.4l0,0.5" class="g8_11" />
<path d="M687.3,339.5l0,0.4" class="g8_11" />
<path d="M687.3,340.5l0,0.5" class="g8_11" />
<path d="M687.3,341.6l0,0.5" class="g8_11" />
<path d="M687.3,342.5l0,0.6" class="g8_11" />
<path d="M687.3,343.8l0,0.4" class="g8_11" />
<path d="M687.3,344.7l0,0.6" class="g8_11" />
<path d="M687.3,345.7l0,0.6" class="g8_11" />
<path d="M687.3,346.8l0,0.6" class="g8_11" />
<path d="M687.3,347.9l0,0.6" class="g8_11" />
<path d="M687.3,348.9l0,0.7" class="g8_11" />
<path d="M687.3,350l0,0.6" class="g8_11" />
<path d="M687.3,351.1l0,0.4" class="g8_11" />
<path d="M687.3,352.2l0,0.6" class="g8_11" />
<path d="M687.3,353.2l0,0.5" class="g8_11" />
<path d="M687.3,354.3l0,0.5" class="g8_11" />
<path d="M687.3,355.4l0,0.4" class="g8_11" />
<path d="M687.3,356.4l0,0.5" class="g8_11" />
<path d="M687.3,357.5l0,0.5" class="g8_11" />
<path d="M687.3,358.6l0,0.4" class="g8_11" />
<path d="M687.3,359.6l0,0.5" class="g8_11" />
<path d="M687.3,360.7l0,0.5" class="g8_11" />
<path d="M687.3,361.6l0,0.6" class="g8_11" />
<path d="M687.3,362.8l0,0.5" class="g8_11" />
<path d="M687.3,363.8l0,0.6" class="g8_11" />
<path d="M687.3,364.8l0,0.6" class="g8_11" />
<path d="M687.3,365.9l0,0.6" class="g8_11" />
<path d="M687.3,367l0,0.6" class="g8_11" />
<path d="M687.3,368l0,0.7" class="g8_11" />
<path d="M687.3,369.1l0,0.6" class="g8_11" />
<path d="M687.3,370.2l0,0.4" class="g8_11" />
<path d="M687.3,371.3l0,0.6" class="g8_11" />
<path d="M687.3,372.3l0,0.5" class="g8_11" />
<path d="M687.3,373.4l0,0.4" class="g8_11" />
<path d="M687.3,374.5l0,0.4" class="g8_11" />
<path d="M687.3,375.5l0,0.5" class="g8_11" />
<path d="M687.3,376.6l0,0.5" class="g8_11" />
<path d="M687.3,377.7l0,0.4" class="g8_11" />
<path d="M687.3,378.7l0,0.5" class="g8_11" />
<path d="M687.3,379.8l0,0.5" class="g8_11" />
<path d="M687.3,380.9l0,0.4" class="g8_11" />
<path d="M687.3,381.9l0,0.5" class="g8_11" />
<path d="M687.3,382.9l0,0.6" class="g8_11" />
<path d="M687.3,383.9l0,0.6" class="g8_11" />
<path d="M687.3,385l0,0.6" class="g8_11" />
<path d="M687.3,386.1l0,0.6" class="g8_11" />
<path d="M687.3,387.1l0,0.6" class="g8_11" />
<path d="M687.3,388.2l0,0.6" class="g8_11" />
<path d="M687.3,389.3l0,0.4" class="g8_11" />
<path d="M687.3,390.3l0,0.7" class="g8_11" />
<path d="M687.3,391.4l0,0.5" class="g8_11" />
<path d="M687.3,392.5l0,0.4" class="g8_11" />
<path d="M687.3,393.6l0,0.4" class="g8_11" />
<path d="M687.3,394.6l0,0.5" class="g8_11" />
<path d="M687.3,395.7l0,0.5" class="g8_11" />
<path d="M687.3,396.8l0,0.4" class="g8_11" />
<path d="M687.3,397.8l0,0.5" class="g8_11" />
<path d="M687.3,398.9l0,0.5" class="g8_11" />
<path d="M687.3,400l0,0.4" class="g8_11" />
<path d="M687.3,401l0,0.5" class="g8_11" />
<path d="M687.3,402l0,0.6" class="g8_11" />
<path d="M687.3,403l0,0.6" class="g8_11" />
<path d="M687.3,404.1l0,0.6" class="g8_11" />
<path d="M687.3,405.2l0,0.6" class="g8_11" />
<path d="M687.3,406.2l0,0.6" class="g8_11" />
<path d="M687.3,407.3l0,0.6" class="g8_11" />
<path d="M687.3,408.4l0,0.4" class="g8_11" />
<path d="M687.3,409.4l0,0.7" class="g8_11" />
<path d="M687.3,410.5l0,0.5" class="g8_11" />
<path d="M687.3,411.6l0,0.4" class="g8_11" />
<path d="M687.3,412.7l0,0.4" class="g8_11" />
<path d="M687.3,413.7l0,0.5" class="g8_11" />
<path d="M687.3,414.8l0,0.4" class="g8_11" />
<path d="M687.3,415.9l0,0.4" class="g8_11" />
<path d="M687.3,416.9l0,0.5" class="g8_11" />
<path d="M687.3,418l0,0.5" class="g8_11" />
<path d="M687.3,419.1l0,0.4" class="g8_11" />
<path d="M687.3,420.1l0,0.5" class="g8_11" />
<path d="M687.3,421.1l0,0.6" class="g8_11" />
<path d="M687.3,422.1l0,0.6" class="g8_11" />
<path d="M687.3,423.2l0,0.6" class="g8_11" />
<path d="M687.3,424.3l0,0.6" class="g8_11" />
<path d="M687.3,425.3l0,0.6" class="g8_11" />
<path d="M687.3,426.4l0,0.6" class="g8_11" />
<path d="M687.3,427.5l0,0.4" class="g8_11" />
<path d="M687.3,428.5l0,0.7" class="g8_11" />
<path d="M687.3,429.6l0,0.5" class="g8_11" />
<path d="M687.3,430.7l0,0.4" class="g8_11" />
<path d="M687.3,431.8l0,0.4" class="g8_11" />
<path d="M687.3,432.8l0,0.5" class="g8_11" />
<path d="M687.3,433.9l0,0.4" class="g8_11" />
<path d="M687.3,435l0,0.4" class="g8_11" />
<path d="M687.3,436l0,0.5" class="g8_11" />
<path d="M687.3,437.1l0,0.5" class="g8_11" />
<path d="M687.3,438.2l0,0.4" class="g8_11" />
<path d="M687.3,439.2l0,0.5" class="g8_11" />
<path d="M687,439.8l-0.4,0" class="g8_11" />
<path d="M686.1,439.8l-0.6,0" class="g8_11" />
<path d="M685.1,439.8l-0.7,0" class="g8_11" />
<path d="M684,439.8l-0.6,0" class="g8_11" />
<path d="M682.9,439.8l-0.6,0" class="g8_11" />
<path d="M681.8,439.8l-0.6,0" class="g8_11" />
<path d="M680.8,439.8l-0.6,0" class="g8_11" />
<path d="M679.7,439.8l-0.6,0" class="g8_11" />
<path d="M678.6,439.8l-0.6,0" class="g8_11" />
<path d="M677.6,439.8l-0.6,0" class="g8_11" />
<path d="M676.5,439.8l-0.5,0" class="g8_11" />
<path d="M675.4,439.8l-0.4,0" class="g8_11" />
<path d="M674.4,439.8l-0.5,0" class="g8_11" />
<path d="M673.3,439.8l-0.5,0" class="g8_11" />
<path d="M672.2,439.8l-0.4,0" class="g8_11" />
<path d="M671.2,439.8l-0.5,0" class="g8_11" />
<path d="M670.1,439.8l-0.5,0" class="g8_11" />
<path d="M669.2,439.8l-0.6,0" class="g8_11" />
<path d="M667.9,439.8l-0.4,0" class="g8_11" />
<path d="M667,439.8l-0.6,0" class="g8_11" />
<path d="M666,439.8l-0.7,0" class="g8_11" />
<path d="M664.9,439.8l-0.6,0" class="g8_11" />
<path d="M663.8,439.8l-0.6,0" class="g8_11" />
<path d="M662.7,439.8l-0.6,0" class="g8_11" />
<path d="M661.7,439.8l-0.6,0" class="g8_11" />
<path d="M660.6,439.8l-0.6,0" class="g8_11" />
<path d="M659.5,439.8l-0.6,0" class="g8_11" />
<path d="M658.5,439.8l-0.6,0" class="g8_11" />
<path d="M657.4,439.8l-0.5,0" class="g8_11" />
<path d="M656.3,439.8l-0.4,0" class="g8_11" />
<path d="M655.3,439.8l-0.5,0" class="g8_11" />
<path d="M654.2,439.8l-0.5,0" class="g8_11" />
<path d="M653.1,439.8l-0.4,0" class="g8_11" />
<path d="M652.1,439.8l-0.5,0" class="g8_11" />
<path d="M651,439.8l-0.5,0" class="g8_11" />
<path d="M650.1,439.8l-0.6,0" class="g8_11" />
<path d="M648.8,439.8l-0.4,0" class="g8_11" />
<path d="M647.9,439.8l-0.6,0" class="g8_11" />
<path d="M646.9,439.8l-0.6,0" class="g8_11" />
<path d="M645.8,439.8l-0.6,0" class="g8_11" />
<path d="M644.7,439.8l-0.6,0" class="g8_11" />
<path d="M643.7,439.8l-0.7,0" class="g8_11" />
<path d="M642.6,439.8l-0.6,0" class="g8_11" />
<path d="M641.5,439.8l-0.6,0" class="g8_11" />
<path d="M640.4,439.8l-0.6,0" class="g8_11" />
<path d="M639.4,439.8l-0.6,0" class="g8_11" />
<path d="M638.3,439.8l-0.5,0" class="g8_11" />
<path fill-rule="evenodd" d="M705.8,229.2l-128.3,0l0,-55l256.7,0l0,55l-128.4,0Z" class="g1_11" />
<path d="M641.7,229.2l-7.5,37.6" class="g6_11" />
<path fill-rule="evenodd" d="M632.5,275l-2.7,-9.8l9,1.9l-6.3,7.9Z" class="g5_11" />
</svg>