<?xml version="1.0" encoding="UTF-8" standalone="no"?>
<!DOCTYPE svg PUBLIC "-//W3C//DTD SVG 1.1//EN"
"http://www.w3.org/Graphics/SVG/1.1/DTD/svg11.dtd">
<svg viewBox="0 0 1100 825" version="1.1" xmlns="http://www.w3.org/2000/svg" xmlns:xlink="http://www.w3.org/1999/xlink">
<defs>
<style type="text/css"><![CDATA[
.g1_18{
fill: #FFFFFF;
}
.g2_18{
fill: none;
stroke: #000000;
stroke-width: 4.583028;
stroke-linecap: butt;
stroke-linejoin: round;
}
.g3_18{
}
.g4_18{
fill: #DEF6F1;
}
.g5_18{
fill: none;
stroke: #000000;
stroke-width: 1.513264;
stroke-linecap: butt;
stroke-linejoin: round;
}
]]></style>
</defs>
<path fill-rule="evenodd" d="M0,0L1100,0l0,825L0,825L0,0Z" class="g1_18" />
<image preserveAspectRatio="none" x="0" y="0" width="1100" height="825" xlink:href="img/1.png" />
<path fill-rule="evenodd" d="M545.4,779.2l-527.1,0l0,-678.4l1054,0l0,678.4l-526.9,0Z" class="g1_18" />
<path d="M137.5,357.5l729.7,0" class="g2_18" />
<path fill-rule="evenodd" d="M880,357.5l-13.7,6.9l0,-13.8l13.7,6.9Z" class="g3_18" />
<path fill-rule="evenodd" d="M174.2,293.3l0,-0.4l0.1,-0.5l0.2,-0.4l0.1,-0.7l0.2,-0.4l0.3,-0.5l0.3,-0.4l0.4,-0.3l0.4,-0.5l0.4,-0.4l0.5,-0.5l0.6,-0.3l0.6,-0.5l0.6,-0.3l0.6,-0.3l0.8,-0.4l0.7,-0.3l0.7,-0.4l0.9,-0.1l0.7,-0.3l0.9,-0.2l0.8,-0.3l0.9,-0.1l0.9,-0.2l1,-0.1l0.9,0l0.9,-0.2l1.1,-0.1l0.9,0l0.9,0l0.9,0l0.9,0l1.1,0.1l0.9,0.2l0.9,0l1,0.1l0.9,0.2l0.9,0.1l0.7,0.3l1,0.2l0.7,0.3l0.9,0.1l0.7,0.4l0.7,0.3l0.8,0.4l0.6,0.3l0.6,0.3l0.6,0.5l0.6,0.3l0.5,0.5l0.4,0.4l0.4,0.5l0.4,0.3l0.3,0.4l0.3,0.5l0.2,0.4l0.1,0.7l0.2,0.4l0.1,0.5l0,0.4l-0.1,0.5l0,0.5l-0.2,0.4l-0.1,0.5l-0.2,0.4l-0.3,0.5l-0.3,0.4l-0.4,0.5l-0.4,0.5l-0.6,0.4l-0.4,0.5l-0.5,0.3l-0.6,0.4l-0.6,0.3l-0.8,0.4l-0.6,0.3l-0.7,0.3l-0.8,0.3l-0.8,0.3l-0.7,0.3l-1,0.1l-0.7,0.3l-0.9,0.2l-0.9,0.1l-1,0.2l-0.9,0l-0.9,0.1l-1.1,0l-0.9,0.2l-0.9,0l0,-0.2l-0.9,0l-0.9,0l-1.1,0l-0.9,-0.1L187.8,302l-1,0l-0.9,-0.3L185,301.6l-0.8,-0.2l-0.9,-0.3L182.6,301l-0.8,-0.3L181,300.4l-0.7,-0.3l-0.6,-0.3l-0.8,-0.4L178.3,299l-0.6,-0.3l-0.5,-0.5l-0.6,-0.3l-0.4,-0.4L175.8,297l-0.4,-0.5l-0.3,-0.4l-0.3,-0.5l-0.2,-0.4l-0.1,-0.5l-0.2,-0.4l-0.1,-0.5l0,-0.5Z" class="g4_18" />
<path d="M174.2,293.3l0,-0.4l0.1,-0.5l0.2,-0.4l0.1,-0.7l0.2,-0.4l0.3,-0.5l0.3,-0.4l0.4,-0.3l0.4,-0.5l0.4,-0.4l0.5,-0.5l0.6,-0.3l0.6,-0.5l0.6,-0.3l0.6,-0.3l0.8,-0.4l0.7,-0.3l0.7,-0.4l0.9,-0.1l0.7,-0.3l0.9,-0.2l0.8,-0.3l0.9,-0.1l0.9,-0.2l1,-0.1l0.9,0l0.9,-0.2l1.1,-0.1l0.9,0l0.9,0l0.9,0l0.9,0l1.1,0.1l0.9,0.2l0.9,0l1,0.1l0.9,0.2l0.9,0.1l0.7,0.3l1,0.2l0.7,0.3l0.9,0.1l0.7,0.4l0.7,0.3l0.8,0.4l0.6,0.3l0.6,0.3l0.6,0.5l0.6,0.3l0.5,0.5l0.4,0.4l0.4,0.5l0.4,0.3l0.3,0.4l0.3,0.5l0.2,0.4l0.1,0.7l0.2,0.4l0.1,0.5l0,0.4l-0.1,0.5l0,0.5l-0.2,0.4l-0.1,0.5l-0.2,0.4l-0.3,0.5l-0.3,0.4l-0.4,0.5l-0.4,0.5l-0.6,0.4l-0.4,0.5l-0.5,0.3l-0.6,0.4l-0.6,0.3l-0.8,0.4l-0.6,0.3l-0.7,0.3l-0.8,0.3l-0.8,0.3l-0.7,0.3l-1,0.1l-0.7,0.3l-0.9,0.2l-0.9,0.1l-1,0.2l-0.9,0l-0.9,0.1l-1.1,0l-0.9,0.2l-0.9,0l0,-0.2l-0.9,0l-0.9,0l-1.1,0l-0.9,-0.1L187.8,302l-1,0l-0.9,-0.3L185,301.6l-0.8,-0.2l-0.9,-0.3L182.6,301l-0.8,-0.3L181,300.4l-0.7,-0.3l-0.6,-0.3l-0.8,-0.4L178.3,299l-0.6,-0.3l-0.5,-0.5l-0.6,-0.3l-0.4,-0.4L175.8,297l-0.4,-0.5l-0.3,-0.4l-0.3,-0.5l-0.2,-0.4l-0.1,-0.5l-0.2,-0.4l-0.1,-0.5l0,-0.5Z" class="g5_18" />
<path fill-rule="evenodd" d="M174.2,284.2l0,-0.5l0.1,-0.5l0.2,-0.6l0.1,-0.4l0.2,-0.5l0.3,-0.4l0.3,-0.5l0.4,-0.5l0.4,-0.3l0.4,-0.4l0.5,-0.5l0.6,-0.3l0.6,-0.4l0.6,-0.3l0.6,-0.4l0.8,-0.4L181,277l0.7,-0.3l0.9,-0.2l0.7,-0.3l0.9,-0.1l0.8,-0.3l0.9,-0.2l0.9,-0.1l1,-0.2l0.9,-0.1l0.9,0l1.1,-0.2l0.9,0l0.9,0l0.9,0l0.9,0l1.1,0.2l0.9,0l0.9,0.1l1,0.2l0.9,0.1l0.9,0.2l0.7,0.3l1,0.1l0.7,0.3l0.9,0.2L204,277l0.7,0.3l0.8,0.4l0.6,0.4l0.6,0.3l0.6,0.4l0.6,0.3l0.5,0.5l0.4,0.4l0.4,0.3l0.4,0.5l0.3,0.5l0.3,0.4l0.2,0.5l0.1,0.4l0.2,0.6l0.1,0.5l0,0.5l-0.1,0.4l0,0.5l-0.2,0.4l-0.1,0.5l-0.2,0.5l-0.3,0.4l-0.3,0.5l-0.4,0.4l-0.4,0.5l-0.6,0.5l-0.4,0.3l-0.5,0.4l-0.6,0.5l-0.6,0.3l-0.8,0.3l-0.6,0.3l-0.7,0.3l-0.8,0.3l-0.8,0.3l-0.7,0.3l-1,0.2l-0.7,0.3l-0.9,0.1l-0.9,0.2l-1,0.1l-0.9,0l-0.9,0.2l-1.1,0l-0.9,0.1l-0.9,0l0,-0.1l-0.9,0l-0.9,0L189.6,293l-0.9,0l-0.9,-0.1l-1,0l-0.9,-0.3L185,292.4l-0.8,-0.1L183.3,292l-0.7,-0.2l-0.8,-0.3L181,291.2l-0.7,-0.3l-0.6,-0.3l-0.8,-0.3l-0.6,-0.5l-0.6,-0.3l-0.5,-0.4l-0.6,-0.3l-0.4,-0.5l-0.4,-0.5l-0.4,-0.4l-0.3,-0.5l-0.3,-0.4L174.6,286l-0.1,-0.5l-0.2,-0.4l-0.1,-0.5l0,-0.4Z" class="g4_18" />
<path d="M174.2,284.2l0,-0.5l0.1,-0.5l0.2,-0.6l0.1,-0.4l0.2,-0.5l0.3,-0.4l0.3,-0.5l0.4,-0.5l0.4,-0.3l0.4,-0.4l0.5,-0.5l0.6,-0.3l0.6,-0.4l0.6,-0.3l0.6,-0.4l0.8,-0.4L181,277l0.7,-0.3l0.9,-0.2l0.7,-0.3l0.9,-0.1l0.8,-0.3l0.9,-0.2l0.9,-0.1l1,-0.2l0.9,-0.1l0.9,0l1.1,-0.2l0.9,0l0.9,0l0.9,0l0.9,0l1.1,0.2l0.9,0l0.9,0.1l1,0.2l0.9,0.1l0.9,0.2l0.7,0.3l1,0.1l0.7,0.3l0.9,0.2L204,277l0.7,0.3l0.8,0.4l0.6,0.4l0.6,0.3l0.6,0.4l0.6,0.3l0.5,0.5l0.4,0.4l0.4,0.3l0.4,0.5l0.3,0.5l0.3,0.4l0.2,0.5l0.1,0.4l0.2,0.6l0.1,0.5l0,0.5l-0.1,0.4l0,0.5l-0.2,0.4l-0.1,0.5l-0.2,0.5l-0.3,0.4l-0.3,0.5l-0.4,0.4l-0.4,0.5l-0.6,0.5l-0.4,0.3l-0.5,0.4l-0.6,0.5l-0.6,0.3l-0.8,0.3l-0.6,0.3l-0.7,0.3l-0.8,0.3l-0.8,0.3l-0.7,0.3l-1,0.2l-0.7,0.3l-0.9,0.1l-0.9,0.2l-1,0.1l-0.9,0l-0.9,0.2l-1.1,0l-0.9,0.1l-0.9,0l0,-0.1l-0.9,0l-0.9,0L189.6,293l-0.9,0l-0.9,-0.1l-1,0l-0.9,-0.3L185,292.4l-0.8,-0.1L183.3,292l-0.7,-0.2l-0.8,-0.3L181,291.2l-0.7,-0.3l-0.6,-0.3l-0.8,-0.3l-0.6,-0.5l-0.6,-0.3l-0.5,-0.4l-0.6,-0.3l-0.4,-0.5l-0.4,-0.5l-0.4,-0.4l-0.3,-0.5l-0.3,-0.4L174.6,286l-0.1,-0.5l-0.2,-0.4l-0.1,-0.5l0,-0.4Z" class="g5_18" />
<path fill-rule="evenodd" d="M174.2,275l0,-0.5l0.1,-0.6l0.2,-0.4l0.1,-0.5l0.2,-0.4l0.3,-0.5l0.3,-0.5l0.4,-0.4l0.4,-0.3l0.4,-0.5l0.5,-0.4l0.6,-0.3l0.6,-0.5l0.6,-0.3l0.6,-0.5l0.8,-0.3l0.7,-0.3l0.7,-0.3l0.9,-0.1l0.7,-0.3l0.9,-0.3l0.8,-0.2l0.9,-0.2l0.9,-0.1l1,-0.2l0.9,-0.1l0.9,0l1.1,-0.2l0.9,0l0.9,0l0.9,0l0.9,0l1.1,0.2l0.9,0l0.9,0.1l1,0.2l0.9,0.1l0.9,0.2l0.7,0.2l1,0.3l0.7,0.3l0.9,0.1l0.7,0.3l0.7,0.3l0.8,0.3l0.6,0.5l0.6,0.3l0.6,0.5l0.6,0.3l0.5,0.4l0.4,0.5l0.4,0.3l0.4,0.4l0.3,0.5l0.3,0.5l0.2,0.4l0.1,0.5l0.2,0.4l0.1,0.6l0,0.5l-0.1,0.5l0,0.4l-0.2,0.5l-0.1,0.4l-0.2,0.5l-0.3,0.4l-0.3,0.5l-0.4,0.5l-0.4,0.4l-0.6,0.3l-0.4,0.5l-0.5,0.4l-0.6,0.4l-0.6,0.4l-0.8,0.3l-0.6,0.3L204,282l-0.8,0.3l-0.8,0.3l-0.7,0.3l-1,0.2l-0.7,0.1l-0.9,0.4l-0.9,0.1l-1,0.2l-0.9,0l-0.9,0.1l-1.1,0l-0.9,0.2l-0.9,0l0,-0.2l-0.9,0l-0.9,0l-1.1,-0.1l-0.9,0l-0.9,-0.2l-1,-0.1l-0.9,-0.2L185,283.2l-0.8,-0.1l-0.9,-0.3l-0.7,-0.2l-0.8,-0.3L181,282l-0.7,-0.3l-0.6,-0.3l-0.8,-0.3l-0.6,-0.4l-0.6,-0.4l-0.5,-0.4l-0.6,-0.5l-0.4,-0.3l-0.4,-0.4l-0.4,-0.5l-0.3,-0.5l-0.3,-0.4l-0.2,-0.5l-0.1,-0.4l-0.2,-0.5l-0.1,-0.4l0,-0.5Z" class="g4_18" />
<path d="M174.2,275l0,-0.5l0.1,-0.6l0.2,-0.4l0.1,-0.5l0.2,-0.4l0.3,-0.5l0.3,-0.5l0.4,-0.4l0.4,-0.3l0.4,-0.5l0.5,-0.4l0.6,-0.3l0.6,-0.5l0.6,-0.3l0.6,-0.5l0.8,-0.3l0.7,-0.3l0.7,-0.3l0.9,-0.1l0.7,-0.3l0.9,-0.3l0.8,-0.2l0.9,-0.2l0.9,-0.1l1,-0.2l0.9,-0.1l0.9,0l1.1,-0.2l0.9,0l0.9,0l0.9,0l0.9,0l1.1,0.2l0.9,0l0.9,0.1l1,0.2l0.9,0.1l0.9,0.2l0.7,0.2l1,0.3l0.7,0.3l0.9,0.1l0.7,0.3l0.7,0.3l0.8,0.3l0.6,0.5l0.6,0.3l0.6,0.5l0.6,0.3l0.5,0.4l0.4,0.5l0.4,0.3l0.4,0.4l0.3,0.5l0.3,0.5l0.2,0.4l0.1,0.5l0.2,0.4l0.1,0.6l0,0.5l-0.1,0.5l0,0.4l-0.2,0.5l-0.1,0.4l-0.2,0.5l-0.3,0.4l-0.3,0.5l-0.4,0.5l-0.4,0.4l-0.6,0.3l-0.4,0.5l-0.5,0.4l-0.6,0.4l-0.6,0.4l-0.8,0.3l-0.6,0.3L204,282l-0.8,0.3l-0.8,0.3l-0.7,0.3l-1,0.2l-0.7,0.1l-0.9,0.4l-0.9,0.1l-1,0.2l-0.9,0l-0.9,0.1l-1.1,0l-0.9,0.2l-0.9,0l0,-0.2l-0.9,0l-0.9,0l-1.1,-0.1l-0.9,0l-0.9,-0.2l-1,-0.1l-0.9,-0.2L185,283.2l-0.8,-0.1l-0.9,-0.3l-0.7,-0.2l-0.8,-0.3L181,282l-0.7,-0.3l-0.6,-0.3l-0.8,-0.3l-0.6,-0.4l-0.6,-0.4l-0.5,-0.4l-0.6,-0.5l-0.4,-0.3l-0.4,-0.4l-0.4,-0.5l-0.3,-0.5l-0.3,-0.4l-0.2,-0.5l-0.1,-0.4l-0.2,-0.5l-0.1,-0.4l0,-0.5Z" class="g5_18" />
<path fill-rule="evenodd" d="M174.2,265.8l0,-0.4l0.1,-0.5l0.2,-0.4l0.1,-0.7l0.2,-0.4l0.3,-0.5l0.3,-0.4l0.4,-0.3l0.4,-0.5l0.4,-0.4l0.5,-0.5l0.6,-0.3l0.6,-0.5l0.6,-0.3l0.6,-0.3l0.8,-0.4l0.7,-0.3l0.7,-0.4l0.9,-0.1l0.7,-0.3l0.9,-0.2l0.8,-0.3l0.9,-0.1l0.9,-0.2l1,-0.1l0.9,0l0.9,-0.2l1.1,-0.1l0.9,0l0.9,0l0.9,0l0.9,0l1.1,0.1l0.9,0.2l0.9,0l1,0.1l0.9,0.2l0.9,0.1l0.7,0.3l1,0.2l0.7,0.3l0.9,0.1l0.7,0.4l0.7,0.3l0.8,0.4l0.6,0.3l0.6,0.3l0.6,0.5l0.6,0.3l0.5,0.5l0.4,0.4l0.4,0.5l0.4,0.3l0.3,0.4l0.3,0.5l0.2,0.4l0.1,0.7l0.2,0.4l0.1,0.5l0,0.4l-0.1,0.5l0,0.5l-0.2,0.4l-0.1,0.5l-0.2,0.4l-0.3,0.5l-0.3,0.4l-0.4,0.5l-0.4,0.5l-0.6,0.4l-0.4,0.5l-0.5,0.3l-0.6,0.4l-0.6,0.3l-0.8,0.4l-0.6,0.3l-0.7,0.3l-0.8,0.3l-0.8,0.3l-0.7,0.3l-1,0.1l-0.7,0.3l-0.9,0.2l-0.9,0.1l-1,0.2l-0.9,0l-0.9,0.1l-1.1,0l-0.9,0.2l-0.9,0l0,-0.2l-0.9,0l-0.9,0l-1.1,0l-0.9,-0.1l-0.9,-0.2l-1,0l-0.9,-0.3L185,274.1l-0.8,-0.2l-0.9,-0.3l-0.7,-0.1l-0.8,-0.3L181,272.9l-0.7,-0.3l-0.6,-0.3l-0.8,-0.4l-0.6,-0.4l-0.6,-0.3l-0.5,-0.5l-0.6,-0.3L176.2,270l-0.4,-0.5L175.4,269l-0.3,-0.4l-0.3,-0.5l-0.2,-0.4l-0.1,-0.5l-0.2,-0.4l-0.1,-0.5l0,-0.5Z" class="g4_18" />
<path d="M174.2,265.8l0,-0.4l0.1,-0.5l0.2,-0.4l0.1,-0.7l0.2,-0.4l0.3,-0.5l0.3,-0.4l0.4,-0.3l0.4,-0.5l0.4,-0.4l0.5,-0.5l0.6,-0.3l0.6,-0.5l0.6,-0.3l0.6,-0.3l0.8,-0.4l0.7,-0.3l0.7,-0.4l0.9,-0.1l0.7,-0.3l0.9,-0.2l0.8,-0.3l0.9,-0.1l0.9,-0.2l1,-0.1l0.9,0l0.9,-0.2l1.1,-0.1l0.9,0l0.9,0l0.9,0l0.9,0l1.1,0.1l0.9,0.2l0.9,0l1,0.1l0.9,0.2l0.9,0.1l0.7,0.3l1,0.2l0.7,0.3l0.9,0.1l0.7,0.4l0.7,0.3l0.8,0.4l0.6,0.3l0.6,0.3l0.6,0.5l0.6,0.3l0.5,0.5l0.4,0.4l0.4,0.5l0.4,0.3l0.3,0.4l0.3,0.5l0.2,0.4l0.1,0.7l0.2,0.4l0.1,0.5l0,0.4l-0.1,0.5l0,0.5l-0.2,0.4l-0.1,0.5l-0.2,0.4l-0.3,0.5l-0.3,0.4l-0.4,0.5l-0.4,0.5l-0.6,0.4l-0.4,0.5l-0.5,0.3l-0.6,0.4l-0.6,0.3l-0.8,0.4l-0.6,0.3l-0.7,0.3l-0.8,0.3l-0.8,0.3l-0.7,0.3l-1,0.1l-0.7,0.3l-0.9,0.2l-0.9,0.1l-1,0.2l-0.9,0l-0.9,0.1l-1.1,0l-0.9,0.2l-0.9,0l0,-0.2l-0.9,0l-0.9,0l-1.1,0l-0.9,-0.1l-0.9,-0.2l-1,0l-0.9,-0.3L185,274.1l-0.8,-0.2l-0.9,-0.3l-0.7,-0.1l-0.8,-0.3L181,272.9l-0.7,-0.3l-0.6,-0.3l-0.8,-0.4l-0.6,-0.4l-0.6,-0.3l-0.5,-0.5l-0.6,-0.3L176.2,270l-0.4,-0.5L175.4,269l-0.3,-0.4l-0.3,-0.5l-0.2,-0.4l-0.1,-0.5l-0.2,-0.4l-0.1,-0.5l0,-0.5Z" class="g5_18" />
<path fill-rule="evenodd" d="M174.2,256.7l0,-0.5l0.1,-0.5l0.2,-0.6l0.1,-0.4l0.2,-0.5l0.3,-0.4l0.3,-0.5l0.4,-0.5l0.4,-0.3l0.4,-0.4l0.5,-0.5l0.6,-0.3l0.6,-0.4l0.6,-0.3l0.6,-0.4l0.8,-0.4l0.7,-0.3l0.7,-0.3l0.9,-0.2l0.7,-0.3l0.9,-0.1l0.8,-0.3l0.9,-0.2l0.9,-0.1l1,-0.2l0.9,-0.1l0.9,0l1.1,-0.2l0.9,0l0.9,0l0.9,0l0.9,0l1.1,0.2l0.9,0l0.9,0.1l1,0.2l0.9,0.1l0.9,0.2l0.7,0.3l1,0.1l0.7,0.3l0.9,0.2l0.7,0.3l0.7,0.3l0.8,0.4l0.6,0.4l0.6,0.3l0.6,0.4l0.6,0.3l0.5,0.5l0.4,0.4l0.4,0.3l0.4,0.5l0.3,0.5l0.3,0.4l0.2,0.5l0.1,0.4l0.2,0.6l0.1,0.5l0,0.5l-0.1,0.4l0,0.5l-0.2,0.4l-0.1,0.5l-0.2,0.5l-0.3,0.4l-0.3,0.5l-0.4,0.4l-0.4,0.5l-0.6,0.5l-0.4,0.3l-0.5,0.4l-0.6,0.5l-0.6,0.3l-0.8,0.3l-0.6,0.3l-0.7,0.3l-0.8,0.3l-0.8,0.3l-0.7,0.3l-1,0.2l-0.7,0.3l-0.9,0.1l-0.9,0.2l-1,0.1l-0.9,0l-0.9,0.2l-1.1,0l-0.9,0.1l-0.9,0l0,-0.1l-0.9,0l-0.9,0l-1.1,-0.2l-0.9,0l-0.9,-0.1l-1,0l-0.9,-0.3L185,264.9l-0.8,-0.1l-0.9,-0.3l-0.7,-0.2L181.8,264L181,263.7l-0.7,-0.3l-0.6,-0.3l-0.8,-0.3l-0.6,-0.5L177.7,262l-0.5,-0.4l-0.6,-0.3l-0.4,-0.5l-0.4,-0.5l-0.4,-0.4l-0.3,-0.5L174.8,259l-0.2,-0.5L174.5,258l-0.2,-0.4l-0.1,-0.5l0,-0.4Z" class="g4_18" />
<path d="M174.2,256.7l0,-0.5l0.1,-0.5l0.2,-0.6l0.1,-0.4l0.2,-0.5l0.3,-0.4l0.3,-0.5l0.4,-0.5l0.4,-0.3l0.4,-0.4l0.5,-0.5l0.6,-0.3l0.6,-0.4l0.6,-0.3l0.6,-0.4l0.8,-0.4l0.7,-0.3l0.7,-0.3l0.9,-0.2l0.7,-0.3l0.9,-0.1l0.8,-0.3l0.9,-0.2l0.9,-0.1l1,-0.2l0.9,-0.1l0.9,0l1.1,-0.2l0.9,0l0.9,0l0.9,0l0.9,0l1.1,0.2l0.9,0l0.9,0.1l1,0.2l0.9,0.1l0.9,0.2l0.7,0.3l1,0.1l0.7,0.3l0.9,0.2l0.7,0.3l0.7,0.3l0.8,0.4l0.6,0.4l0.6,0.3l0.6,0.4l0.6,0.3l0.5,0.5l0.4,0.4l0.4,0.3l0.4,0.5l0.3,0.5l0.3,0.4l0.2,0.5l0.1,0.4l0.2,0.6l0.1,0.5l0,0.5l-0.1,0.4l0,0.5l-0.2,0.4l-0.1,0.5l-0.2,0.5l-0.3,0.4l-0.3,0.5l-0.4,0.4l-0.4,0.5l-0.6,0.5l-0.4,0.3l-0.5,0.4l-0.6,0.5l-0.6,0.3l-0.8,0.3l-0.6,0.3l-0.7,0.3l-0.8,0.3l-0.8,0.3l-0.7,0.3l-1,0.2l-0.7,0.3l-0.9,0.1l-0.9,0.2l-1,0.1l-0.9,0l-0.9,0.2l-1.1,0l-0.9,0.1l-0.9,0l0,-0.1l-0.9,0l-0.9,0l-1.1,-0.2l-0.9,0l-0.9,-0.1l-1,0l-0.9,-0.3L185,264.9l-0.8,-0.1l-0.9,-0.3l-0.7,-0.2L181.8,264L181,263.7l-0.7,-0.3l-0.6,-0.3l-0.8,-0.3l-0.6,-0.5L177.7,262l-0.5,-0.4l-0.6,-0.3l-0.4,-0.5l-0.4,-0.5l-0.4,-0.4l-0.3,-0.5L174.8,259l-0.2,-0.5L174.5,258l-0.2,-0.4l-0.1,-0.5l0,-0.4Z" class="g5_18" />
<path d="M192.5,311.7l0,101.4" class="g5_18" />
<path fill-rule="evenodd" d="M192.5,421.7l-4.4,-9.2l9,0l-4.6,9.2Z" class="g3_18" />
<path fill-rule="evenodd" d="M174.2,476.7l0,-0.5l0.1,-0.5l0.2,-0.6l0.1,-0.4l0.2,-0.5l0.3,-0.4l0.3,-0.5l0.4,-0.5l0.4,-0.3l0.4,-0.4l0.5,-0.5l0.6,-0.3l0.6,-0.4l0.6,-0.3l0.6,-0.3l0.8,-0.5l0.7,-0.3l0.7,-0.3l0.9,-0.2l0.7,-0.3l0.9,-0.1l0.8,-0.3l0.9,-0.2l0.9,-0.1l1,-0.2l0.9,-0.1l0.9,0l1.1,-0.2l0.9,0l0.9,0l0.9,0l0.9,0l1.1,0.2l0.9,0l0.9,0.1l1,0.2l0.9,0.1l0.9,0.2l0.7,0.3l1,0.1l0.7,0.3l0.9,0.2l0.7,0.3l0.7,0.3l0.8,0.5l0.6,0.3l0.6,0.3l0.6,0.4l0.6,0.3l0.5,0.5l0.4,0.4l0.4,0.3l0.4,0.5l0.3,0.5l0.3,0.4l0.2,0.5l0.1,0.4l0.2,0.6l0.1,0.5l0,0.5l-0.1,0.4l0,0.5l-0.2,0.4l-0.1,0.5l-0.2,0.5l-0.3,0.4l-0.3,0.5l-0.4,0.4l-0.4,0.5l-0.6,0.5l-0.4,0.3l-0.5,0.4l-0.6,0.5l-0.6,0.3l-0.8,0.3l-0.6,0.3l-0.7,0.3l-0.8,0.3l-0.8,0.3l-0.7,0.3l-1,0.2l-0.7,0.3l-0.9,0.1l-0.9,0.2l-1,0.1l-0.9,0l-0.9,0.2l-1.1,0l-0.9,0.1l-0.9,0l0,-0.1l-0.9,0l-0.9,0l-1.1,-0.2l-0.9,0l-0.9,-0.1l-1,0l-0.9,-0.3L185,484.9l-0.8,-0.1l-0.9,-0.3l-0.7,-0.2L181.8,484L181,483.7l-0.7,-0.3l-0.6,-0.3l-0.8,-0.3l-0.6,-0.5L177.7,482l-0.5,-0.4l-0.6,-0.3l-0.4,-0.5l-0.4,-0.5l-0.4,-0.4l-0.3,-0.5L174.8,479l-0.2,-0.5L174.5,478l-0.2,-0.4l-0.1,-0.5l0,-0.4Z" class="g4_18" />
<path d="M174.2,476.7l0,-0.5l0.1,-0.5l0.2,-0.6l0.1,-0.4l0.2,-0.5l0.3,-0.4l0.3,-0.5l0.4,-0.5l0.4,-0.3l0.4,-0.4l0.5,-0.5l0.6,-0.3l0.6,-0.4l0.6,-0.3l0.6,-0.3l0.8,-0.5l0.7,-0.3l0.7,-0.3l0.9,-0.2l0.7,-0.3l0.9,-0.1l0.8,-0.3l0.9,-0.2l0.9,-0.1l1,-0.2l0.9,-0.1l0.9,0l1.1,-0.2l0.9,0l0.9,0l0.9,0l0.9,0l1.1,0.2l0.9,0l0.9,0.1l1,0.2l0.9,0.1l0.9,0.2l0.7,0.3l1,0.1l0.7,0.3l0.9,0.2l0.7,0.3l0.7,0.3l0.8,0.5l0.6,0.3l0.6,0.3l0.6,0.4l0.6,0.3l0.5,0.5l0.4,0.4l0.4,0.3l0.4,0.5l0.3,0.5l0.3,0.4l0.2,0.5l0.1,0.4l0.2,0.6l0.1,0.5l0,0.5l-0.1,0.4l0,0.5l-0.2,0.4l-0.1,0.5l-0.2,0.5l-0.3,0.4l-0.3,0.5l-0.4,0.4l-0.4,0.5l-0.6,0.5l-0.4,0.3l-0.5,0.4l-0.6,0.5l-0.6,0.3l-0.8,0.3l-0.6,0.3l-0.7,0.3l-0.8,0.3l-0.8,0.3l-0.7,0.3l-1,0.2l-0.7,0.3l-0.9,0.1l-0.9,0.2l-1,0.1l-0.9,0l-0.9,0.2l-1.1,0l-0.9,0.1l-0.9,0l0,-0.1l-0.9,0l-0.9,0l-1.1,-0.2l-0.9,0l-0.9,-0.1l-1,0l-0.9,-0.3L185,484.9l-0.8,-0.1l-0.9,-0.3l-0.7,-0.2L181.8,484L181,483.7l-0.7,-0.3l-0.6,-0.3l-0.8,-0.3l-0.6,-0.5L177.7,482l-0.5,-0.4l-0.6,-0.3l-0.4,-0.5l-0.4,-0.5l-0.4,-0.4l-0.3,-0.5L174.8,479l-0.2,-0.5L174.5,478l-0.2,-0.4l-0.1,-0.5l0,-0.4Z" class="g5_18" />
<path fill-rule="evenodd" d="M174.2,467.5l0,-0.5l0.1,-0.6l0.2,-0.4l0.1,-0.5l0.2,-0.4l0.3,-0.5l0.3,-0.5l0.4,-0.4l0.4,-0.3l0.4,-0.5l0.5,-0.4l0.6,-0.3l0.6,-0.5l0.6,-0.3l0.6,-0.5l0.8,-0.3l0.7,-0.3l0.7,-0.3l0.9,-0.1l0.7,-0.3l0.9,-0.3l0.8,-0.2l0.9,-0.2l0.9,-0.1l1,-0.2l0.9,-0.1l0.9,0l1.1,-0.2l0.9,0l0.9,0l0.9,0l0.9,0l1.1,0.2l0.9,0l0.9,0.1l1,0.2l0.9,0.1l0.9,0.2l0.7,0.2l1,0.3l0.7,0.3l0.9,0.1l0.7,0.3l0.7,0.3l0.8,0.3l0.6,0.5l0.6,0.3l0.6,0.5l0.6,0.3l0.5,0.4l0.4,0.5l0.4,0.3l0.4,0.4l0.3,0.5l0.3,0.5l0.2,0.4l0.1,0.5l0.2,0.4l0.1,0.6l0,0.5l-0.1,0.5l0,0.4l-0.2,0.5l-0.1,0.4l-0.2,0.5l-0.3,0.5l-0.3,0.4l-0.4,0.5l-0.4,0.4l-0.6,0.3l-0.4,0.5l-0.5,0.4l-0.6,0.4l-0.6,0.4l-0.8,0.3l-0.6,0.3l-0.7,0.3l-0.8,0.3l-0.8,0.3l-0.7,0.3l-1,0.2l-0.7,0.1l-0.9,0.4l-0.9,0.1l-1,0.2l-0.9,0l-0.9,0.1l-1.1,0l-0.9,0.2l-0.9,0l0,-0.2l-0.9,0l-0.9,0l-1.1,-0.1l-0.9,0l-0.9,-0.2l-1,-0.1l-0.9,-0.2L185,475.7l-0.8,-0.1l-0.9,-0.3l-0.7,-0.2l-0.8,-0.3L181,474.5l-0.7,-0.3l-0.6,-0.3l-0.8,-0.3l-0.6,-0.4l-0.6,-0.4l-0.5,-0.4l-0.6,-0.5l-0.4,-0.3l-0.4,-0.4l-0.4,-0.5l-0.3,-0.4l-0.3,-0.5l-0.2,-0.5l-0.1,-0.4l-0.2,-0.5L174.2,468l0,-0.5Z" class="g4_18" />
<path d="M174.2,467.5l0,-0.5l0.1,-0.6l0.2,-0.4l0.1,-0.5l0.2,-0.4l0.3,-0.5l0.3,-0.5l0.4,-0.4l0.4,-0.3l0.4,-0.5l0.5,-0.4l0.6,-0.3l0.6,-0.5l0.6,-0.3l0.6,-0.5l0.8,-0.3l0.7,-0.3l0.7,-0.3l0.9,-0.1l0.7,-0.3l0.9,-0.3l0.8,-0.2l0.9,-0.2l0.9,-0.1l1,-0.2l0.9,-0.1l0.9,0l1.1,-0.2l0.9,0l0.9,0l0.9,0l0.9,0l1.1,0.2l0.9,0l0.9,0.1l1,0.2l0.9,0.1l0.9,0.2l0.7,0.2l1,0.3l0.7,0.3l0.9,0.1l0.7,0.3l0.7,0.3l0.8,0.3l0.6,0.5l0.6,0.3l0.6,0.5l0.6,0.3l0.5,0.4l0.4,0.5l0.4,0.3l0.4,0.4l0.3,0.5l0.3,0.5l0.2,0.4l0.1,0.5l0.2,0.4l0.1,0.6l0,0.5l-0.1,0.5l0,0.4l-0.2,0.5l-0.1,0.4l-0.2,0.5l-0.3,0.5l-0.3,0.4l-0.4,0.5l-0.4,0.4l-0.6,0.3l-0.4,0.5l-0.5,0.4l-0.6,0.4l-0.6,0.4l-0.8,0.3l-0.6,0.3l-0.7,0.3l-0.8,0.3l-0.8,0.3l-0.7,0.3l-1,0.2l-0.7,0.1l-0.9,0.4l-0.9,0.1l-1,0.2l-0.9,0l-0.9,0.1l-1.1,0l-0.9,0.2l-0.9,0l0,-0.2l-0.9,0l-0.9,0l-1.1,-0.1l-0.9,0l-0.9,-0.2l-1,-0.1l-0.9,-0.2L185,475.7l-0.8,-0.1l-0.9,-0.3l-0.7,-0.2l-0.8,-0.3L181,474.5l-0.7,-0.3l-0.6,-0.3l-0.8,-0.3l-0.6,-0.4l-0.6,-0.4l-0.5,-0.4l-0.6,-0.5l-0.4,-0.3l-0.4,-0.4l-0.4,-0.5l-0.3,-0.4l-0.3,-0.5l-0.2,-0.5l-0.1,-0.4l-0.2,-0.5L174.2,468l0,-0.5Z" class="g5_18" />
<path fill-rule="evenodd" d="M174.2,458.3l0,-0.4l0.1,-0.5l0.2,-0.4l0.1,-0.7l0.2,-0.4l0.3,-0.5l0.3,-0.4l0.4,-0.3l0.4,-0.5l0.4,-0.4l0.5,-0.5l0.6,-0.3l0.6,-0.5l0.6,-0.3l0.6,-0.3l0.8,-0.4l0.7,-0.3l0.7,-0.4l0.9,-0.1l0.7,-0.3l0.9,-0.2l0.8,-0.3l0.9,-0.1l0.9,-0.2l1,-0.1l0.9,0l0.9,-0.2l1.1,-0.1l0.9,0l0.9,0l0.9,0l0.9,0l1.1,0.1l0.9,0.2l0.9,0l1,0.1l0.9,0.2l0.9,0.1l0.7,0.3l1,0.2l0.7,0.3l0.9,0.1l0.7,0.4l0.7,0.3l0.8,0.4l0.6,0.3l0.6,0.3l0.6,0.5l0.6,0.3l0.5,0.5l0.4,0.4l0.4,0.5l0.4,0.3l0.3,0.4l0.3,0.5l0.2,0.4l0.1,0.7l0.2,0.4l0.1,0.5l0,0.4l-0.1,0.5l0,0.5l-0.2,0.4l-0.1,0.5l-0.2,0.4l-0.3,0.5l-0.3,0.4l-0.4,0.5l-0.4,0.5l-0.6,0.4l-0.4,0.5l-0.5,0.3l-0.6,0.4l-0.6,0.3l-0.8,0.3l-0.6,0.4l-0.7,0.3l-0.8,0.3l-0.8,0.3l-0.7,0.3l-1,0.1l-0.7,0.3l-0.9,0.2l-0.9,0.1l-1,0.2l-0.9,0l-0.9,0.1l-1.1,0l-0.9,0.2l-0.9,0l0,-0.2l-0.9,0l-0.9,0l-1.1,0l-0.9,-0.1L187.8,467l-1,0l-0.9,-0.3L185,466.6l-0.8,-0.2l-0.9,-0.3L182.6,466l-0.8,-0.3L181,465.4l-0.7,-0.3l-0.6,-0.4l-0.8,-0.3L178.3,464l-0.6,-0.3l-0.5,-0.5l-0.6,-0.3l-0.4,-0.4L175.8,462l-0.4,-0.5l-0.3,-0.4l-0.3,-0.5l-0.2,-0.4l-0.1,-0.5l-0.2,-0.4l-0.1,-0.5l0,-0.5Z" class="g4_18" />
<path d="M174.2,458.3l0,-0.4l0.1,-0.5l0.2,-0.4l0.1,-0.7l0.2,-0.4l0.3,-0.5l0.3,-0.4l0.4,-0.3l0.4,-0.5l0.4,-0.4l0.5,-0.5l0.6,-0.3l0.6,-0.5l0.6,-0.3l0.6,-0.3l0.8,-0.4l0.7,-0.3l0.7,-0.4l0.9,-0.1l0.7,-0.3l0.9,-0.2l0.8,-0.3l0.9,-0.1l0.9,-0.2l1,-0.1l0.9,0l0.9,-0.2l1.1,-0.1l0.9,0l0.9,0l0.9,0l0.9,0l1.1,0.1l0.9,0.2l0.9,0l1,0.1l0.9,0.2l0.9,0.1l0.7,0.3l1,0.2l0.7,0.3l0.9,0.1l0.7,0.4l0.7,0.3l0.8,0.4l0.6,0.3l0.6,0.3l0.6,0.5l0.6,0.3l0.5,0.5l0.4,0.4l0.4,0.5l0.4,0.3l0.3,0.4l0.3,0.5l0.2,0.4l0.1,0.7l0.2,0.4l0.1,0.5l0,0.4l-0.1,0.5l0,0.5l-0.2,0.4l-0.1,0.5l-0.2,0.4l-0.3,0.5l-0.3,0.4l-0.4,0.5l-0.4,0.5l-0.6,0.4l-0.4,0.5l-0.5,0.3l-0.6,0.4l-0.6,0.3l-0.8,0.3l-0.6,0.4l-0.7,0.3l-0.8,0.3l-0.8,0.3l-0.7,0.3l-1,0.1l-0.7,0.3l-0.9,0.2l-0.9,0.1l-1,0.2l-0.9,0l-0.9,0.1l-1.1,0l-0.9,0.2l-0.9,0l0,-0.2l-0.9,0l-0.9,0l-1.1,0l-0.9,-0.1L187.8,467l-1,0l-0.9,-0.3L185,466.6l-0.8,-0.2l-0.9,-0.3L182.6,466l-0.8,-0.3L181,465.4l-0.7,-0.3l-0.6,-0.4l-0.8,-0.3L178.3,464l-0.6,-0.3l-0.5,-0.5l-0.6,-0.3l-0.4,-0.4L175.8,462l-0.4,-0.5l-0.3,-0.4l-0.3,-0.5l-0.2,-0.4l-0.1,-0.5l-0.2,-0.4l-0.1,-0.5l0,-0.5Z" class="g5_18" />
<path fill-rule="evenodd" d="M174.2,449.2l0,-0.5l0.1,-0.5l0.2,-0.6l0.1,-0.4l0.2,-0.5l0.3,-0.4l0.3,-0.5l0.4,-0.5l0.4,-0.3l0.4,-0.4l0.5,-0.5l0.6,-0.3l0.6,-0.4l0.6,-0.3l0.6,-0.3l0.8,-0.5L181,442l0.7,-0.3l0.9,-0.2l0.7,-0.3l0.9,-0.1l0.8,-0.3l0.9,-0.2l0.9,-0.1l1,-0.2l0.9,-0.1l0.9,0l1.1,-0.2l0.9,0l0.9,0l0.9,0l0.9,0l1.1,0.2l0.9,0l0.9,0.1l1,0.2l0.9,0.1l0.9,0.2l0.7,0.3l1,0.1l0.7,0.3l0.9,0.2L204,442l0.7,0.3l0.8,0.5l0.6,0.3l0.6,0.3l0.6,0.4l0.6,0.3l0.5,0.5l0.4,0.4l0.4,0.3l0.4,0.5l0.3,0.5l0.3,0.4l0.2,0.5l0.1,0.4l0.2,0.6l0.1,0.5l0,0.5l-0.1,0.4l0,0.5l-0.2,0.4l-0.1,0.5l-0.2,0.5l-0.3,0.4l-0.3,0.5l-0.4,0.4l-0.4,0.5l-0.6,0.5l-0.4,0.3l-0.5,0.4l-0.6,0.5l-0.6,0.3l-0.8,0.3l-0.6,0.3l-0.7,0.3l-0.8,0.3l-0.8,0.3l-0.7,0.3l-1,0.2l-0.7,0.3l-0.9,0.1l-0.9,0.2l-1,0.1l-0.9,0l-0.9,0.2l-1.1,0l-0.9,0.1l-0.9,0l0,-0.1l-0.9,0l-0.9,0L189.6,458l-0.9,0l-0.9,-0.1l-1,0l-0.9,-0.3L185,457.4l-0.8,-0.1L183.3,457l-0.7,-0.2l-0.8,-0.3L181,456.2l-0.7,-0.3l-0.6,-0.3l-0.8,-0.3l-0.6,-0.5l-0.6,-0.3l-0.5,-0.4l-0.6,-0.3l-0.4,-0.5l-0.4,-0.5l-0.4,-0.4l-0.3,-0.5l-0.3,-0.4L174.6,451l-0.1,-0.5l-0.2,-0.4l-0.1,-0.5l0,-0.4Z" class="g4_18" />
<path d="M174.2,449.2l0,-0.5l0.1,-0.5l0.2,-0.6l0.1,-0.4l0.2,-0.5l0.3,-0.4l0.3,-0.5l0.4,-0.5l0.4,-0.3l0.4,-0.4l0.5,-0.5l0.6,-0.3l0.6,-0.4l0.6,-0.3l0.6,-0.3l0.8,-0.5L181,442l0.7,-0.3l0.9,-0.2l0.7,-0.3l0.9,-0.1l0.8,-0.3l0.9,-0.2l0.9,-0.1l1,-0.2l0.9,-0.1l0.9,0l1.1,-0.2l0.9,0l0.9,0l0.9,0l0.9,0l1.1,0.2l0.9,0l0.9,0.1l1,0.2l0.9,0.1l0.9,0.2l0.7,0.3l1,0.1l0.7,0.3l0.9,0.2L204,442l0.7,0.3l0.8,0.5l0.6,0.3l0.6,0.3l0.6,0.4l0.6,0.3l0.5,0.5l0.4,0.4l0.4,0.3l0.4,0.5l0.3,0.5l0.3,0.4l0.2,0.5l0.1,0.4l0.2,0.6l0.1,0.5l0,0.5l-0.1,0.4l0,0.5l-0.2,0.4l-0.1,0.5l-0.2,0.5l-0.3,0.4l-0.3,0.5l-0.4,0.4l-0.4,0.5l-0.6,0.5l-0.4,0.3l-0.5,0.4l-0.6,0.5l-0.6,0.3l-0.8,0.3l-0.6,0.3l-0.7,0.3l-0.8,0.3l-0.8,0.3l-0.7,0.3l-1,0.2l-0.7,0.3l-0.9,0.1l-0.9,0.2l-1,0.1l-0.9,0l-0.9,0.2l-1.1,0l-0.9,0.1l-0.9,0l0,-0.1l-0.9,0l-0.9,0L189.6,458l-0.9,0l-0.9,-0.1l-1,0l-0.9,-0.3L185,457.4l-0.8,-0.1L183.3,457l-0.7,-0.2l-0.8,-0.3L181,456.2l-0.7,-0.3l-0.6,-0.3l-0.8,-0.3l-0.6,-0.5l-0.6,-0.3l-0.5,-0.4l-0.6,-0.3l-0.4,-0.5l-0.4,-0.5l-0.4,-0.4l-0.3,-0.5l-0.3,-0.4L174.6,451l-0.1,-0.5l-0.2,-0.4l-0.1,-0.5l0,-0.4Z" class="g5_18" />
<path fill-rule="evenodd" d="M174.2,440l0,-0.5l0.1,-0.6l0.2,-0.4l0.1,-0.5l0.2,-0.4l0.3,-0.5l0.3,-0.5l0.4,-0.4l0.4,-0.3l0.4,-0.5l0.5,-0.4l0.6,-0.3l0.6,-0.5l0.6,-0.3l0.6,-0.5l0.8,-0.3l0.7,-0.3l0.7,-0.3l0.9,-0.1l0.7,-0.3l0.9,-0.3l0.8,-0.2l0.9,-0.2l0.9,-0.1l1,-0.2l0.9,-0.1l0.9,0l1.1,-0.2l0.9,0l0.9,0l0.9,0l0.9,0l1.1,0.2l0.9,0l0.9,0.1l1,0.2l0.9,0.1l0.9,0.2l0.7,0.2l1,0.3l0.7,0.3l0.9,0.1l0.7,0.3l0.7,0.3l0.8,0.3l0.6,0.5l0.6,0.3l0.6,0.5l0.6,0.3l0.5,0.4l0.4,0.5l0.4,0.3l0.4,0.4l0.3,0.5l0.3,0.5l0.2,0.4l0.1,0.5l0.2,0.4l0.1,0.6l0,0.5l-0.1,0.5l0,0.4l-0.2,0.5l-0.1,0.4l-0.2,0.5l-0.3,0.5l-0.3,0.4l-0.4,0.5l-0.4,0.4l-0.6,0.3l-0.4,0.5l-0.5,0.4l-0.6,0.4l-0.6,0.4l-0.8,0.3l-0.6,0.3L204,447l-0.8,0.3l-0.8,0.3l-0.7,0.3l-1,0.2l-0.7,0.1l-0.9,0.4l-0.9,0.1l-1,0.2l-0.9,0l-0.9,0.1l-1.1,0l-0.9,0.2l-0.9,0l0,-0.2l-0.9,0l-0.9,0l-1.1,-0.1l-0.9,0l-0.9,-0.2l-1,-0.1l-0.9,-0.2L185,448.2l-0.8,-0.1l-0.9,-0.3l-0.7,-0.2l-0.8,-0.3L181,447l-0.7,-0.3l-0.6,-0.3l-0.8,-0.3l-0.6,-0.4l-0.6,-0.4l-0.5,-0.4l-0.6,-0.5l-0.4,-0.3l-0.4,-0.4l-0.4,-0.5l-0.3,-0.4l-0.3,-0.5l-0.2,-0.5l-0.1,-0.4l-0.2,-0.5l-0.1,-0.4l0,-0.5Z" class="g4_18" />
<path d="M174.2,440l0,-0.5l0.1,-0.6l0.2,-0.4l0.1,-0.5l0.2,-0.4l0.3,-0.5l0.3,-0.5l0.4,-0.4l0.4,-0.3l0.4,-0.5l0.5,-0.4l0.6,-0.3l0.6,-0.5l0.6,-0.3l0.6,-0.5l0.8,-0.3l0.7,-0.3l0.7,-0.3l0.9,-0.1l0.7,-0.3l0.9,-0.3l0.8,-0.2l0.9,-0.2l0.9,-0.1l1,-0.2l0.9,-0.1l0.9,0l1.1,-0.2l0.9,0l0.9,0l0.9,0l0.9,0l1.1,0.2l0.9,0l0.9,0.1l1,0.2l0.9,0.1l0.9,0.2l0.7,0.2l1,0.3l0.7,0.3l0.9,0.1l0.7,0.3l0.7,0.3l0.8,0.3l0.6,0.5l0.6,0.3l0.6,0.5l0.6,0.3l0.5,0.4l0.4,0.5l0.4,0.3l0.4,0.4l0.3,0.5l0.3,0.5l0.2,0.4l0.1,0.5l0.2,0.4l0.1,0.6l0,0.5l-0.1,0.5l0,0.4l-0.2,0.5l-0.1,0.4l-0.2,0.5l-0.3,0.5l-0.3,0.4l-0.4,0.5l-0.4,0.4l-0.6,0.3l-0.4,0.5l-0.5,0.4l-0.6,0.4l-0.6,0.4l-0.8,0.3l-0.6,0.3L204,447l-0.8,0.3l-0.8,0.3l-0.7,0.3l-1,0.2l-0.7,0.1l-0.9,0.4l-0.9,0.1l-1,0.2l-0.9,0l-0.9,0.1l-1.1,0l-0.9,0.2l-0.9,0l0,-0.2l-0.9,0l-0.9,0l-1.1,-0.1l-0.9,0l-0.9,-0.2l-1,-0.1l-0.9,-0.2L185,448.2l-0.8,-0.1l-0.9,-0.3l-0.7,-0.2l-0.8,-0.3L181,447l-0.7,-0.3l-0.6,-0.3l-0.8,-0.3l-0.6,-0.4l-0.6,-0.4l-0.5,-0.4l-0.6,-0.5l-0.4,-0.3l-0.4,-0.4l-0.4,-0.5l-0.3,-0.4l-0.3,-0.5l-0.2,-0.5l-0.1,-0.4l-0.2,-0.5l-0.1,-0.4l0,-0.5Z" class="g5_18" />
<path fill-rule="evenodd" d="M641.7,293.3l0,-0.4l0.1,-0.5L642,292l0.1,-0.7l0.2,-0.4l0.3,-0.5l0.3,-0.4l0.4,-0.3l0.4,-0.5l0.4,-0.4l0.5,-0.5l0.6,-0.3l0.6,-0.5l0.6,-0.3l0.6,-0.3l0.8,-0.4l0.7,-0.3l0.7,-0.4l0.9,-0.1l0.7,-0.3l1,-0.2l0.7,-0.3l0.9,-0.1l0.9,-0.2l1,-0.1l0.9,0l0.9,-0.2l1.1,-0.1l0.9,0l0.9,0l0.9,0l0.9,0l1.1,0.1l0.9,0.2l0.9,0l1,0.1l0.9,0.2l0.9,0.1l0.7,0.3l1,0.2l0.7,0.3l0.9,0.1l0.7,0.4l0.7,0.3l0.8,0.4l0.6,0.3l0.6,0.3l0.6,0.5l0.6,0.3l0.5,0.5l0.4,0.4l0.4,0.5l0.4,0.3l0.3,0.4l0.3,0.5l0.2,0.4L678,292l0.2,0.4l0.1,0.5l0,0.4l-0.1,0.5l0,0.5l-0.2,0.4l-0.1,0.5l-0.2,0.4l-0.3,0.5l-0.3,0.4l-0.4,0.5l-0.4,0.5l-0.6,0.4l-0.4,0.5l-0.5,0.3l-0.6,0.4l-0.6,0.3l-0.8,0.4l-0.6,0.3l-0.7,0.3l-0.8,0.3l-0.8,0.3l-0.7,0.3l-1,0.1l-0.7,0.3l-0.9,0.2l-0.9,0.1l-1,0.2l-0.9,0l-0.9,0.1l-1.1,0l-0.9,0.2l-0.9,0l0,-0.2l-0.9,0l-0.9,0l-1.1,0l-0.9,-0.1L655.3,302l-1,0l-0.9,-0.3l-0.9,-0.1l-0.7,-0.2l-1,-0.3L650.1,301l-0.8,-0.3l-0.8,-0.3l-0.7,-0.3l-0.6,-0.3l-0.8,-0.4L645.8,299l-0.6,-0.3l-0.5,-0.5l-0.6,-0.3l-0.4,-0.4L643.3,297l-0.4,-0.5l-0.3,-0.4l-0.3,-0.5l-0.2,-0.4L642,294.7l-0.2,-0.4l-0.1,-0.5l0,-0.5Z" class="g4_18" />
<path d="M641.7,293.3l0,-0.4l0.1,-0.5L642,292l0.1,-0.7l0.2,-0.4l0.3,-0.5l0.3,-0.4l0.4,-0.3l0.4,-0.5l0.4,-0.4l0.5,-0.5l0.6,-0.3l0.6,-0.5l0.6,-0.3l0.6,-0.3l0.8,-0.4l0.7,-0.3l0.7,-0.4l0.9,-0.1l0.7,-0.3l1,-0.2l0.7,-0.3l0.9,-0.1l0.9,-0.2l1,-0.1l0.9,0l0.9,-0.2l1.1,-0.1l0.9,0l0.9,0l0.9,0l0.9,0l1.1,0.1l0.9,0.2l0.9,0l1,0.1l0.9,0.2l0.9,0.1l0.7,0.3l1,0.2l0.7,0.3l0.9,0.1l0.7,0.4l0.7,0.3l0.8,0.4l0.6,0.3l0.6,0.3l0.6,0.5l0.6,0.3l0.5,0.5l0.4,0.4l0.4,0.5l0.4,0.3l0.3,0.4l0.3,0.5l0.2,0.4L678,292l0.2,0.4l0.1,0.5l0,0.4l-0.1,0.5l0,0.5l-0.2,0.4l-0.1,0.5l-0.2,0.4l-0.3,0.5l-0.3,0.4l-0.4,0.5l-0.4,0.5l-0.6,0.4l-0.4,0.5l-0.5,0.3l-0.6,0.4l-0.6,0.3l-0.8,0.4l-0.6,0.3l-0.7,0.3l-0.8,0.3l-0.8,0.3l-0.7,0.3l-1,0.1l-0.7,0.3l-0.9,0.2l-0.9,0.1l-1,0.2l-0.9,0l-0.9,0.1l-1.1,0l-0.9,0.2l-0.9,0l0,-0.2l-0.9,0l-0.9,0l-1.1,0l-0.9,-0.1L655.3,302l-1,0l-0.9,-0.3l-0.9,-0.1l-0.7,-0.2l-1,-0.3L650.1,301l-0.8,-0.3l-0.8,-0.3l-0.7,-0.3l-0.6,-0.3l-0.8,-0.4L645.8,299l-0.6,-0.3l-0.5,-0.5l-0.6,-0.3l-0.4,-0.4L643.3,297l-0.4,-0.5l-0.3,-0.4l-0.3,-0.5l-0.2,-0.4L642,294.7l-0.2,-0.4l-0.1,-0.5l0,-0.5Z" class="g5_18" />
<path fill-rule="evenodd" d="M641.7,284.2l0,-0.5l0.1,-0.5l0.2,-0.6l0.1,-0.4l0.2,-0.5l0.3,-0.4l0.3,-0.5l0.4,-0.5l0.4,-0.3l0.4,-0.4l0.5,-0.5l0.6,-0.3l0.6,-0.4l0.6,-0.3l0.6,-0.4l0.8,-0.4l0.7,-0.3l0.7,-0.3l0.9,-0.2l0.7,-0.3l1,-0.1l0.7,-0.3l0.9,-0.2l0.9,-0.1l1,-0.2l0.9,-0.1l0.9,0l1.1,-0.2l0.9,0l0.9,0l0.9,0l0.9,0l1.1,0.2l0.9,0l0.9,0.1l1,0.2l0.9,0.1l0.9,0.2l0.7,0.3l1,0.1l0.7,0.3l0.9,0.2l0.7,0.3l0.7,0.3l0.8,0.4l0.6,0.4l0.6,0.3l0.6,0.4l0.6,0.3l0.5,0.5l0.4,0.4l0.4,0.3l0.4,0.5l0.3,0.5l0.3,0.4l0.2,0.5l0.1,0.4l0.2,0.6l0.1,0.5l0,0.5l-0.1,0.4l0,0.5l-0.2,0.4l-0.1,0.5l-0.2,0.5l-0.3,0.4l-0.3,0.5l-0.4,0.4l-0.4,0.5l-0.6,0.5l-0.4,0.3l-0.5,0.4l-0.6,0.5l-0.6,0.3l-0.8,0.3l-0.6,0.3l-0.7,0.3l-0.8,0.3l-0.8,0.3l-0.7,0.3l-1,0.2l-0.7,0.3l-0.9,0.1l-0.9,0.2l-1,0.1l-0.9,0l-0.9,0.2l-1.1,0l-0.9,0.1l-0.9,0l0,-0.1l-0.9,0l-0.9,0L657.1,293l-0.9,0l-0.9,-0.1l-1,0l-0.9,-0.3l-0.9,-0.2l-0.7,-0.1l-1,-0.3l-0.7,-0.2l-0.8,-0.3l-0.8,-0.3l-0.7,-0.3l-0.6,-0.3l-0.8,-0.3l-0.6,-0.5l-0.6,-0.3l-0.5,-0.4l-0.6,-0.3l-0.4,-0.5l-0.4,-0.5l-0.4,-0.4l-0.3,-0.5l-0.3,-0.4L642.1,286L642,285.5l-0.2,-0.4l-0.1,-0.5l0,-0.4Z" class="g4_18" />
<path d="M641.7,284.2l0,-0.5l0,-0.1" class="g5_18" />
<path d="M641.8,283.1l0.2,-0.5" class="g5_18" />
<path d="M642.1,282l0.2,-0.3l0.1,-0.1" class="g5_18" />
<path d="M642.7,281.3l0.2,-0.5l0.1,0" class="g5_18" />
<path d="M643.3,280.3l0.4,-0.3l0,-0.1" class="g5_18" />
<path d="M644.1,279.6l0.5,-0.3" class="g5_18" />
<path d="M644.9,279l0.3,-0.2l0.1,-0.1" class="g5_18" />
<path d="M645.8,278.4l0.5,-0.3" class="g5_18" />
<path d="M646.7,277.9l0.3,-0.2l0.2,-0.1" class="g5_18" />
<path d="M647.6,277.4l0.2,-0.1l0.4,-0.2" class="g5_18" />
<path d="M648.7,277l0.5,-0.2" class="g5_18" />
<path d="M649.6,276.5l0.5,0l0.1,-0.1" class="g5_18" />
<path d="M650.7,276.2l0.1,0l0.3,-0.1" class="g5_18" />
<path d="M651.8,276.1l0.4,-0.2" class="g5_18" />
<path d="M652.7,275.8l0.6,-0.2" class="g5_18" />
<path d="M653.7,275.5l0.6,0" class="g5_18" />
<path d="M654.8,275.3l0.5,0" class="g5_18" />
<path d="M655.9,275.3l0.3,-0.1l0.1,0" class="g5_18" />
<path d="M656.9,275.2l0.2,0l0.3,0" class="g5_18" />
<path d="M658,275l0.2,0l0.3,0" class="g5_18" />
<path d="M659.1,275l0.4,0" class="g5_18" />
<path d="M660.2,275l0.4,0" class="g5_18" />
<path d="M661.2,275l0.5,0" class="g5_18" />
<path d="M662.1,275.2l0.6,0" class="g5_18" />
<path d="M663.4,275.2l0.4,0" class="g5_18" />
<path d="M664.3,275.3l0.4,0l0.2,0" class="g5_18" />
<path d="M665.3,275.5l0.4,0l0.3,0" class="g5_18" />
<path d="M666.4,275.6l0.2,0l0.4,0.2" class="g5_18" />
<path d="M667.5,275.8l0.4,0.1" class="g5_18" />
<path d="M668.6,276.1l0.4,0.1" class="g5_18" />
<path d="M669.5,276.4l0.4,0.1l0.2,0" class="g5_18" />
<path d="M670.5,276.7l0.3,0l0.2,0.1" class="g5_18" />
<path d="M671.5,277l0.6,0.3" class="g5_18" />
<path d="M672.5,277.4l0.5,0.3" class="g5_18" />
<path d="M673.4,277.9l0.2,0.2l0.3,0.1" class="g5_18" />
<path d="M674.4,278.5l0.4,0.3" class="g5_18" />
<path d="M675.3,279.1l0.1,0l0.2,0.3" class="g5_18" />
<path d="M676,279.7l0.3,0.3l0.2,0" class="g5_18" />
<path d="M676.8,280.5l0.3,0.3l0,0.2" class="g5_18" />
<path d="M677.4,281.3l0.3,0.4l0,0.2" class="g5_18" />
<path d="M677.9,282.3l0.1,0.3l0,0.2" class="g5_18" />
<path d="M678.2,283.2l0.1,0.5l0,0.2" class="g5_18" />
<path d="M678.3,284.3l-0.1,0.3l0,0.2" class="g5_18" />
<path d="M678,285.4l0,0.1l0,0.3" class="g5_18" />
<path d="M677.7,286.3l0,0.2l-0.1,0.3" class="g5_18" />
<path d="M677.3,287.2l-0.2,0.2l-0.1,0.3" class="g5_18" />
<path d="M676.5,288l-0.2,0.3l-0.1,0.1" class="g5_18" />
<path d="M675.7,288.8l-0.4,0.3" class="g5_18" />
<path d="M675,289.4l-0.2,0.1l-0.3,0.2" class="g5_18" />
<path d="M674.1,290l-0.5,0.3" class="g5_18" />
<path d="M673.1,290.4l-0.3,0.2l-0.3,0.1" class="g5_18" />
<path d="M672.1,291l-0.5,0.2" class="g5_18" />
<path d="M671.2,291.3l-0.5,0.2l0,0.2" class="g5_18" />
<path d="M670.1,291.8l-0.2,0l-0.3,0.2" class="g5_18" />
<path d="M669.2,292.1l-0.6,0.2" class="g5_18" />
<path d="M668.1,292.3l-0.5,0.1" class="g5_18" />
<path d="M667,292.6l-0.4,0.1" class="g5_18" />
<path d="M666,292.7l-0.3,0.2l-0.2,0" class="g5_18" />
<path d="M665,292.9l-0.3,0.1l-0.3,0" class="g5_18" />
<path d="M664,293l-0.2,0l-0.4,0" class="g5_18" />
<path d="M662.9,293.2l-0.6,0" class="g5_18" />
<path d="M661.8,293.2l-0.4,0.1" class="g5_18" />
<path d="M660.8,293.3l-0.6,0" class="g5_18" />
<path d="M659.7,293.2l-0.5,0" class="g5_18" />
<path d="M658.6,293.2l-0.4,0" class="g5_18" />
<path d="M657.6,293.2L657.1,293" class="g5_18" />
<path d="M656.6,293l-0.4,0l-0.2,0" class="g5_18" />
<path d="M655.6,293l-0.3,-0.1l-0.3,0" class="g5_18" />
<path d="M654.5,292.9l-0.2,0l-0.4,-0.2" class="g5_18" />
<path d="M653.4,292.6l-0.4,0" class="g5_18" />
<path d="M652.4,292.4l-0.5,-0.1" class="g5_18" />
<path d="M651.3,292.1L650.8,292" class="g5_18" />
<path d="M650.4,291.8l-0.3,0l-0.3,-0.1" class="g5_18" />
<path d="M649.3,291.5l-0.5,-0.2" class="g5_18" />
<path d="M648.4,291.2l-0.6,-0.3" class="g5_18" />
<path d="M647.3,290.7l-0.1,-0.1l-0.3,-0.2" class="g5_18" />
<path d="M646.4,290.3L645.9,290" class="g5_18" />
<path d="M645.5,289.7l-0.3,-0.2L645,289.4" class="g5_18" />
<path d="M644.7,289.1l-0.4,-0.3" class="g5_18" />
<path d="M643.8,288.4l-0.1,-0.1L643.5,288" class="g5_18" />
<path d="M643,287.5l-0.1,-0.1l-0.2,-0.2" class="g5_18" />
<path d="M642.4,286.8l-0.1,-0.3l0,-0.2" class="g5_18" />
<path d="M642,285.8l0,-0.3l-0.2,-0.3" class="g5_18" />
<path d="M641.8,284.8l-0.1,-0.2l0,-0.3" class="g5_18" />
<path fill-rule="evenodd" d="M641.7,275l0,-0.5l0.1,-0.6l0.2,-0.4l0.1,-0.5l0.2,-0.4l0.3,-0.5l0.3,-0.5l0.4,-0.4l0.4,-0.3l0.4,-0.5l0.5,-0.4l0.6,-0.3l0.6,-0.5l0.6,-0.3l0.6,-0.5l0.8,-0.3l0.7,-0.3l0.7,-0.3l0.9,-0.1l0.7,-0.3l1,-0.3l0.7,-0.2l0.9,-0.2l0.9,-0.1l1,-0.2l0.9,-0.1l0.9,0l1.1,-0.2l0.9,0l0.9,0l0.9,0l0.9,0l1.1,0.2l0.9,0l0.9,0.1l1,0.2l0.9,0.1l0.9,0.2l0.7,0.2l1,0.3l0.7,0.3l0.9,0.1l0.7,0.3l0.7,0.3l0.8,0.3l0.6,0.5l0.6,0.3l0.6,0.5l0.6,0.3l0.5,0.4l0.4,0.5l0.4,0.3l0.4,0.4l0.3,0.5l0.3,0.5l0.2,0.4l0.1,0.5l0.2,0.4l0.1,0.6l0,0.5l-0.1,0.5l0,0.4l-0.2,0.5l-0.1,0.4l-0.2,0.5l-0.3,0.4l-0.3,0.5l-0.4,0.5l-0.4,0.4l-0.6,0.3l-0.4,0.5l-0.5,0.4l-0.6,0.4l-0.6,0.4l-0.8,0.3l-0.6,0.3l-0.7,0.3l-0.8,0.3l-0.8,0.3l-0.7,0.3l-1,0.2l-0.7,0.1l-0.9,0.4l-0.9,0.1l-1,0.2l-0.9,0l-0.9,0.1l-1.1,0l-0.9,0.2l-0.9,0l0,-0.2l-0.9,0l-0.9,0l-1.1,-0.1l-0.9,0l-0.9,-0.2l-1,-0.1l-0.9,-0.2l-0.9,-0.2l-0.7,-0.1l-1,-0.3l-0.7,-0.2l-0.8,-0.3L648.5,282l-0.7,-0.3l-0.6,-0.3l-0.8,-0.3l-0.6,-0.4l-0.6,-0.4l-0.5,-0.4l-0.6,-0.5l-0.4,-0.3l-0.4,-0.4l-0.4,-0.5l-0.3,-0.5l-0.3,-0.4l-0.2,-0.5L642,276.4l-0.2,-0.5l-0.1,-0.4l0,-0.5Z" class="g4_18" />
<path d="M641.7,275l0,-0.5l0,-0.1" class="g5_18" />
<path d="M641.8,273.9l0.2,-0.4" class="g5_18" />
<path d="M642.1,272.9l0.2,-0.3l0.1,-0.2" class="g5_18" />
<path d="M642.7,271.9l0.2,-0.3l0.1,0" class="g5_18" />
<path d="M643.3,271.2l0.4,-0.3l0,-0.2" class="g5_18" />
<path d="M644.1,270.4l0.5,-0.3" class="g5_18" />
<path d="M644.9,269.8l0.3,-0.1l0.1,-0.2" class="g5_18" />
<path d="M645.8,269.2l0.5,-0.3" class="g5_18" />
<path d="M646.7,268.7l0.3,-0.3l0.2,0" class="g5_18" />
<path d="M647.6,268.1l0.2,0l0.4,-0.1" class="g5_18" />
<path d="M648.7,267.8l0.5,-0.1" class="g5_18" />
<path d="M649.6,267.4l0.5,0l0.1,-0.2" class="g5_18" />
<path d="M650.7,267.1l0.1,0l0.3,-0.2" class="g5_18" />
<path d="M651.8,266.8l0.4,0" class="g5_18" />
<path d="M652.7,266.6l0.6,-0.2" class="g5_18" />
<path d="M653.7,266.3l0.6,0" class="g5_18" />
<path d="M654.8,266.1l0.5,0" class="g5_18" />
<path d="M655.9,266.1l0.3,-0.1l0.1,0" class="g5_18" />
<path d="M656.9,266l0.2,0l0.3,-0.2" class="g5_18" />
<path d="M658,265.8l0.2,0l0.3,0" class="g5_18" />
<path d="M659.1,265.8l0.4,0" class="g5_18" />
<path d="M660.2,265.8l0.4,0" class="g5_18" />
<path d="M661.2,265.8l0.5,0" class="g5_18" />
<path d="M662.1,265.8l0.6,0.2" class="g5_18" />
<path d="M663.4,266l0.4,0" class="g5_18" />
<path d="M664.3,266.1l0.4,0l0.2,0" class="g5_18" />
<path d="M665.3,266.1l0.4,0.2l0.3,0" class="g5_18" />
<path d="M666.4,266.4l0.2,0l0.4,0" class="g5_18" />
<path d="M667.5,266.6l0.4,0.2" class="g5_18" />
<path d="M668.6,266.9l0.4,0.2" class="g5_18" />
<path d="M669.5,267.2l0.4,0.2l0.2,0" class="g5_18" />
<path d="M670.5,267.5l0.3,0l0.2,0.2" class="g5_18" />
<path d="M671.5,267.8l0.6,0.3" class="g5_18" />
<path d="M672.5,268.3l0.5,0.1" class="g5_18" />
<path d="M673.4,268.7l0.2,0.2l0.3,0.1" class="g5_18" />
<path d="M674.4,269.3l0.4,0.4" class="g5_18" />
<path d="M675.3,270l0.1,0l0.2,0.3" class="g5_18" />
<path d="M676,270.6l0.3,0.3l0.2,0" class="g5_18" />
<path d="M676.8,271.3l0.3,0.3" class="g5_18" />
<path d="M677.4,272.1l0.3,0.5" class="g5_18" />
<path d="M677.9,273.2l0.1,0.3l0,0.1" class="g5_18" />
<path d="M678.2,274.1l0.1,0.4" class="g5_18" />
<path d="M678.3,275.2l-0.1,0.3l0,0.1" class="g5_18" />
<path d="M678,276.2l0,0.2l0,0.3" class="g5_18" />
<path d="M677.7,277.1l0,0.2l-0.1,0.3" class="g5_18" />
<path d="M677.3,278.1l-0.2,0.1l-0.1,0.3" class="g5_18" />
<path d="M676.5,278.8l-0.2,0.3l-0.1,0.2" class="g5_18" />
<path d="M675.7,279.6l-0.4,0.3" class="g5_18" />
<path d="M675,280.2l-0.2,0.1l-0.3,0.2" class="g5_18" />
<path d="M674.1,280.8l-0.5,0.3" class="g5_18" />
<path d="M673.1,281.3l-0.3,0.1l-0.3,0.2" class="g5_18" />
<path d="M672.1,281.9l-0.5,0.1" class="g5_18" />
<path d="M671.2,282.2l-0.5,0.1" class="g5_18" />
<path d="M670.1,282.6l-0.2,0l-0.3,0" class="g5_18" />
<path d="M669.2,282.9l-0.6,0" class="g5_18" />
<path d="M668.1,283.1l-0.5,0.1" class="g5_18" />
<path d="M667,283.4l-0.4,0.2" class="g5_18" />
<path d="M666,283.6l-0.3,0.1l-0.2,0" class="g5_18" />
<path d="M665,283.7l-0.3,0.2l-0.3,0" class="g5_18" />
<path d="M664,283.9l-0.2,0l-0.4,0" class="g5_18" />
<path d="M662.9,284l-0.6,0" class="g5_18" />
<path d="M661.8,284l-0.4,0.2" class="g5_18" />
<path d="M660.8,284.2l-0.6,0" class="g5_18" />
<path d="M659.7,284l-0.5,0" class="g5_18" />
<path d="M658.6,284l-0.4,0" class="g5_18" />
<path d="M657.6,284l-0.5,-0.1" class="g5_18" />
<path d="M656.6,283.9l-0.4,0l-0.2,0" class="g5_18" />
<path d="M655.6,283.9l-0.3,-0.2l-0.3,0" class="g5_18" />
<path d="M654.5,283.6l-0.2,0l-0.4,0" class="g5_18" />
<path d="M653.4,283.4l-0.4,0" class="g5_18" />
<path d="M652.4,283.2l-0.5,-0.1" class="g5_18" />
<path d="M651.3,282.9l-0.5,-0.1" class="g5_18" />
<path d="M650.4,282.6l-0.3,0l-0.3,-0.1" class="g5_18" />
<path d="M649.3,282.3l-0.5,-0.1" class="g5_18" />
<path d="M648.4,282l-0.6,-0.3" class="g5_18" />
<path d="M647.3,281.6l-0.1,-0.2l-0.3,-0.1" class="g5_18" />
<path d="M646.4,281.1l-0.5,-0.3" class="g5_18" />
<path d="M645.5,280.5l-0.3,-0.2L645,280.2" class="g5_18" />
<path d="M644.7,279.9l-0.4,-0.3" class="g5_18" />
<path d="M643.8,279.1l-0.1,0l-0.2,-0.3" class="g5_18" />
<path d="M643,278.4l-0.1,-0.2l-0.2,-0.1" class="g5_18" />
<path d="M642.4,277.6l-0.1,-0.3l0,-0.2" class="g5_18" />
<path d="M642,276.7l0,-0.3l-0.2,-0.3" class="g5_18" />
<path d="M641.8,275.6l-0.1,-0.1l0,-0.3" class="g5_18" />
<path fill-rule="evenodd" d="M641.7,265.8l0,-0.4l0.1,-0.5l0.2,-0.4l0.1,-0.7l0.2,-0.4l0.3,-0.5l0.3,-0.4l0.4,-0.3l0.4,-0.5l0.4,-0.4l0.5,-0.5l0.6,-0.3l0.6,-0.5l0.6,-0.3l0.6,-0.3l0.8,-0.4l0.7,-0.3l0.7,-0.4l0.9,-0.1l0.7,-0.3l1,-0.2l0.7,-0.3l0.9,-0.1l0.9,-0.2l1,-0.1l0.9,0l0.9,-0.2l1.1,-0.1l0.9,0l0.9,0l0.9,0l0.9,0l1.1,0.1l0.9,0.2l0.9,0l1,0.1l0.9,0.2l0.9,0.1l0.7,0.3l1,0.2l0.7,0.3l0.9,0.1l0.7,0.4l0.7,0.3l0.8,0.4l0.6,0.3l0.6,0.3l0.6,0.5l0.6,0.3l0.5,0.5l0.4,0.4l0.4,0.5l0.4,0.3l0.3,0.4l0.3,0.5l0.2,0.4l0.1,0.7l0.2,0.4l0.1,0.5l0,0.4l-0.1,0.5l0,0.5l-0.2,0.4l-0.1,0.5l-0.2,0.4l-0.3,0.5l-0.3,0.4l-0.4,0.5l-0.4,0.5l-0.6,0.4l-0.4,0.5l-0.5,0.3l-0.6,0.4l-0.6,0.3l-0.8,0.4l-0.6,0.3l-0.7,0.3l-0.8,0.3l-0.8,0.3l-0.7,0.3l-1,0.1l-0.7,0.3l-0.9,0.2l-0.9,0.1l-1,0.2l-0.9,0l-0.9,0.1l-1.1,0l-0.9,0.2l-0.9,0l0,-0.2l-0.9,0l-0.9,0l-1.1,0l-0.9,-0.1l-0.9,-0.2l-1,0l-0.9,-0.3l-0.9,-0.1l-0.7,-0.2l-1,-0.3l-0.7,-0.1l-0.8,-0.3l-0.8,-0.3l-0.7,-0.3l-0.6,-0.3l-0.8,-0.4l-0.6,-0.4l-0.6,-0.3l-0.5,-0.5l-0.6,-0.3L643.7,270l-0.4,-0.5L642.9,269l-0.3,-0.4l-0.3,-0.5l-0.2,-0.4L642,267.2l-0.2,-0.4l-0.1,-0.5l0,-0.5Z" class="g4_18" />
<path d="M641.7,265.8l0,-0.4l0.1,-0.5l0.2,-0.4l0.1,-0.7l0.2,-0.4l0.3,-0.5l0.3,-0.4l0.4,-0.3l0.4,-0.5l0.4,-0.4l0.5,-0.5l0.6,-0.3l0.6,-0.5l0.6,-0.3l0.6,-0.3l0.8,-0.4l0.7,-0.3l0.7,-0.4l0.9,-0.1l0.7,-0.3l1,-0.2l0.7,-0.3l0.9,-0.1l0.9,-0.2l1,-0.1l0.9,0l0.9,-0.2l1.1,-0.1l0.9,0l0.9,0l0.9,0l0.9,0l1.1,0.1l0.9,0.2l0.9,0l1,0.1l0.9,0.2l0.9,0.1l0.7,0.3l1,0.2l0.7,0.3l0.9,0.1l0.7,0.4l0.7,0.3l0.8,0.4l0.6,0.3l0.6,0.3l0.6,0.5l0.6,0.3l0.5,0.5l0.4,0.4l0.4,0.5l0.4,0.3l0.3,0.4l0.3,0.5l0.2,0.4l0.1,0.7l0.2,0.4l0.1,0.5l0,0.4l-0.1,0.5l0,0.5l-0.2,0.4l-0.1,0.5l-0.2,0.4l-0.3,0.5l-0.3,0.4l-0.4,0.5l-0.4,0.5l-0.6,0.4l-0.4,0.5l-0.5,0.3l-0.6,0.4l-0.6,0.3l-0.8,0.4l-0.6,0.3l-0.7,0.3l-0.8,0.3l-0.8,0.3l-0.7,0.3l-1,0.1l-0.7,0.3l-0.9,0.2l-0.9,0.1l-1,0.2l-0.9,0l-0.9,0.1l-1.1,0l-0.9,0.2l-0.9,0l0,-0.2l-0.9,0l-0.9,0l-1.1,0l-0.9,-0.1l-0.9,-0.2l-1,0l-0.9,-0.3l-0.9,-0.1l-0.7,-0.2l-1,-0.3l-0.7,-0.1l-0.8,-0.3l-0.8,-0.3l-0.7,-0.3l-0.6,-0.3l-0.8,-0.4l-0.6,-0.4l-0.6,-0.3l-0.5,-0.5l-0.6,-0.3L643.7,270l-0.4,-0.5L642.9,269l-0.3,-0.4l-0.3,-0.5l-0.2,-0.4L642,267.2l-0.2,-0.4l-0.1,-0.5l0,-0.5Z" class="g5_18" />
<path fill-rule="evenodd" d="M641.7,256.7l0,-0.5l0.1,-0.5l0.2,-0.6l0.1,-0.4l0.2,-0.5l0.3,-0.4l0.3,-0.5l0.4,-0.5l0.4,-0.3l0.4,-0.4l0.5,-0.5l0.6,-0.3l0.6,-0.4l0.6,-0.3l0.6,-0.4l0.8,-0.4l0.7,-0.3l0.7,-0.3l0.9,-0.2l0.7,-0.3l1,-0.1l0.7,-0.3l0.9,-0.2l0.9,-0.1l1,-0.2l0.9,-0.1l0.9,0l1.1,-0.2l0.9,0l0.9,0l0.9,0l0.9,0l1.1,0.2l0.9,0l0.9,0.1l1,0.2l0.9,0.1l0.9,0.2l0.7,0.3l1,0.1l0.7,0.3l0.9,0.2l0.7,0.3l0.7,0.3l0.8,0.4l0.6,0.4l0.6,0.3l0.6,0.4l0.6,0.3l0.5,0.5l0.4,0.4l0.4,0.3l0.4,0.5l0.3,0.5l0.3,0.4l0.2,0.5l0.1,0.4l0.2,0.6l0.1,0.5l0,0.5l-0.1,0.4l0,0.5L678,258l-0.1,0.5l-0.2,0.5l-0.3,0.4l-0.3,0.5l-0.4,0.4l-0.4,0.5l-0.6,0.5l-0.4,0.3l-0.5,0.4l-0.6,0.5l-0.6,0.3l-0.8,0.3l-0.6,0.3l-0.7,0.3l-0.8,0.3l-0.8,0.3l-0.7,0.3l-1,0.2l-0.7,0.3l-0.9,0.1l-0.9,0.2l-1,0.1l-0.9,0l-0.9,0.2l-1.1,0l-0.9,0.1l-0.9,0l0,-0.1l-0.9,0l-0.9,0l-1.1,-0.2l-0.9,0l-0.9,-0.1l-1,0l-0.9,-0.3l-0.9,-0.2l-0.7,-0.1l-1,-0.3l-0.7,-0.2L649.3,264l-0.8,-0.3l-0.7,-0.3l-0.6,-0.3l-0.8,-0.3l-0.6,-0.5L645.2,262l-0.5,-0.4l-0.6,-0.3l-0.4,-0.5l-0.4,-0.5l-0.4,-0.4l-0.3,-0.5L642.3,259l-0.2,-0.5L642,258l-0.2,-0.4l-0.1,-0.5l0,-0.4Z" class="g4_18" />
<path d="M641.7,256.7l0,-0.5l0.1,-0.5l0.2,-0.6l0.1,-0.4l0.2,-0.5l0.3,-0.4l0.3,-0.5l0.4,-0.5l0.4,-0.3l0.4,-0.4l0.5,-0.5l0.6,-0.3l0.6,-0.4l0.6,-0.3l0.6,-0.4l0.8,-0.4l0.7,-0.3l0.7,-0.3l0.9,-0.2l0.7,-0.3l1,-0.1l0.7,-0.3l0.9,-0.2l0.9,-0.1l1,-0.2l0.9,-0.1l0.9,0l1.1,-0.2l0.9,0l0.9,0l0.9,0l0.9,0l1.1,0.2l0.9,0l0.9,0.1l1,0.2l0.9,0.1l0.9,0.2l0.7,0.3l1,0.1l0.7,0.3l0.9,0.2l0.7,0.3l0.7,0.3l0.8,0.4l0.6,0.4l0.6,0.3l0.6,0.4l0.6,0.3l0.5,0.5l0.4,0.4l0.4,0.3l0.4,0.5l0.3,0.5l0.3,0.4l0.2,0.5l0.1,0.4l0.2,0.6l0.1,0.5l0,0.5l-0.1,0.4l0,0.5L678,258l-0.1,0.5l-0.2,0.5l-0.3,0.4l-0.3,0.5l-0.4,0.4l-0.4,0.5l-0.6,0.5l-0.4,0.3l-0.5,0.4l-0.6,0.5l-0.6,0.3l-0.8,0.3l-0.6,0.3l-0.7,0.3l-0.8,0.3l-0.8,0.3l-0.7,0.3l-1,0.2l-0.7,0.3l-0.9,0.1l-0.9,0.2l-1,0.1l-0.9,0l-0.9,0.2l-1.1,0l-0.9,0.1l-0.9,0l0,-0.1l-0.9,0l-0.9,0l-1.1,-0.2l-0.9,0l-0.9,-0.1l-1,0l-0.9,-0.3l-0.9,-0.2l-0.7,-0.1l-1,-0.3l-0.7,-0.2L649.3,264l-0.8,-0.3l-0.7,-0.3l-0.6,-0.3l-0.8,-0.3l-0.6,-0.5L645.2,262l-0.5,-0.4l-0.6,-0.3l-0.4,-0.5l-0.4,-0.5l-0.4,-0.4l-0.3,-0.5L642.3,259l-0.2,-0.5L642,258l-0.2,-0.4l-0.1,-0.5l0,-0.4Z" class="g5_18" />
<path d="M559.2,238.3l74.7,33.2" class="g5_18" />
<path fill-rule="evenodd" d="M641.7,275l-10.3,0.5l3.8,-8.3l6.5,7.8Z" class="g3_18" />
<path fill-rule="evenodd" d="M394.2,430.8l0,-0.4l0.1,-0.5l0.2,-0.4l0.1,-0.7l0.2,-0.4l0.3,-0.5l0.3,-0.4l0.4,-0.3l0.4,-0.5l0.4,-0.4l0.5,-0.5l0.6,-0.3l0.6,-0.5l0.6,-0.3l0.6,-0.3l0.8,-0.4l0.7,-0.3l0.7,-0.4l0.9,-0.1l0.7,-0.3l1,-0.2l0.7,-0.3l0.9,-0.1l0.9,-0.2l1,-0.1l0.9,0l0.9,-0.2l1.1,-0.1l0.9,0l0.9,0l0.9,0l0.9,0l1.1,0.1l0.9,0.2l0.9,0l1,0.1l0.9,0.2l0.9,0.1l0.7,0.3l1,0.2l0.7,0.3l0.9,0.1l0.7,0.4l0.7,0.3l0.8,0.4l0.6,0.3l0.6,0.3l0.6,0.5l0.6,0.3l0.5,0.5l0.4,0.4l0.4,0.5l0.4,0.3l0.3,0.4l0.3,0.5l0.2,0.4l0.1,0.7l0.2,0.4l0.1,0.5l0,0.4l-0.1,0.5l0,0.5l-0.2,0.4l-0.1,0.5l-0.2,0.4l-0.3,0.5l-0.3,0.4l-0.4,0.5l-0.4,0.5l-0.6,0.4l-0.4,0.5l-0.5,0.3l-0.6,0.4l-0.6,0.3l-0.8,0.3l-0.6,0.4l-0.7,0.3l-0.8,0.3l-0.8,0.3l-0.7,0.3l-1,0.1l-0.7,0.3l-0.9,0.2l-0.9,0.1l-1,0.2l-0.9,0l-0.9,0.1l-1.1,0l-0.9,0.2l-0.9,0l0,-0.2l-0.9,0l-0.9,0l-1.1,0l-0.9,-0.1l-0.9,-0.2l-1,0l-0.9,-0.3L405,439.1l-0.7,-0.2l-1,-0.3l-0.7,-0.1l-0.8,-0.3L401,437.9l-0.7,-0.3l-0.6,-0.4l-0.8,-0.3l-0.6,-0.4l-0.6,-0.3l-0.5,-0.5l-0.6,-0.3L396.2,435l-0.4,-0.5L395.4,434l-0.3,-0.4l-0.3,-0.5l-0.2,-0.4l-0.1,-0.5l-0.2,-0.4l-0.1,-0.5l0,-0.5Z" class="g4_18" />
<path d="M394.2,430.8l0,-0.4l0.1,-0.5l0.2,-0.4l0.1,-0.7l0.2,-0.4l0.3,-0.5l0.3,-0.4l0.4,-0.3l0.4,-0.5l0.4,-0.4l0.5,-0.5l0.6,-0.3l0.6,-0.5l0.6,-0.3l0.6,-0.3l0.8,-0.4l0.7,-0.3l0.7,-0.4l0.9,-0.1l0.7,-0.3l1,-0.2l0.7,-0.3l0.9,-0.1l0.9,-0.2l1,-0.1l0.9,0l0.9,-0.2l1.1,-0.1l0.9,0l0.9,0l0.9,0l0.9,0l1.1,0.1l0.9,0.2l0.9,0l1,0.1l0.9,0.2l0.9,0.1l0.7,0.3l1,0.2l0.7,0.3l0.9,0.1l0.7,0.4l0.7,0.3l0.8,0.4l0.6,0.3l0.6,0.3l0.6,0.5l0.6,0.3l0.5,0.5l0.4,0.4l0.4,0.5l0.4,0.3l0.3,0.4l0.3,0.5l0.2,0.4l0.1,0.7l0.2,0.4l0.1,0.5l0,0.4l-0.1,0.5l0,0.5l-0.2,0.4l-0.1,0.5l-0.2,0.4l-0.3,0.5l-0.3,0.4l-0.4,0.5l-0.4,0.5l-0.6,0.4l-0.4,0.5l-0.5,0.3l-0.6,0.4l-0.6,0.3l-0.8,0.3l-0.6,0.4l-0.7,0.3l-0.8,0.3l-0.8,0.3l-0.7,0.3l-1,0.1l-0.7,0.3l-0.9,0.2l-0.9,0.1l-1,0.2l-0.9,0l-0.9,0.1l-1.1,0l-0.9,0.2l-0.9,0l0,-0.2l-0.9,0l-0.9,0l-1.1,0l-0.9,-0.1l-0.9,-0.2l-1,0l-0.9,-0.3L405,439.1l-0.7,-0.2l-1,-0.3l-0.7,-0.1l-0.8,-0.3L401,437.9l-0.7,-0.3l-0.6,-0.4l-0.8,-0.3l-0.6,-0.4l-0.6,-0.3l-0.5,-0.5l-0.6,-0.3L396.2,435l-0.4,-0.5L395.4,434l-0.3,-0.4l-0.3,-0.5l-0.2,-0.4l-0.1,-0.5l-0.2,-0.4l-0.1,-0.5l0,-0.5Z" class="g5_18" />
<path fill-rule="evenodd" d="M394.2,421.7l0,-0.5l0.1,-0.5l0.2,-0.6l0.1,-0.4l0.2,-0.5l0.3,-0.4l0.3,-0.5l0.4,-0.5l0.4,-0.3l0.4,-0.4l0.5,-0.5l0.6,-0.3l0.6,-0.4l0.6,-0.3l0.6,-0.4l0.8,-0.4l0.7,-0.3l0.7,-0.3l0.9,-0.2l0.7,-0.3l1,-0.1l0.7,-0.3l0.9,-0.2l0.9,-0.1l1,-0.2l0.9,-0.1l0.9,0l1.1,-0.2l0.9,0l0.9,0l0.9,0l0.9,0l1.1,0.2l0.9,0l0.9,0.1l1,0.2l0.9,0.1l0.9,0.2l0.7,0.3l1,0.1l0.7,0.3l0.9,0.2l0.7,0.3l0.7,0.3l0.8,0.4l0.6,0.4l0.6,0.3l0.6,0.4l0.6,0.3l0.5,0.5l0.4,0.4l0.4,0.3l0.4,0.5l0.3,0.5l0.3,0.4l0.2,0.5l0.1,0.4l0.2,0.6l0.1,0.5l0,0.5l-0.1,0.4l0,0.5l-0.2,0.4l-0.1,0.5l-0.2,0.5l-0.3,0.4l-0.3,0.5l-0.4,0.4l-0.4,0.5l-0.6,0.5l-0.4,0.3l-0.5,0.4l-0.6,0.5l-0.6,0.3l-0.8,0.3l-0.6,0.3l-0.7,0.3l-0.8,0.3l-0.8,0.3l-0.7,0.3l-1,0.2l-0.7,0.3l-0.9,0.1l-0.9,0.2l-1,0.1l-0.9,0l-0.9,0.2l-1.1,0l-0.9,0.1l-0.9,0l0,-0.1l-0.9,0l-0.9,0l-1.1,-0.2l-0.9,0l-0.9,-0.1l-1,0l-0.9,-0.3L405,429.9l-0.7,-0.1l-1,-0.3l-0.7,-0.2L401.8,429L401,428.7l-0.7,-0.3l-0.6,-0.3l-0.8,-0.3l-0.6,-0.5L397.7,427l-0.5,-0.4l-0.6,-0.3l-0.4,-0.5l-0.4,-0.5l-0.4,-0.4l-0.3,-0.5L394.8,424l-0.2,-0.5L394.5,423l-0.2,-0.4l-0.1,-0.5l0,-0.4Z" class="g4_18" />
<path d="M394.2,421.7l0,-0.5l0.1,-0.5l0.2,-0.6l0.1,-0.4l0.2,-0.5l0.3,-0.4l0.3,-0.5l0.4,-0.5l0.4,-0.3l0.4,-0.4l0.5,-0.5l0.6,-0.3l0.6,-0.4l0.6,-0.3l0.6,-0.4l0.8,-0.4l0.7,-0.3l0.7,-0.3l0.9,-0.2l0.7,-0.3l1,-0.1l0.7,-0.3l0.9,-0.2l0.9,-0.1l1,-0.2l0.9,-0.1l0.9,0l1.1,-0.2l0.9,0l0.9,0l0.9,0l0.9,0l1.1,0.2l0.9,0l0.9,0.1l1,0.2l0.9,0.1l0.9,0.2l0.7,0.3l1,0.1l0.7,0.3l0.9,0.2l0.7,0.3l0.7,0.3l0.8,0.4l0.6,0.4l0.6,0.3l0.6,0.4l0.6,0.3l0.5,0.5l0.4,0.4l0.4,0.3l0.4,0.5l0.3,0.5l0.3,0.4l0.2,0.5l0.1,0.4l0.2,0.6l0.1,0.5l0,0.5l-0.1,0.4l0,0.5l-0.2,0.4l-0.1,0.5l-0.2,0.5l-0.3,0.4l-0.3,0.5l-0.4,0.4l-0.4,0.5l-0.6,0.5l-0.4,0.3l-0.5,0.4l-0.6,0.5l-0.6,0.3l-0.8,0.3l-0.6,0.3l-0.7,0.3l-0.8,0.3l-0.8,0.3l-0.7,0.3l-1,0.2l-0.7,0.3l-0.9,0.1l-0.9,0.2l-1,0.1l-0.9,0l-0.9,0.2l-1.1,0l-0.9,0.1l-0.9,0l0,-0.1l-0.9,0l-0.9,0l-1.1,-0.2l-0.9,0l-0.9,-0.1l-1,0l-0.9,-0.3L405,429.9l-0.7,-0.1l-1,-0.3l-0.7,-0.2L401.8,429L401,428.7l-0.7,-0.3l-0.6,-0.3l-0.8,-0.3l-0.6,-0.5L397.7,427l-0.5,-0.4l-0.6,-0.3l-0.4,-0.5l-0.4,-0.5l-0.4,-0.4l-0.3,-0.5L394.8,424l-0.2,-0.5L394.5,423l-0.2,-0.4l-0.1,-0.5l0,-0.4Z" class="g5_18" />
<path fill-rule="evenodd" d="M394.2,412.5l0,-0.5l0.1,-0.6l0.2,-0.4l0.1,-0.5l0.2,-0.4l0.3,-0.5l0.3,-0.5l0.4,-0.4l0.4,-0.3l0.4,-0.5l0.5,-0.4l0.6,-0.3l0.6,-0.5l0.6,-0.3l0.6,-0.5l0.8,-0.3l0.7,-0.3l0.7,-0.3l0.9,-0.1l0.7,-0.3l1,-0.3l0.7,-0.2l0.9,-0.2l0.9,-0.1l1,-0.2l0.9,-0.1l0.9,0l1.1,-0.2l0.9,0l0.9,0l0.9,0l0.9,0l1.1,0.2l0.9,0l0.9,0.1l1,0.2l0.9,0.1l0.9,0.2l0.7,0.2l1,0.3l0.7,0.3l0.9,0.1l0.7,0.3l0.7,0.3l0.8,0.3l0.6,0.5l0.6,0.3l0.6,0.5l0.6,0.3l0.5,0.4l0.4,0.5l0.4,0.3l0.4,0.4l0.3,0.5l0.3,0.5l0.2,0.4l0.1,0.5l0.2,0.4l0.1,0.6l0,0.5l-0.1,0.5l0,0.4l-0.2,0.5l-0.1,0.4l-0.2,0.5l-0.3,0.4l-0.3,0.5l-0.4,0.5l-0.4,0.4l-0.6,0.3l-0.4,0.5l-0.5,0.4l-0.6,0.4l-0.6,0.4l-0.8,0.3l-0.6,0.3l-0.7,0.3l-0.8,0.3l-0.8,0.3l-0.7,0.3l-1,0.2l-0.7,0.1l-0.9,0.4l-0.9,0.1l-1,0.2l-0.9,0l-0.9,0.1l-1.1,0l-0.9,0.2l-0.9,0l0,-0.2l-0.9,0l-0.9,0l-1.1,-0.1l-0.9,0l-0.9,-0.2l-1,-0.1l-0.9,-0.2L405,420.7l-0.7,-0.1l-1,-0.3l-0.7,-0.2l-0.8,-0.3L401,419.5l-0.7,-0.3l-0.6,-0.3l-0.8,-0.3l-0.6,-0.4l-0.6,-0.4l-0.5,-0.4l-0.6,-0.5l-0.4,-0.3l-0.4,-0.4l-0.4,-0.5l-0.3,-0.5l-0.3,-0.4l-0.2,-0.5l-0.1,-0.4l-0.2,-0.5L394.2,413l0,-0.5Z" class="g4_18" />
<path d="M394.2,412.5l0,-0.5l0.1,-0.6l0.2,-0.4l0.1,-0.5l0.2,-0.4l0.3,-0.5l0.3,-0.5l0.4,-0.4l0.4,-0.3l0.4,-0.5l0.5,-0.4l0.6,-0.3l0.6,-0.5l0.6,-0.3l0.6,-0.5l0.8,-0.3l0.7,-0.3l0.7,-0.3l0.9,-0.1l0.7,-0.3l1,-0.3l0.7,-0.2l0.9,-0.2l0.9,-0.1l1,-0.2l0.9,-0.1l0.9,0l1.1,-0.2l0.9,0l0.9,0l0.9,0l0.9,0l1.1,0.2l0.9,0l0.9,0.1l1,0.2l0.9,0.1l0.9,0.2l0.7,0.2l1,0.3l0.7,0.3l0.9,0.1l0.7,0.3l0.7,0.3l0.8,0.3l0.6,0.5l0.6,0.3l0.6,0.5l0.6,0.3l0.5,0.4l0.4,0.5l0.4,0.3l0.4,0.4l0.3,0.5l0.3,0.5l0.2,0.4l0.1,0.5l0.2,0.4l0.1,0.6l0,0.5l-0.1,0.5l0,0.4l-0.2,0.5l-0.1,0.4l-0.2,0.5l-0.3,0.4l-0.3,0.5l-0.4,0.5l-0.4,0.4l-0.6,0.3l-0.4,0.5l-0.5,0.4l-0.6,0.4l-0.6,0.4l-0.8,0.3l-0.6,0.3l-0.7,0.3l-0.8,0.3l-0.8,0.3l-0.7,0.3l-1,0.2l-0.7,0.1l-0.9,0.4l-0.9,0.1l-1,0.2l-0.9,0l-0.9,0.1l-1.1,0l-0.9,0.2l-0.9,0l0,-0.2l-0.9,0l-0.9,0l-1.1,-0.1l-0.9,0l-0.9,-0.2l-1,-0.1l-0.9,-0.2L405,420.7l-0.7,-0.1l-1,-0.3l-0.7,-0.2l-0.8,-0.3L401,419.5l-0.7,-0.3l-0.6,-0.3l-0.8,-0.3l-0.6,-0.4l-0.6,-0.4l-0.5,-0.4l-0.6,-0.5l-0.4,-0.3l-0.4,-0.4l-0.4,-0.5l-0.3,-0.5l-0.3,-0.4l-0.2,-0.5l-0.1,-0.4l-0.2,-0.5L394.2,413l0,-0.5Z" class="g5_18" />
<path fill-rule="evenodd" d="M440,430.8l0,-0.4l0.2,-0.5l0,-0.4l0.3,-0.7l0.1,-0.4l0.3,-0.5l0.3,-0.4l0.3,-0.3l0.5,-0.5l0.4,-0.4l0.5,-0.5l0.6,-0.3l0.6,-0.5l0.6,-0.3l0.6,-0.3l0.8,-0.4l0.8,-0.3l0.6,-0.4l0.9,-0.1l0.8,-0.3l0.7,-0.2l0.9,-0.3l1,-0.1l0.9,-0.2l0.9,-0.1l0.9,0l0.9,-0.2l0.9,-0.1l1.1,0l0.9,0l1,0l0.9,0l1,0.1l1,0.2l0.9,0l0.9,0.1l0.9,0.2l0.9,0.1l0.8,0.3l0.9,0.2l0.8,0.3l0.7,0.1l0.8,0.4l0.8,0.3l0.7,0.4l0.6,0.3l0.6,0.3l0.7,0.5l0.6,0.3l0.4,0.5l0.5,0.4l0.3,0.5l0.4,0.3l0.3,0.4l0.4,0.5l0.1,0.4l0.2,0.7l0.1,0.4l0.2,0.5l0,0.4l-0.2,0.5l0,0.5l-0.1,0.4l-0.2,0.5l-0.1,0.4l-0.4,0.5l-0.3,0.4l-0.4,0.5l-0.5,0.5l-0.4,0.4l-0.5,0.5l-0.4,0.3l-0.7,0.4l-0.6,0.3l-0.7,0.3l-0.6,0.4l-0.8,0.3l-0.8,0.3l-0.7,0.3l-0.8,0.3l-0.9,0.1l-0.8,0.3l-0.9,0.2l-0.9,0.1l-0.9,0.2l-0.9,0l-1,0.1l-1,0l-0.9,0.2l-1,0l0,-0.2l-0.9,0l-1.1,0l-0.9,0l-0.9,-0.1l-0.9,-0.2l-0.9,0l-0.9,-0.3l-1,-0.1l-0.9,-0.2l-0.7,-0.3l-0.8,-0.1l-0.8,-0.3l-0.7,-0.3l-0.8,-0.3l-0.8,-0.4l-0.6,-0.3l-0.6,-0.4l-0.6,-0.3l-0.4,-0.5l-0.7,-0.3L442,435l-0.5,-0.5L441.2,434l-0.3,-0.4l-0.3,-0.5l-0.1,-0.4l-0.3,-0.5l0,-0.4L440,431.3l0,-0.5Z" class="g4_18" />
<path d="M440,430.8l0,-0.4l0.2,-0.5l0,-0.4l0.3,-0.7l0.1,-0.4l0.3,-0.5l0.3,-0.4l0.3,-0.3l0.5,-0.5l0.4,-0.4l0.5,-0.5l0.6,-0.3l0.6,-0.5l0.6,-0.3l0.6,-0.3l0.8,-0.4l0.8,-0.3l0.6,-0.4l0.9,-0.1l0.8,-0.3l0.7,-0.2l0.9,-0.3l1,-0.1l0.9,-0.2l0.9,-0.1l0.9,0l0.9,-0.2l0.9,-0.1l1.1,0l0.9,0l1,0l0.9,0l1,0.1l1,0.2l0.9,0l0.9,0.1l0.9,0.2l0.9,0.1l0.8,0.3l0.9,0.2l0.8,0.3l0.7,0.1l0.8,0.4l0.8,0.3l0.7,0.4l0.6,0.3l0.6,0.3l0.7,0.5l0.6,0.3l0.4,0.5l0.5,0.4l0.3,0.5l0.4,0.3l0.3,0.4l0.4,0.5l0.1,0.4l0.2,0.7l0.1,0.4l0.2,0.5l0,0.4l-0.2,0.5l0,0.5l-0.1,0.4l-0.2,0.5l-0.1,0.4l-0.4,0.5l-0.3,0.4l-0.4,0.5l-0.5,0.5l-0.4,0.4l-0.5,0.5l-0.4,0.3l-0.7,0.4l-0.6,0.3l-0.7,0.3l-0.6,0.4l-0.8,0.3l-0.8,0.3l-0.7,0.3l-0.8,0.3l-0.9,0.1l-0.8,0.3l-0.9,0.2l-0.9,0.1l-0.9,0.2l-0.9,0l-1,0.1l-1,0l-0.9,0.2l-1,0l0,-0.2l-0.9,0l-1.1,0l-0.9,0l-0.9,-0.1l-0.9,-0.2l-0.9,0l-0.9,-0.3l-1,-0.1l-0.9,-0.2l-0.7,-0.3l-0.8,-0.1l-0.8,-0.3l-0.7,-0.3l-0.8,-0.3l-0.8,-0.4l-0.6,-0.3l-0.6,-0.4l-0.6,-0.3l-0.4,-0.5l-0.7,-0.3L442,435l-0.5,-0.5L441.2,434l-0.3,-0.4l-0.3,-0.5l-0.1,-0.4l-0.3,-0.5l0,-0.4L440,431.3l0,-0.5Z" class="g5_18" />
<path fill-rule="evenodd" d="M440,421.7l0,-0.5l0.2,-0.5l0,-0.6l0.3,-0.4l0.1,-0.5l0.3,-0.4l0.3,-0.5l0.3,-0.5l0.5,-0.3l0.4,-0.4l0.5,-0.5l0.6,-0.3l0.6,-0.4l0.6,-0.3l0.6,-0.4l0.8,-0.4l0.8,-0.3l0.6,-0.3l0.9,-0.2l0.8,-0.3l0.7,-0.1l0.9,-0.3l1,-0.2l0.9,-0.1l0.9,-0.2l0.9,-0.1l0.9,0l0.9,-0.2l1.1,0l0.9,0l1,0l0.9,0l1,0.2l1,0l0.9,0.1L464,413l0.9,0.1l0.9,0.2l0.8,0.3l0.9,0.1l0.8,0.3l0.7,0.2l0.8,0.3l0.8,0.3l0.7,0.4l0.6,0.4l0.6,0.3l0.7,0.4l0.6,0.3l0.4,0.5l0.5,0.4l0.3,0.3l0.4,0.5l0.3,0.5l0.4,0.4l0.1,0.5l0.2,0.4l0.1,0.6l0.2,0.5l0,0.5l-0.2,0.4l0,0.5l-0.1,0.4l-0.2,0.5l-0.1,0.5l-0.4,0.4l-0.3,0.5l-0.4,0.4l-0.5,0.5l-0.4,0.5l-0.5,0.3l-0.4,0.4l-0.7,0.5l-0.6,0.3l-0.7,0.3l-0.6,0.3l-0.8,0.3L469,429l-0.7,0.3l-0.8,0.3l-0.9,0.2l-0.8,0.3l-0.9,0.1l-0.9,0.2l-0.9,0.1l-0.9,0l-1,0.2l-1,0l-0.9,0.1l-1,0l0,-0.1l-0.9,0l-1.1,0l-0.9,-0.2l-0.9,0l-0.9,-0.1l-0.9,0l-0.9,-0.3l-1,-0.2l-0.9,-0.1l-0.7,-0.3l-0.8,-0.2L447.6,429l-0.7,-0.3l-0.8,-0.3l-0.8,-0.3l-0.6,-0.3l-0.6,-0.5L443.5,427l-0.4,-0.4l-0.7,-0.3L442,425.8l-0.5,-0.5l-0.3,-0.4l-0.3,-0.5L440.6,424l-0.1,-0.5L440.2,423l0,-0.4L440,422.1l0,-0.4Z" class="g4_18" />
<path d="M440,421.7l0,-0.5l0.2,-0.5l0,-0.6l0.3,-0.4l0.1,-0.5l0.3,-0.4l0.3,-0.5l0.3,-0.5l0.5,-0.3l0.4,-0.4l0.5,-0.5l0.6,-0.3l0.6,-0.4l0.6,-0.3l0.6,-0.4l0.8,-0.4l0.8,-0.3l0.6,-0.3l0.9,-0.2l0.8,-0.3l0.7,-0.1l0.9,-0.3l1,-0.2l0.9,-0.1l0.9,-0.2l0.9,-0.1l0.9,0l0.9,-0.2l1.1,0l0.9,0l1,0l0.9,0l1,0.2l1,0l0.9,0.1L464,413l0.9,0.1l0.9,0.2l0.8,0.3l0.9,0.1l0.8,0.3l0.7,0.2l0.8,0.3l0.8,0.3l0.7,0.4l0.6,0.4l0.6,0.3l0.7,0.4l0.6,0.3l0.4,0.5l0.5,0.4l0.3,0.3l0.4,0.5l0.3,0.5l0.4,0.4l0.1,0.5l0.2,0.4l0.1,0.6l0.2,0.5l0,0.5l-0.2,0.4l0,0.5l-0.1,0.4l-0.2,0.5l-0.1,0.5l-0.4,0.4l-0.3,0.5l-0.4,0.4l-0.5,0.5l-0.4,0.5l-0.5,0.3l-0.4,0.4l-0.7,0.5l-0.6,0.3l-0.7,0.3l-0.6,0.3l-0.8,0.3L469,429l-0.7,0.3l-0.8,0.3l-0.9,0.2l-0.8,0.3l-0.9,0.1l-0.9,0.2l-0.9,0.1l-0.9,0l-1,0.2l-1,0l-0.9,0.1l-1,0l0,-0.1l-0.9,0l-1.1,0l-0.9,-0.2l-0.9,0l-0.9,-0.1l-0.9,0l-0.9,-0.3l-1,-0.2l-0.9,-0.1l-0.7,-0.3l-0.8,-0.2L447.6,429l-0.7,-0.3l-0.8,-0.3l-0.8,-0.3l-0.6,-0.3l-0.6,-0.5L443.5,427l-0.4,-0.4l-0.7,-0.3L442,425.8l-0.5,-0.5l-0.3,-0.4l-0.3,-0.5L440.6,424l-0.1,-0.5L440.2,423l0,-0.4L440,422.1l0,-0.4Z" class="g5_18" />
<path fill-rule="evenodd" d="M440,412.5l0,-0.5l0.2,-0.6l0,-0.4l0.3,-0.5l0.1,-0.4l0.3,-0.5l0.3,-0.5l0.3,-0.4l0.5,-0.3l0.4,-0.5l0.5,-0.4l0.6,-0.3l0.6,-0.5l0.6,-0.3l0.6,-0.5l0.8,-0.3l0.8,-0.3l0.6,-0.3l0.9,-0.1l0.8,-0.3l0.7,-0.3l0.9,-0.2l1,-0.2l0.9,-0.1l0.9,-0.2l0.9,-0.1l0.9,0l0.9,-0.2l1.1,0l0.9,0l1,0l0.9,0l1,0.2l1,0l0.9,0.1l0.9,0.2l0.9,0.1l0.9,0.2l0.8,0.2l0.9,0.3l0.8,0.3L469,405l0.8,0.3l0.8,0.3l0.7,0.3l0.6,0.5l0.6,0.3l0.7,0.5l0.6,0.3l0.4,0.4l0.5,0.5l0.3,0.3l0.4,0.4l0.3,0.5l0.4,0.5l0.1,0.4l0.2,0.5l0.1,0.4l0.2,0.6l0,0.5l-0.2,0.5l0,0.4l-0.1,0.5l-0.2,0.4l-0.1,0.5l-0.4,0.4l-0.3,0.5l-0.4,0.5l-0.5,0.4l-0.4,0.3l-0.5,0.5l-0.4,0.4l-0.7,0.4l-0.6,0.4l-0.7,0.3l-0.6,0.3l-0.8,0.3l-0.8,0.3l-0.7,0.3l-0.8,0.3l-0.9,0.2l-0.8,0.1l-0.9,0.4l-0.9,0.1l-0.9,0.2l-0.9,0l-1,0.1l-1,0l-0.9,0.2l-1,0l0,-0.2l-0.9,0l-1.1,0l-0.9,-0.1l-0.9,0l-0.9,-0.2l-0.9,-0.1l-0.9,-0.2l-1,-0.2l-0.9,-0.1l-0.7,-0.3l-0.8,-0.2l-0.8,-0.3l-0.7,-0.3l-0.8,-0.3l-0.8,-0.3l-0.6,-0.3l-0.6,-0.4l-0.6,-0.4l-0.4,-0.4l-0.7,-0.5L442,416.6l-0.5,-0.4l-0.3,-0.5l-0.3,-0.5l-0.3,-0.4l-0.1,-0.5l-0.3,-0.4l0,-0.5L440,413l0,-0.5Z" class="g4_18" />
<path d="M440,412.5l0,-0.5l0.2,-0.6l0,-0.4l0.3,-0.5l0.1,-0.4l0.3,-0.5l0.3,-0.5l0.3,-0.4l0.5,-0.3l0.4,-0.5l0.5,-0.4l0.6,-0.3l0.6,-0.5l0.6,-0.3l0.6,-0.5l0.8,-0.3l0.8,-0.3l0.6,-0.3l0.9,-0.1l0.8,-0.3l0.7,-0.3l0.9,-0.2l1,-0.2l0.9,-0.1l0.9,-0.2l0.9,-0.1l0.9,0l0.9,-0.2l1.1,0l0.9,0l1,0l0.9,0l1,0.2l1,0l0.9,0.1l0.9,0.2l0.9,0.1l0.9,0.2l0.8,0.2l0.9,0.3l0.8,0.3L469,405l0.8,0.3l0.8,0.3l0.7,0.3l0.6,0.5l0.6,0.3l0.7,0.5l0.6,0.3l0.4,0.4l0.5,0.5l0.3,0.3l0.4,0.4l0.3,0.5l0.4,0.5l0.1,0.4l0.2,0.5l0.1,0.4l0.2,0.6l0,0.5l-0.2,0.5l0,0.4l-0.1,0.5l-0.2,0.4l-0.1,0.5l-0.4,0.4l-0.3,0.5l-0.4,0.5l-0.5,0.4l-0.4,0.3l-0.5,0.5l-0.4,0.4l-0.7,0.4l-0.6,0.4l-0.7,0.3l-0.6,0.3l-0.8,0.3l-0.8,0.3l-0.7,0.3l-0.8,0.3l-0.9,0.2l-0.8,0.1l-0.9,0.4l-0.9,0.1l-0.9,0.2l-0.9,0l-1,0.1l-1,0l-0.9,0.2l-1,0l0,-0.2l-0.9,0l-1.1,0l-0.9,-0.1l-0.9,0l-0.9,-0.2l-0.9,-0.1l-0.9,-0.2l-1,-0.2l-0.9,-0.1l-0.7,-0.3l-0.8,-0.2l-0.8,-0.3l-0.7,-0.3l-0.8,-0.3l-0.8,-0.3l-0.6,-0.3l-0.6,-0.4l-0.6,-0.4l-0.4,-0.4l-0.7,-0.5L442,416.6l-0.5,-0.4l-0.3,-0.5l-0.3,-0.5l-0.3,-0.4l-0.1,-0.5l-0.3,-0.4l0,-0.5L440,413l0,-0.5Z" class="g5_18" />
<path fill-rule="evenodd" d="M412.5,440l0,-0.5l0.2,-0.6l0,-0.4L413,438l0.1,-0.4l0.3,-0.5l0.3,-0.5l0.3,-0.4l0.5,-0.3l0.4,-0.5l0.5,-0.4l0.6,-0.3l0.6,-0.5l0.6,-0.3l0.6,-0.5l0.8,-0.3l0.8,-0.3l0.6,-0.3l0.9,-0.1l0.8,-0.3l0.7,-0.3l0.9,-0.2l1,-0.2l0.9,-0.1l0.9,-0.2L427,431l0.9,0l0.9,-0.2l1.1,0l0.9,0l1,0l0.9,0l1,0.2l1,0l0.9,0.1l0.9,0.2l0.9,0.1l0.9,0.2l0.8,0.2l0.9,0.3l0.8,0.3l0.7,0.1l0.8,0.3l0.8,0.3l0.7,0.3l0.6,0.5l0.6,0.3l0.7,0.5l0.6,0.3l0.4,0.4l0.5,0.5l0.3,0.3l0.4,0.4l0.3,0.5l0.4,0.5l0.1,0.4l0.2,0.5l0.1,0.4l0.2,0.6l0,0.5l-0.2,0.5l0,0.4l-0.1,0.5l-0.2,0.4l-0.1,0.5l-0.4,0.5l-0.3,0.4l-0.4,0.5l-0.5,0.4l-0.4,0.3l-0.5,0.5l-0.4,0.4l-0.7,0.4l-0.6,0.4l-0.7,0.3l-0.6,0.3l-0.8,0.3l-0.8,0.3l-0.7,0.3l-0.8,0.3l-0.9,0.2l-0.8,0.1l-0.9,0.4l-0.9,0.1l-0.9,0.2l-0.9,0l-1,0.1l-1,0l-0.9,0.2l-1,0l0,-0.2l-0.9,0l-1.1,0l-0.9,-0.1l-0.9,0l-0.9,-0.2l-0.9,-0.1l-0.9,-0.2l-1,-0.2l-0.9,-0.1l-0.7,-0.3l-0.8,-0.2l-0.8,-0.3L419.4,447l-0.8,-0.3l-0.8,-0.3l-0.6,-0.3l-0.6,-0.4L416,445.3l-0.4,-0.4l-0.7,-0.5l-0.4,-0.3L414,443.7l-0.3,-0.5l-0.3,-0.4l-0.3,-0.5L413,441.8l-0.3,-0.4l0,-0.5l-0.2,-0.4l0,-0.5Z" class="g4_18" />
<path d="M412.5,440l0,-0.5l0.2,-0.6l0,-0.4L413,438l0.1,-0.4l0.3,-0.5l0.3,-0.5l0.3,-0.4l0.5,-0.3l0.4,-0.5l0.5,-0.4l0.6,-0.3l0.6,-0.5l0.6,-0.3l0.6,-0.5l0.8,-0.3l0.8,-0.3l0.6,-0.3l0.9,-0.1l0.8,-0.3l0.7,-0.3l0.9,-0.2l1,-0.2l0.9,-0.1l0.9,-0.2L427,431l0.9,0l0.9,-0.2l1.1,0l0.9,0l1,0l0.9,0l1,0.2l1,0l0.9,0.1l0.9,0.2l0.9,0.1l0.9,0.2l0.8,0.2l0.9,0.3l0.8,0.3l0.7,0.1l0.8,0.3l0.8,0.3l0.7,0.3l0.6,0.5l0.6,0.3l0.7,0.5l0.6,0.3l0.4,0.4l0.5,0.5l0.3,0.3l0.4,0.4l0.3,0.5l0.4,0.5l0.1,0.4l0.2,0.5l0.1,0.4l0.2,0.6l0,0.5l-0.2,0.5l0,0.4l-0.1,0.5l-0.2,0.4l-0.1,0.5l-0.4,0.5l-0.3,0.4l-0.4,0.5l-0.5,0.4l-0.4,0.3l-0.5,0.5l-0.4,0.4l-0.7,0.4l-0.6,0.4l-0.7,0.3l-0.6,0.3l-0.8,0.3l-0.8,0.3l-0.7,0.3l-0.8,0.3l-0.9,0.2l-0.8,0.1l-0.9,0.4l-0.9,0.1l-0.9,0.2l-0.9,0l-1,0.1l-1,0l-0.9,0.2l-1,0l0,-0.2l-0.9,0l-1.1,0l-0.9,-0.1l-0.9,0l-0.9,-0.2l-0.9,-0.1l-0.9,-0.2l-1,-0.2l-0.9,-0.1l-0.7,-0.3l-0.8,-0.2l-0.8,-0.3L419.4,447l-0.8,-0.3l-0.8,-0.3l-0.6,-0.3l-0.6,-0.4L416,445.3l-0.4,-0.4l-0.7,-0.5l-0.4,-0.3L414,443.7l-0.3,-0.5l-0.3,-0.4l-0.3,-0.5L413,441.8l-0.3,-0.4l0,-0.5l-0.2,-0.4l0,-0.5Z" class="g5_18" />
<path fill-rule="evenodd" d="M412.5,430.8l0,-0.4l0.2,-0.5l0,-0.4l0.3,-0.7l0.1,-0.4l0.3,-0.5l0.3,-0.4l0.3,-0.3l0.5,-0.5l0.4,-0.4l0.5,-0.5l0.6,-0.3l0.6,-0.5l0.6,-0.3l0.6,-0.3l0.8,-0.4l0.8,-0.3l0.6,-0.4l0.9,-0.1l0.8,-0.3l0.7,-0.2l0.9,-0.3l1,-0.1l0.9,-0.2l0.9,-0.1l0.9,0l0.9,-0.2l0.9,-0.1l1.1,0l0.9,0l1,0l0.9,0l1,0.1l1,0.2l0.9,0l0.9,0.1l0.9,0.2l0.9,0.1l0.8,0.3l0.9,0.2l0.8,0.3l0.7,0.1l0.8,0.4l0.8,0.3l0.7,0.4l0.6,0.3L445,425l0.7,0.5l0.6,0.3l0.4,0.5l0.5,0.4l0.3,0.5l0.4,0.3l0.3,0.4l0.4,0.5l0.1,0.4l0.2,0.7l0.1,0.4l0.2,0.5l0,0.4l-0.2,0.5l0,0.5l-0.1,0.4l-0.2,0.5l-0.1,0.4l-0.4,0.5l-0.3,0.4l-0.4,0.5L447,435l-0.4,0.4l-0.5,0.5l-0.4,0.3l-0.7,0.4l-0.6,0.3l-0.7,0.3l-0.6,0.4l-0.8,0.3l-0.8,0.3l-0.7,0.3l-0.8,0.3l-0.9,0.1l-0.8,0.3l-0.9,0.2l-0.9,0.1l-0.9,0.2l-0.9,0l-1,0.1l-1,0l-0.9,0.2l-1,0l0,-0.2l-0.9,0l-1.1,0l-0.9,0L427,439.7l-0.9,-0.2l-0.9,0l-0.9,-0.3l-1,-0.1l-0.9,-0.2l-0.7,-0.3l-0.8,-0.1l-0.8,-0.3l-0.7,-0.3l-0.8,-0.3l-0.8,-0.4l-0.6,-0.3l-0.6,-0.4L416,436.2l-0.4,-0.5l-0.7,-0.3L414.5,435L414,434.5L413.7,434l-0.3,-0.4l-0.3,-0.5L413,432.7l-0.3,-0.5l0,-0.4l-0.2,-0.5l0,-0.5Z" class="g4_18" />
<path d="M412.5,430.8l0,-0.4l0.2,-0.5l0,-0.4l0.3,-0.7l0.1,-0.4l0.3,-0.5l0.3,-0.4l0.3,-0.3l0.5,-0.5l0.4,-0.4l0.5,-0.5l0.6,-0.3l0.6,-0.5l0.6,-0.3l0.6,-0.3l0.8,-0.4l0.8,-0.3l0.6,-0.4l0.9,-0.1l0.8,-0.3l0.7,-0.2l0.9,-0.3l1,-0.1l0.9,-0.2l0.9,-0.1l0.9,0l0.9,-0.2l0.9,-0.1l1.1,0l0.9,0l1,0l0.9,0l1,0.1l1,0.2l0.9,0l0.9,0.1l0.9,0.2l0.9,0.1l0.8,0.3l0.9,0.2l0.8,0.3l0.7,0.1l0.8,0.4l0.8,0.3l0.7,0.4l0.6,0.3L445,425l0.7,0.5l0.6,0.3l0.4,0.5l0.5,0.4l0.3,0.5l0.4,0.3l0.3,0.4l0.4,0.5l0.1,0.4l0.2,0.7l0.1,0.4l0.2,0.5l0,0.4l-0.2,0.5l0,0.5l-0.1,0.4l-0.2,0.5l-0.1,0.4l-0.4,0.5l-0.3,0.4l-0.4,0.5L447,435l-0.4,0.4l-0.5,0.5l-0.4,0.3l-0.7,0.4l-0.6,0.3l-0.7,0.3l-0.6,0.4l-0.8,0.3l-0.8,0.3l-0.7,0.3l-0.8,0.3l-0.9,0.1l-0.8,0.3l-0.9,0.2l-0.9,0.1l-0.9,0.2l-0.9,0l-1,0.1l-1,0l-0.9,0.2l-1,0l0,-0.2l-0.9,0l-1.1,0l-0.9,0L427,439.7l-0.9,-0.2l-0.9,0l-0.9,-0.3l-1,-0.1l-0.9,-0.2l-0.7,-0.3l-0.8,-0.1l-0.8,-0.3l-0.7,-0.3l-0.8,-0.3l-0.8,-0.4l-0.6,-0.3l-0.6,-0.4L416,436.2l-0.4,-0.5l-0.7,-0.3L414.5,435L414,434.5L413.7,434l-0.3,-0.4l-0.3,-0.5L413,432.7l-0.3,-0.5l0,-0.4l-0.2,-0.5l0,-0.5Z" class="g5_18" />
<path fill-rule="evenodd" d="M412.5,421.7l0,-0.5l0.2,-0.5l0,-0.6l0.3,-0.4l0.1,-0.5l0.3,-0.4l0.3,-0.5l0.3,-0.5l0.5,-0.3l0.4,-0.4l0.5,-0.5l0.6,-0.3l0.6,-0.4l0.6,-0.3l0.6,-0.4l0.8,-0.4l0.8,-0.3l0.6,-0.3l0.9,-0.2l0.8,-0.3l0.7,-0.1l0.9,-0.3l1,-0.2l0.9,-0.1l0.9,-0.2l0.9,-0.1l0.9,0l0.9,-0.2l1.1,0l0.9,0l1,0l0.9,0l1,0.2l1,0l0.9,0.1l0.9,0.2l0.9,0.1l0.9,0.2l0.8,0.3l0.9,0.1l0.8,0.3l0.7,0.2l0.8,0.3l0.8,0.3l0.7,0.4l0.6,0.4l0.6,0.3l0.7,0.4l0.6,0.3l0.4,0.5l0.5,0.4l0.3,0.3l0.4,0.5l0.3,0.5l0.4,0.4l0.1,0.5l0.2,0.4l0.1,0.6l0.2,0.5l0,0.5l-0.2,0.4l0,0.5l-0.1,0.4l-0.2,0.5l-0.1,0.5l-0.4,0.4l-0.3,0.5l-0.4,0.4l-0.5,0.5l-0.4,0.5l-0.5,0.3l-0.4,0.4l-0.7,0.5l-0.6,0.3l-0.7,0.3l-0.6,0.3l-0.8,0.3l-0.8,0.3l-0.7,0.3l-0.8,0.3l-0.9,0.2l-0.8,0.3l-0.9,0.1l-0.9,0.2l-0.9,0.1l-0.9,0l-1,0.2l-1,0l-0.9,0.1l-1,0l0,-0.1l-0.9,0l-1.1,0l-0.9,-0.2l-0.9,0l-0.9,-0.1l-0.9,0l-0.9,-0.3l-1,-0.2l-0.9,-0.1l-0.7,-0.3l-0.8,-0.2L420.1,429l-0.7,-0.3l-0.8,-0.3l-0.8,-0.3l-0.6,-0.3l-0.6,-0.5L416,427l-0.4,-0.4l-0.7,-0.3l-0.4,-0.5L414,425.3l-0.3,-0.4l-0.3,-0.5L413.1,424L413,423.5L412.7,423l0,-0.4l-0.2,-0.5l0,-0.4Z" class="g4_18" />
<path d="M412.5,421.7l0,-0.5l0.2,-0.5l0,-0.6l0.3,-0.4l0.1,-0.5l0.3,-0.4l0.3,-0.5l0.3,-0.5l0.5,-0.3l0.4,-0.4l0.5,-0.5l0.6,-0.3l0.6,-0.4l0.6,-0.3l0.6,-0.4l0.8,-0.4l0.8,-0.3l0.6,-0.3l0.9,-0.2l0.8,-0.3l0.7,-0.1l0.9,-0.3l1,-0.2l0.9,-0.1l0.9,-0.2l0.9,-0.1l0.9,0l0.9,-0.2l1.1,0l0.9,0l1,0l0.9,0l1,0.2l1,0l0.9,0.1l0.9,0.2l0.9,0.1l0.9,0.2l0.8,0.3l0.9,0.1l0.8,0.3l0.7,0.2l0.8,0.3l0.8,0.3l0.7,0.4l0.6,0.4l0.6,0.3l0.7,0.4l0.6,0.3l0.4,0.5l0.5,0.4l0.3,0.3l0.4,0.5l0.3,0.5l0.4,0.4l0.1,0.5l0.2,0.4l0.1,0.6l0.2,0.5l0,0.5l-0.2,0.4l0,0.5l-0.1,0.4l-0.2,0.5l-0.1,0.5l-0.4,0.4l-0.3,0.5l-0.4,0.4l-0.5,0.5l-0.4,0.5l-0.5,0.3l-0.4,0.4l-0.7,0.5l-0.6,0.3l-0.7,0.3l-0.6,0.3l-0.8,0.3l-0.8,0.3l-0.7,0.3l-0.8,0.3l-0.9,0.2l-0.8,0.3l-0.9,0.1l-0.9,0.2l-0.9,0.1l-0.9,0l-1,0.2l-1,0l-0.9,0.1l-1,0l0,-0.1l-0.9,0l-1.1,0l-0.9,-0.2l-0.9,0l-0.9,-0.1l-0.9,0l-0.9,-0.3l-1,-0.2l-0.9,-0.1l-0.7,-0.3l-0.8,-0.2L420.1,429l-0.7,-0.3l-0.8,-0.3l-0.8,-0.3l-0.6,-0.3l-0.6,-0.5L416,427l-0.4,-0.4l-0.7,-0.3l-0.4,-0.5L414,425.3l-0.3,-0.4l-0.3,-0.5L413.1,424L413,423.5L412.7,423l0,-0.4l-0.2,-0.5l0,-0.4Z" class="g5_18" />
<path d="M238.3,284.2L378.1,389" class="g5_18" />
<path fill-rule="evenodd" d="M385,394.2l-9.9,-1.9l5.3,-7.3l4.6,9.2Z" class="g3_18" />
<path d="M238.3,284.2l119.8,0" class="g5_18" />
<path fill-rule="evenodd" d="M366.7,284.2l-9.2,4.6l0,-9.2l9.2,4.6Z" class="g3_18" />
<path fill-rule="evenodd" d="M385,293.3l0,-0.4l0.2,-0.5l0,-0.4l0.3,-0.7l0.1,-0.4l0.3,-0.5l0.3,-0.4l0.3,-0.3l0.5,-0.5l0.4,-0.4l0.5,-0.5l0.6,-0.3l0.6,-0.5l0.6,-0.3l0.6,-0.3l0.8,-0.4l0.8,-0.3l0.6,-0.4l0.9,-0.1l0.8,-0.3l0.7,-0.2l0.9,-0.3l1,-0.1l0.9,-0.2l0.9,-0.1l0.9,0l0.9,-0.2l0.9,-0.1l1.1,0l0.9,0l1,0l0.9,0l1,0.1l1,0.2l0.9,0l0.9,0.1l0.9,0.2l0.9,0.1l0.8,0.3l0.9,0.2l0.8,0.3l0.7,0.1l0.8,0.4l0.8,0.3l0.7,0.4l0.6,0.3l0.6,0.3l0.7,0.5l0.6,0.3l0.4,0.5l0.5,0.4l0.3,0.5l0.4,0.3l0.3,0.4l0.4,0.5l0.1,0.4l0.2,0.7l0.1,0.4l0.2,0.5l0,0.4l-0.2,0.5l0,0.5l-0.1,0.4l-0.2,0.5l-0.1,0.4l-0.4,0.5l-0.3,0.4L420,297l-0.5,0.5l-0.4,0.4l-0.5,0.5l-0.4,0.3l-0.7,0.4l-0.6,0.3l-0.7,0.4l-0.6,0.3l-0.8,0.3l-0.8,0.3l-0.7,0.3l-0.8,0.3l-0.9,0.1l-0.8,0.3l-0.9,0.2L409,302l-0.9,0.2l-0.9,0l-1,0.1l-1,0l-0.9,0.2l-1,0l0,-0.2l-0.9,0l-1.1,0l-0.9,0l-0.9,-0.1L398.6,302l-0.9,0l-0.9,-0.3l-1,-0.1l-0.9,-0.2l-0.7,-0.3L393.4,301l-0.8,-0.3l-0.7,-0.3l-0.8,-0.3l-0.8,-0.3l-0.6,-0.4L389.1,299l-0.6,-0.3l-0.4,-0.5l-0.7,-0.3L387,297.5L386.5,297l-0.3,-0.5l-0.3,-0.4l-0.3,-0.5l-0.1,-0.4l-0.3,-0.5l0,-0.4L385,293.8l0,-0.5Z" class="g4_18" />
<path d="M385,293.3l0,-0.4l0.2,-0.5l0,-0.4l0.3,-0.7l0.1,-0.4l0.3,-0.5l0.3,-0.4l0.3,-0.3l0.5,-0.5l0.4,-0.4l0.5,-0.5l0.6,-0.3l0.6,-0.5l0.6,-0.3l0.6,-0.3l0.8,-0.4l0.8,-0.3l0.6,-0.4l0.9,-0.1l0.8,-0.3l0.7,-0.2l0.9,-0.3l1,-0.1l0.9,-0.2l0.9,-0.1l0.9,0l0.9,-0.2l0.9,-0.1l1.1,0l0.9,0l1,0l0.9,0l1,0.1l1,0.2l0.9,0l0.9,0.1l0.9,0.2l0.9,0.1l0.8,0.3l0.9,0.2l0.8,0.3l0.7,0.1l0.8,0.4l0.8,0.3l0.7,0.4l0.6,0.3l0.6,0.3l0.7,0.5l0.6,0.3l0.4,0.5l0.5,0.4l0.3,0.5l0.4,0.3l0.3,0.4l0.4,0.5l0.1,0.4l0.2,0.7l0.1,0.4l0.2,0.5l0,0.4l-0.2,0.5l0,0.5l-0.1,0.4l-0.2,0.5l-0.1,0.4l-0.4,0.5l-0.3,0.4L420,297l-0.5,0.5l-0.4,0.4l-0.5,0.5l-0.4,0.3l-0.7,0.4l-0.6,0.3l-0.7,0.4l-0.6,0.3l-0.8,0.3l-0.8,0.3l-0.7,0.3l-0.8,0.3l-0.9,0.1l-0.8,0.3l-0.9,0.2L409,302l-0.9,0.2l-0.9,0l-1,0.1l-1,0l-0.9,0.2l-1,0l0,-0.2l-0.9,0l-1.1,0l-0.9,0l-0.9,-0.1L398.6,302l-0.9,0l-0.9,-0.3l-1,-0.1l-0.9,-0.2l-0.7,-0.3L393.4,301l-0.8,-0.3l-0.7,-0.3l-0.8,-0.3l-0.8,-0.3l-0.6,-0.4L389.1,299l-0.6,-0.3l-0.4,-0.5l-0.7,-0.3L387,297.5L386.5,297l-0.3,-0.5l-0.3,-0.4l-0.3,-0.5l-0.1,-0.4l-0.3,-0.5l0,-0.4L385,293.8l0,-0.5Z" class="g5_18" />
<path fill-rule="evenodd" d="M385,284.2l0,-0.5l0.2,-0.5l0,-0.6l0.3,-0.4l0.1,-0.5l0.3,-0.4l0.3,-0.5l0.3,-0.5L387,280l0.4,-0.4l0.5,-0.5l0.6,-0.3l0.6,-0.4l0.6,-0.3l0.6,-0.4l0.8,-0.4l0.8,-0.3l0.6,-0.3l0.9,-0.2l0.8,-0.3l0.7,-0.1l0.9,-0.3l1,-0.2l0.9,-0.1l0.9,-0.2l0.9,-0.1l0.9,0l0.9,-0.2l1.1,0l0.9,0l1,0l0.9,0l1,0.2l1,0l0.9,0.1l0.9,0.2l0.9,0.1l0.9,0.2l0.8,0.3l0.9,0.1l0.8,0.3l0.7,0.2l0.8,0.3l0.8,0.3l0.7,0.4l0.6,0.4l0.6,0.3l0.7,0.4l0.6,0.3l0.4,0.5l0.5,0.4l0.3,0.3l0.4,0.5l0.3,0.5l0.4,0.4l0.1,0.5l0.2,0.4l0.1,0.6l0.2,0.5l0,0.5l-0.2,0.4l0,0.5l-0.1,0.4l-0.2,0.5l-0.1,0.5l-0.4,0.4l-0.3,0.5l-0.4,0.4l-0.5,0.5l-0.4,0.5l-0.5,0.3l-0.4,0.4l-0.7,0.5l-0.6,0.3l-0.7,0.3l-0.6,0.3l-0.8,0.3l-0.8,0.3l-0.7,0.3l-0.8,0.3l-0.9,0.2l-0.8,0.3l-0.9,0.1l-0.9,0.2l-0.9,0.1l-0.9,0l-1,0.2l-1,0l-0.9,0.1l-1,0l0,-0.1l-0.9,0l-1.1,0L400.4,293l-0.9,0l-0.9,-0.1l-0.9,0l-0.9,-0.3l-1,-0.2l-0.9,-0.1L394.2,292l-0.8,-0.2l-0.8,-0.3l-0.7,-0.3l-0.8,-0.3l-0.8,-0.3l-0.6,-0.3l-0.6,-0.5l-0.6,-0.3l-0.4,-0.4l-0.7,-0.3L387,288.3l-0.5,-0.5l-0.3,-0.4l-0.3,-0.5l-0.3,-0.4L385.5,286l-0.3,-0.5l0,-0.4L385,284.6l0,-0.4Z" class="g4_18" />
<path d="M385,284.2l0,-0.5l0.2,-0.5l0,-0.6l0.3,-0.4l0.1,-0.5l0.3,-0.4l0.3,-0.5l0.3,-0.5L387,280l0.4,-0.4l0.5,-0.5l0.6,-0.3l0.6,-0.4l0.6,-0.3l0.6,-0.4l0.8,-0.4l0.8,-0.3l0.6,-0.3l0.9,-0.2l0.8,-0.3l0.7,-0.1l0.9,-0.3l1,-0.2l0.9,-0.1l0.9,-0.2l0.9,-0.1l0.9,0l0.9,-0.2l1.1,0l0.9,0l1,0l0.9,0l1,0.2l1,0l0.9,0.1l0.9,0.2l0.9,0.1l0.9,0.2l0.8,0.3l0.9,0.1l0.8,0.3l0.7,0.2l0.8,0.3l0.8,0.3l0.7,0.4l0.6,0.4l0.6,0.3l0.7,0.4l0.6,0.3l0.4,0.5l0.5,0.4l0.3,0.3l0.4,0.5l0.3,0.5l0.4,0.4l0.1,0.5l0.2,0.4l0.1,0.6l0.2,0.5l0,0.5l-0.2,0.4l0,0.5l-0.1,0.4l-0.2,0.5l-0.1,0.5l-0.4,0.4l-0.3,0.5l-0.4,0.4l-0.5,0.5l-0.4,0.5l-0.5,0.3l-0.4,0.4l-0.7,0.5l-0.6,0.3l-0.7,0.3l-0.6,0.3l-0.8,0.3l-0.8,0.3l-0.7,0.3l-0.8,0.3l-0.9,0.2l-0.8,0.3l-0.9,0.1l-0.9,0.2l-0.9,0.1l-0.9,0l-1,0.2l-1,0l-0.9,0.1l-1,0l0,-0.1l-0.9,0l-1.1,0L400.4,293l-0.9,0l-0.9,-0.1l-0.9,0l-0.9,-0.3l-1,-0.2l-0.9,-0.1L394.2,292l-0.8,-0.2l-0.8,-0.3l-0.7,-0.3l-0.8,-0.3l-0.8,-0.3l-0.6,-0.3l-0.6,-0.5l-0.6,-0.3l-0.4,-0.4l-0.7,-0.3L387,288.3l-0.5,-0.5l-0.3,-0.4l-0.3,-0.5l-0.3,-0.4L385.5,286l-0.3,-0.5l0,-0.4L385,284.6l0,-0.4Z" class="g5_18" />
<path fill-rule="evenodd" d="M385,275l0,-0.5l0.2,-0.6l0,-0.4l0.3,-0.5l0.1,-0.4l0.3,-0.5l0.3,-0.5l0.3,-0.4l0.5,-0.3l0.4,-0.5l0.5,-0.4l0.6,-0.3l0.6,-0.5l0.6,-0.3l0.6,-0.5l0.8,-0.3l0.8,-0.3l0.6,-0.3l0.9,-0.1l0.8,-0.3l0.7,-0.3l0.9,-0.2l1,-0.2l0.9,-0.1l0.9,-0.2l0.9,-0.1l0.9,0l0.9,-0.2l1.1,0l0.9,0l1,0l0.9,0l1,0.2l1,0l0.9,0.1l0.9,0.2l0.9,0.1l0.9,0.2l0.8,0.2l0.9,0.3l0.8,0.3l0.7,0.1l0.8,0.3l0.8,0.3l0.7,0.3l0.6,0.5l0.6,0.3l0.7,0.5l0.6,0.3l0.4,0.4l0.5,0.5l0.3,0.3l0.4,0.4l0.3,0.5l0.4,0.5l0.1,0.4l0.2,0.5l0.1,0.4l0.2,0.6l0,0.5l-0.2,0.5l0,0.4l-0.1,0.5l-0.2,0.4l-0.1,0.5l-0.4,0.4l-0.3,0.5l-0.4,0.5l-0.5,0.4l-0.4,0.3l-0.5,0.5l-0.4,0.4l-0.7,0.4l-0.6,0.4l-0.7,0.3l-0.6,0.3l-0.8,0.3l-0.8,0.3l-0.7,0.3l-0.8,0.3l-0.9,0.2l-0.8,0.1l-0.9,0.4l-0.9,0.1l-0.9,0.2l-0.9,0l-1,0.1l-1,0l-0.9,0.2l-1,0l0,-0.2l-0.9,0l-1.1,0l-0.9,-0.1l-0.9,0l-0.9,-0.2l-0.9,-0.1l-0.9,-0.2l-1,-0.2l-0.9,-0.1l-0.7,-0.3l-0.8,-0.2l-0.8,-0.3L391.9,282l-0.8,-0.3l-0.8,-0.3l-0.6,-0.3l-0.6,-0.4l-0.6,-0.4l-0.4,-0.4l-0.7,-0.5L387,279.1l-0.5,-0.4l-0.3,-0.5l-0.3,-0.5l-0.3,-0.4l-0.1,-0.5l-0.3,-0.4l0,-0.5L385,275.5l0,-0.5Z" class="g4_18" />
<path d="M385,275l0,-0.5l0.2,-0.6l0,-0.4l0.3,-0.5l0.1,-0.4l0.3,-0.5l0.3,-0.5l0.3,-0.4l0.5,-0.3l0.4,-0.5l0.5,-0.4l0.6,-0.3l0.6,-0.5l0.6,-0.3l0.6,-0.5l0.8,-0.3l0.8,-0.3l0.6,-0.3l0.9,-0.1l0.8,-0.3l0.7,-0.3l0.9,-0.2l1,-0.2l0.9,-0.1l0.9,-0.2l0.9,-0.1l0.9,0l0.9,-0.2l1.1,0l0.9,0l1,0l0.9,0l1,0.2l1,0l0.9,0.1l0.9,0.2l0.9,0.1l0.9,0.2l0.8,0.2l0.9,0.3l0.8,0.3l0.7,0.1l0.8,0.3l0.8,0.3l0.7,0.3l0.6,0.5l0.6,0.3l0.7,0.5l0.6,0.3l0.4,0.4l0.5,0.5l0.3,0.3l0.4,0.4l0.3,0.5l0.4,0.5l0.1,0.4l0.2,0.5l0.1,0.4l0.2,0.6l0,0.5l-0.2,0.5l0,0.4l-0.1,0.5l-0.2,0.4l-0.1,0.5l-0.4,0.4l-0.3,0.5l-0.4,0.5l-0.5,0.4l-0.4,0.3l-0.5,0.5l-0.4,0.4l-0.7,0.4l-0.6,0.4l-0.7,0.3l-0.6,0.3l-0.8,0.3l-0.8,0.3l-0.7,0.3l-0.8,0.3l-0.9,0.2l-0.8,0.1l-0.9,0.4l-0.9,0.1l-0.9,0.2l-0.9,0l-1,0.1l-1,0l-0.9,0.2l-1,0l0,-0.2l-0.9,0l-1.1,0l-0.9,-0.1l-0.9,0l-0.9,-0.2l-0.9,-0.1l-0.9,-0.2l-1,-0.2l-0.9,-0.1l-0.7,-0.3l-0.8,-0.2l-0.8,-0.3L391.9,282l-0.8,-0.3l-0.8,-0.3l-0.6,-0.3l-0.6,-0.4l-0.6,-0.4l-0.4,-0.4l-0.7,-0.5L387,279.1l-0.5,-0.4l-0.3,-0.5l-0.3,-0.5l-0.3,-0.4l-0.1,-0.5l-0.3,-0.4l0,-0.5L385,275.5l0,-0.5Z" class="g5_18" />
<path fill-rule="evenodd" d="M385,265.8l0,-0.4l0.2,-0.5l0,-0.4l0.3,-0.7l0.1,-0.4l0.3,-0.5l0.3,-0.4l0.3,-0.3l0.5,-0.5l0.4,-0.4l0.5,-0.5l0.6,-0.3l0.6,-0.5l0.6,-0.3l0.6,-0.3l0.8,-0.4l0.8,-0.3l0.6,-0.4l0.9,-0.1l0.8,-0.3l0.7,-0.2l0.9,-0.3l1,-0.1l0.9,-0.2l0.9,-0.1l0.9,0l0.9,-0.2l0.9,-0.1l1.1,0l0.9,0l1,0l0.9,0l1,0.1l1,0.2l0.9,0l0.9,0.1l0.9,0.2l0.9,0.1l0.8,0.3l0.9,0.2l0.8,0.3l0.7,0.1l0.8,0.4l0.8,0.3l0.7,0.4l0.6,0.3l0.6,0.3l0.7,0.5l0.6,0.3l0.4,0.5l0.5,0.4l0.3,0.5l0.4,0.3l0.3,0.4l0.4,0.5l0.1,0.4l0.2,0.7l0.1,0.4l0.2,0.5l0,0.4l-0.2,0.5l0,0.5l-0.1,0.4l-0.2,0.5l-0.1,0.4l-0.4,0.5l-0.3,0.4l-0.4,0.5l-0.5,0.5l-0.4,0.4l-0.5,0.5l-0.4,0.3l-0.7,0.4l-0.6,0.3l-0.7,0.4l-0.6,0.3l-0.8,0.3l-0.8,0.3l-0.7,0.3l-0.8,0.3l-0.9,0.1l-0.8,0.3l-0.9,0.2l-0.9,0.1l-0.9,0.2l-0.9,0l-1,0.1l-1,0l-0.9,0.2l-1,0l0,-0.2l-0.9,0l-1.1,0l-0.9,0l-0.9,-0.1l-0.9,-0.2l-0.9,0l-0.9,-0.3l-1,-0.1l-0.9,-0.2l-0.7,-0.3l-0.8,-0.1l-0.8,-0.3l-0.7,-0.3l-0.8,-0.3l-0.8,-0.3l-0.6,-0.4l-0.6,-0.4l-0.6,-0.3l-0.4,-0.5l-0.7,-0.3L387,270l-0.5,-0.5L386.2,269l-0.3,-0.4l-0.3,-0.5l-0.1,-0.4l-0.3,-0.5l0,-0.4L385,266.3l0,-0.5Z" class="g4_18" />
<path d="M385,265.8l0,-0.4l0.2,-0.5l0,-0.4l0.3,-0.7l0.1,-0.4l0.3,-0.5l0.3,-0.4l0.3,-0.3l0.5,-0.5l0.4,-0.4l0.5,-0.5l0.6,-0.3l0.6,-0.5l0.6,-0.3l0.6,-0.3l0.8,-0.4l0.8,-0.3l0.6,-0.4l0.9,-0.1l0.8,-0.3l0.7,-0.2l0.9,-0.3l1,-0.1l0.9,-0.2l0.9,-0.1l0.9,0l0.9,-0.2l0.9,-0.1l1.1,0l0.9,0l1,0l0.9,0l1,0.1l1,0.2l0.9,0l0.9,0.1l0.9,0.2l0.9,0.1l0.8,0.3l0.9,0.2l0.8,0.3l0.7,0.1l0.8,0.4l0.8,0.3l0.7,0.4l0.6,0.3l0.6,0.3l0.7,0.5l0.6,0.3l0.4,0.5l0.5,0.4l0.3,0.5l0.4,0.3l0.3,0.4l0.4,0.5l0.1,0.4l0.2,0.7l0.1,0.4l0.2,0.5l0,0.4l-0.2,0.5l0,0.5l-0.1,0.4l-0.2,0.5l-0.1,0.4l-0.4,0.5l-0.3,0.4l-0.4,0.5l-0.5,0.5l-0.4,0.4l-0.5,0.5l-0.4,0.3l-0.7,0.4l-0.6,0.3l-0.7,0.4l-0.6,0.3l-0.8,0.3l-0.8,0.3l-0.7,0.3l-0.8,0.3l-0.9,0.1l-0.8,0.3l-0.9,0.2l-0.9,0.1l-0.9,0.2l-0.9,0l-1,0.1l-1,0l-0.9,0.2l-1,0l0,-0.2l-0.9,0l-1.1,0l-0.9,0l-0.9,-0.1l-0.9,-0.2l-0.9,0l-0.9,-0.3l-1,-0.1l-0.9,-0.2l-0.7,-0.3l-0.8,-0.1l-0.8,-0.3l-0.7,-0.3l-0.8,-0.3l-0.8,-0.3l-0.6,-0.4l-0.6,-0.4l-0.6,-0.3l-0.4,-0.5l-0.7,-0.3L387,270l-0.5,-0.5L386.2,269l-0.3,-0.4l-0.3,-0.5l-0.1,-0.4l-0.3,-0.5l0,-0.4L385,266.3l0,-0.5Z" class="g5_18" />
<path fill-rule="evenodd" d="M385,256.7l0,-0.5l0.2,-0.5l0,-0.6l0.3,-0.4l0.1,-0.5l0.3,-0.4l0.3,-0.5l0.3,-0.5l0.5,-0.3l0.4,-0.4l0.5,-0.5l0.6,-0.3l0.6,-0.4l0.6,-0.3l0.6,-0.4l0.8,-0.4l0.8,-0.3l0.6,-0.3l0.9,-0.2l0.8,-0.3l0.7,-0.1l0.9,-0.3l1,-0.2l0.9,-0.1l0.9,-0.2l0.9,-0.1l0.9,0l0.9,-0.2l1.1,0l0.9,0l1,0l0.9,0l1,0.2l1,0l0.9,0.1L409,248l0.9,0.1l0.9,0.2l0.8,0.3l0.9,0.1l0.8,0.3l0.7,0.2l0.8,0.3l0.8,0.3l0.7,0.4l0.6,0.4l0.6,0.3l0.7,0.4l0.6,0.3l0.4,0.5l0.5,0.4l0.3,0.3l0.4,0.5l0.3,0.5l0.4,0.4l0.1,0.5l0.2,0.4l0.1,0.6l0.2,0.5l0,0.5l-0.2,0.4l0,0.5l-0.1,0.4l-0.2,0.5l-0.1,0.5l-0.4,0.4l-0.3,0.5l-0.4,0.4l-0.5,0.5l-0.4,0.5l-0.5,0.3l-0.4,0.4l-0.7,0.5l-0.6,0.3l-0.7,0.3l-0.6,0.3l-0.8,0.3L414,264l-0.7,0.3l-0.8,0.3l-0.9,0.2l-0.8,0.3l-0.9,0.1l-0.9,0.2l-0.9,0.1l-0.9,0l-1,0.2l-1,0l-0.9,0.1l-1,0l0,-0.1l-0.9,0l-1.1,0l-0.9,-0.2l-0.9,0l-0.9,-0.1l-0.9,0l-0.9,-0.3l-1,-0.2l-0.9,-0.1l-0.7,-0.3l-0.8,-0.2L392.6,264l-0.7,-0.3l-0.8,-0.3l-0.8,-0.3l-0.6,-0.3l-0.6,-0.5L388.5,262l-0.4,-0.4l-0.7,-0.3L387,260.8l-0.5,-0.5l-0.3,-0.4l-0.3,-0.5L385.6,259l-0.1,-0.5L385.2,258l0,-0.4L385,257.1l0,-0.4Z" class="g4_18" />
<path d="M385,256.7l0,-0.5l0.2,-0.5l0,-0.6l0.3,-0.4l0.1,-0.5l0.3,-0.4l0.3,-0.5l0.3,-0.5l0.5,-0.3l0.4,-0.4l0.5,-0.5l0.6,-0.3l0.6,-0.4l0.6,-0.3l0.6,-0.4l0.8,-0.4l0.8,-0.3l0.6,-0.3l0.9,-0.2l0.8,-0.3l0.7,-0.1l0.9,-0.3l1,-0.2l0.9,-0.1l0.9,-0.2l0.9,-0.1l0.9,0l0.9,-0.2l1.1,0l0.9,0l1,0l0.9,0l1,0.2l1,0l0.9,0.1L409,248l0.9,0.1l0.9,0.2l0.8,0.3l0.9,0.1l0.8,0.3l0.7,0.2l0.8,0.3l0.8,0.3l0.7,0.4l0.6,0.4l0.6,0.3l0.7,0.4l0.6,0.3l0.4,0.5l0.5,0.4l0.3,0.3l0.4,0.5l0.3,0.5l0.4,0.4l0.1,0.5l0.2,0.4l0.1,0.6l0.2,0.5l0,0.5l-0.2,0.4l0,0.5l-0.1,0.4l-0.2,0.5l-0.1,0.5l-0.4,0.4l-0.3,0.5l-0.4,0.4l-0.5,0.5l-0.4,0.5l-0.5,0.3l-0.4,0.4l-0.7,0.5l-0.6,0.3l-0.7,0.3l-0.6,0.3l-0.8,0.3L414,264l-0.7,0.3l-0.8,0.3l-0.9,0.2l-0.8,0.3l-0.9,0.1l-0.9,0.2l-0.9,0.1l-0.9,0l-1,0.2l-1,0l-0.9,0.1l-1,0l0,-0.1l-0.9,0l-1.1,0l-0.9,-0.2l-0.9,0l-0.9,-0.1l-0.9,0l-0.9,-0.3l-1,-0.2l-0.9,-0.1l-0.7,-0.3l-0.8,-0.2L392.6,264l-0.7,-0.3l-0.8,-0.3l-0.8,-0.3l-0.6,-0.3l-0.6,-0.5L388.5,262l-0.4,-0.4l-0.7,-0.3L387,260.8l-0.5,-0.5l-0.3,-0.4l-0.3,-0.5L385.6,259l-0.1,-0.5L385.2,258l0,-0.4L385,257.1l0,-0.4Z" class="g5_18" />
<path fill-rule="evenodd" d="M770,293.3l0,-0.4l0.2,-0.5l0,-0.4l0.3,-0.7l0.1,-0.4l0.3,-0.5l0.3,-0.4l0.3,-0.3l0.5,-0.5l0.4,-0.4l0.5,-0.5l0.6,-0.3l0.6,-0.5l0.6,-0.3l0.6,-0.3l0.8,-0.4l0.8,-0.3l0.6,-0.4l0.9,-0.1l0.8,-0.3l0.7,-0.2l0.9,-0.3l1,-0.1l0.9,-0.2l0.9,-0.1l0.9,0l0.9,-0.2l0.9,-0.1l1.1,0l0.9,0l0.9,0l1,0l1,0.1l1,0.2l0.9,0l0.9,0.1l0.9,0.2l0.9,0.1l0.8,0.3l0.9,0.2l0.8,0.3l0.7,0.1l0.8,0.4l0.8,0.3l0.7,0.4l0.6,0.3l0.6,0.3l0.7,0.5l0.6,0.3l0.4,0.5l0.5,0.4l0.3,0.5l0.4,0.3l0.4,0.4l0.3,0.5l0.1,0.4l0.2,0.7l0.1,0.4l0.2,0.5l0,0.4l-0.2,0.5l0,0.5l-0.1,0.4l-0.2,0.5l-0.1,0.4l-0.3,0.5l-0.4,0.4L805,297l-0.5,0.5l-0.4,0.4l-0.5,0.5l-0.4,0.3l-0.7,0.4l-0.6,0.3l-0.7,0.4l-0.6,0.3l-0.8,0.3l-0.8,0.3l-0.7,0.3l-0.8,0.3l-0.9,0.1l-0.8,0.3l-0.9,0.2L794,302l-0.9,0.2l-0.9,0l-1,0.1l-1,0l-1,0.2l-0.9,0l0,-0.2l-0.9,0l-1.1,0l-0.9,0l-0.9,-0.1L783.6,302l-0.9,0l-0.9,-0.3l-1,-0.1l-0.9,-0.2l-0.7,-0.3L778.4,301l-0.8,-0.3l-0.7,-0.3l-0.8,-0.3l-0.8,-0.3l-0.6,-0.4L774.1,299l-0.6,-0.3l-0.4,-0.5l-0.7,-0.3L772,297.5L771.5,297l-0.3,-0.5l-0.3,-0.4l-0.3,-0.5l-0.1,-0.4l-0.3,-0.5l0,-0.4L770,293.8l0,-0.5Z" class="g4_18" />
<path d="M770,293.3l0,-0.4l0.2,-0.5l0,-0.4l0.3,-0.7l0.1,-0.4l0.3,-0.5l0.3,-0.4l0.3,-0.3l0.5,-0.5l0.4,-0.4l0.5,-0.5l0.6,-0.3l0.6,-0.5l0.6,-0.3l0.6,-0.3l0.8,-0.4l0.8,-0.3l0.6,-0.4l0.9,-0.1l0.8,-0.3l0.7,-0.2l0.9,-0.3l1,-0.1l0.9,-0.2l0.9,-0.1l0.9,0l0.9,-0.2l0.9,-0.1l1.1,0l0.9,0l0.9,0l1,0l1,0.1l1,0.2l0.9,0l0.9,0.1l0.9,0.2l0.9,0.1l0.8,0.3l0.9,0.2l0.8,0.3l0.7,0.1l0.8,0.4l0.8,0.3l0.7,0.4l0.6,0.3l0.6,0.3l0.7,0.5l0.6,0.3l0.4,0.5l0.5,0.4l0.3,0.5l0.4,0.3l0.4,0.4l0.3,0.5l0.1,0.4l0.2,0.7l0.1,0.4l0.2,0.5l0,0.4l-0.2,0.5l0,0.5l-0.1,0.4l-0.2,0.5l-0.1,0.4l-0.3,0.5l-0.4,0.4L805,297l-0.5,0.5l-0.4,0.4l-0.5,0.5l-0.4,0.3l-0.7,0.4l-0.6,0.3l-0.7,0.4l-0.6,0.3l-0.8,0.3l-0.8,0.3l-0.7,0.3l-0.8,0.3l-0.9,0.1l-0.8,0.3l-0.9,0.2L794,302l-0.9,0.2l-0.9,0l-1,0.1l-1,0l-1,0.2l-0.9,0l0,-0.2l-0.9,0l-1.1,0l-0.9,0l-0.9,-0.1L783.6,302l-0.9,0l-0.9,-0.3l-1,-0.1l-0.9,-0.2l-0.7,-0.3L778.4,301l-0.8,-0.3l-0.7,-0.3l-0.8,-0.3l-0.8,-0.3l-0.6,-0.4L774.1,299l-0.6,-0.3l-0.4,-0.5l-0.7,-0.3L772,297.5L771.5,297l-0.3,-0.5l-0.3,-0.4l-0.3,-0.5l-0.1,-0.4l-0.3,-0.5l0,-0.4L770,293.8l0,-0.5Z" class="g5_18" />
<path fill-rule="evenodd" d="M770,284.2l0,-0.5l0.2,-0.5l0,-0.6l0.3,-0.4l0.1,-0.5l0.3,-0.4l0.3,-0.5l0.3,-0.5L772,280l0.4,-0.4l0.5,-0.5l0.6,-0.3l0.6,-0.4l0.6,-0.3l0.6,-0.4l0.8,-0.4l0.8,-0.3l0.6,-0.3l0.9,-0.2l0.8,-0.3l0.7,-0.1l0.9,-0.3l1,-0.2l0.9,-0.1l0.9,-0.2l0.9,-0.1l0.9,0l0.9,-0.2l1.1,0l0.9,0l0.9,0l1,0l1,0.2l1,0l0.9,0.1l0.9,0.2l0.9,0.1l0.9,0.2l0.8,0.3l0.9,0.1l0.8,0.3l0.7,0.2l0.8,0.3l0.8,0.3l0.7,0.4l0.6,0.4l0.6,0.3l0.7,0.4l0.6,0.3l0.4,0.5l0.5,0.4l0.3,0.3l0.4,0.5l0.4,0.5l0.3,0.4l0.1,0.5l0.2,0.4l0.1,0.6l0.2,0.5l0,0.5l-0.2,0.4l0,0.5l-0.1,0.4l-0.2,0.5l-0.1,0.5l-0.3,0.4l-0.4,0.5l-0.4,0.4l-0.5,0.5l-0.4,0.5l-0.5,0.3l-0.4,0.4l-0.7,0.5l-0.6,0.3l-0.7,0.3l-0.6,0.3l-0.8,0.3l-0.8,0.3l-0.7,0.3l-0.8,0.3l-0.9,0.2l-0.8,0.3l-0.9,0.1l-0.9,0.2l-0.9,0.1l-0.9,0l-1,0.2l-1,0l-1,0.1l-0.9,0l0,-0.1l-0.9,0l-1.1,0L785.4,293l-0.9,0l-0.9,-0.1l-0.9,0l-0.9,-0.3l-1,-0.2l-0.9,-0.1L779.2,292l-0.8,-0.2l-0.8,-0.3l-0.7,-0.3l-0.8,-0.3l-0.8,-0.3l-0.6,-0.3l-0.6,-0.5l-0.6,-0.3l-0.4,-0.4l-0.7,-0.3L772,288.3l-0.5,-0.5l-0.3,-0.4l-0.3,-0.5l-0.3,-0.4L770.5,286l-0.3,-0.5l0,-0.4L770,284.6l0,-0.4Z" class="g4_18" />
<path d="M770,284.2l0,-0.5l0.2,-0.5l0,-0.6l0.3,-0.4l0.1,-0.5l0.3,-0.4l0.3,-0.5l0.3,-0.5L772,280l0.4,-0.4l0.5,-0.5l0.6,-0.3l0.6,-0.4l0.6,-0.3l0.6,-0.4l0.8,-0.4l0.8,-0.3l0.6,-0.3l0.9,-0.2l0.8,-0.3l0.7,-0.1l0.9,-0.3l1,-0.2l0.9,-0.1l0.9,-0.2l0.9,-0.1l0.9,0l0.9,-0.2l1.1,0l0.9,0l0.9,0l1,0l1,0.2l1,0l0.9,0.1l0.9,0.2l0.9,0.1l0.9,0.2l0.8,0.3l0.9,0.1l0.8,0.3l0.7,0.2l0.8,0.3l0.8,0.3l0.7,0.4l0.6,0.4l0.6,0.3l0.7,0.4l0.6,0.3l0.4,0.5l0.5,0.4l0.3,0.3l0.4,0.5l0.4,0.5l0.3,0.4l0.1,0.5l0.2,0.4l0.1,0.6l0.2,0.5l0,0.5l-0.2,0.4l0,0.5l-0.1,0.4l-0.2,0.5l-0.1,0.5l-0.3,0.4l-0.4,0.5l-0.4,0.4l-0.5,0.5l-0.4,0.5l-0.5,0.3l-0.4,0.4l-0.7,0.5l-0.6,0.3l-0.7,0.3l-0.6,0.3l-0.8,0.3l-0.8,0.3l-0.7,0.3l-0.8,0.3l-0.9,0.2l-0.8,0.3l-0.9,0.1l-0.9,0.2l-0.9,0.1l-0.9,0l-1,0.2l-1,0l-1,0.1l-0.9,0l0,-0.1l-0.9,0l-1.1,0L785.4,293l-0.9,0l-0.9,-0.1l-0.9,0l-0.9,-0.3l-1,-0.2l-0.9,-0.1L779.2,292l-0.8,-0.2l-0.8,-0.3l-0.7,-0.3l-0.8,-0.3l-0.8,-0.3l-0.6,-0.3l-0.6,-0.5l-0.6,-0.3l-0.4,-0.4l-0.7,-0.3L772,288.3l-0.5,-0.5l-0.3,-0.4l-0.3,-0.5l-0.3,-0.4L770.5,286l-0.3,-0.5l0,-0.4L770,284.6l0,-0.4Z" class="g5_18" />
<path fill-rule="evenodd" d="M770,275l0,-0.5l0.2,-0.6l0,-0.4l0.3,-0.5l0.1,-0.4l0.3,-0.5l0.3,-0.5l0.3,-0.4l0.5,-0.3l0.4,-0.5l0.5,-0.4l0.6,-0.3l0.6,-0.5l0.6,-0.3l0.6,-0.5l0.8,-0.3l0.8,-0.3l0.6,-0.3l0.9,-0.1l0.8,-0.3l0.7,-0.3l0.9,-0.2l1,-0.2l0.9,-0.1l0.9,-0.2l0.9,-0.1l0.9,0l0.9,-0.2l1.1,0l0.9,0l0.9,0l1,0l1,0.2l1,0l0.9,0.1l0.9,0.2l0.9,0.1l0.9,0.2l0.8,0.2l0.9,0.3l0.8,0.3l0.7,0.1l0.8,0.3l0.8,0.3l0.7,0.3l0.6,0.5l0.6,0.3l0.7,0.5l0.6,0.3l0.4,0.4l0.5,0.5l0.3,0.3l0.4,0.4l0.4,0.5l0.3,0.5l0.1,0.4l0.2,0.5l0.1,0.4l0.2,0.6l0,0.5l-0.2,0.5l0,0.4l-0.1,0.5l-0.2,0.4l-0.1,0.5l-0.3,0.4l-0.4,0.5l-0.4,0.5l-0.5,0.4l-0.4,0.3l-0.5,0.5l-0.4,0.4l-0.7,0.4l-0.6,0.4l-0.7,0.3l-0.6,0.3l-0.8,0.3l-0.8,0.3l-0.7,0.3l-0.8,0.3l-0.9,0.2l-0.8,0.1l-0.9,0.4l-0.9,0.1l-0.9,0.2l-0.9,0l-1,0.1l-1,0l-1,0.2l-0.9,0l0,-0.2l-0.9,0l-1.1,0l-0.9,-0.1l-0.9,0l-0.9,-0.2l-0.9,-0.1l-0.9,-0.2l-1,-0.2l-0.9,-0.1l-0.7,-0.3l-0.8,-0.2l-0.8,-0.3L776.9,282l-0.8,-0.3l-0.8,-0.3l-0.6,-0.3l-0.6,-0.4l-0.6,-0.4l-0.4,-0.4l-0.7,-0.5L772,279.1l-0.5,-0.4l-0.3,-0.5l-0.3,-0.5l-0.3,-0.4l-0.1,-0.5l-0.3,-0.4l0,-0.5L770,275.5l0,-0.5Z" class="g4_18" />
<path d="M770,275l0,-0.5l0.2,-0.6l0,-0.4l0.3,-0.5l0.1,-0.4l0.3,-0.5l0.3,-0.5l0.3,-0.4l0.5,-0.3l0.4,-0.5l0.5,-0.4l0.6,-0.3l0.6,-0.5l0.6,-0.3l0.6,-0.5l0.8,-0.3l0.8,-0.3l0.6,-0.3l0.9,-0.1l0.8,-0.3l0.7,-0.3l0.9,-0.2l1,-0.2l0.9,-0.1l0.9,-0.2l0.9,-0.1l0.9,0l0.9,-0.2l1.1,0l0.9,0l0.9,0l1,0l1,0.2l1,0l0.9,0.1l0.9,0.2l0.9,0.1l0.9,0.2l0.8,0.2l0.9,0.3l0.8,0.3l0.7,0.1l0.8,0.3l0.8,0.3l0.7,0.3l0.6,0.5l0.6,0.3l0.7,0.5l0.6,0.3l0.4,0.4l0.5,0.5l0.3,0.3l0.4,0.4l0.4,0.5l0.3,0.5l0.1,0.4l0.2,0.5l0.1,0.4l0.2,0.6l0,0.5l-0.2,0.5l0,0.4l-0.1,0.5l-0.2,0.4l-0.1,0.5l-0.3,0.4l-0.4,0.5l-0.4,0.5l-0.5,0.4l-0.4,0.3l-0.5,0.5l-0.4,0.4l-0.7,0.4l-0.6,0.4l-0.7,0.3l-0.6,0.3l-0.8,0.3l-0.8,0.3l-0.7,0.3l-0.8,0.3l-0.9,0.2l-0.8,0.1l-0.9,0.4l-0.9,0.1l-0.9,0.2l-0.9,0l-1,0.1l-1,0l-1,0.2l-0.9,0l0,-0.2l-0.9,0l-1.1,0l-0.9,-0.1l-0.9,0l-0.9,-0.2l-0.9,-0.1l-0.9,-0.2l-1,-0.2l-0.9,-0.1l-0.7,-0.3l-0.8,-0.2l-0.8,-0.3L776.9,282l-0.8,-0.3l-0.8,-0.3l-0.6,-0.3l-0.6,-0.4l-0.6,-0.4l-0.4,-0.4l-0.7,-0.5L772,279.1l-0.5,-0.4l-0.3,-0.5l-0.3,-0.5l-0.3,-0.4l-0.1,-0.5l-0.3,-0.4l0,-0.5L770,275.5l0,-0.5Z" class="g5_18" />
<path fill-rule="evenodd" d="M770,265.8l0,-0.4l0.2,-0.5l0,-0.4l0.3,-0.7l0.1,-0.4l0.3,-0.5l0.3,-0.4l0.3,-0.3l0.5,-0.5l0.4,-0.4l0.5,-0.5l0.6,-0.3l0.6,-0.5l0.6,-0.3l0.6,-0.3l0.8,-0.4l0.8,-0.3l0.6,-0.4l0.9,-0.1l0.8,-0.3l0.7,-0.2l0.9,-0.3l1,-0.1l0.9,-0.2l0.9,-0.1l0.9,0l0.9,-0.2l0.9,-0.1l1.1,0l0.9,0l0.9,0l1,0l1,0.1l1,0.2l0.9,0l0.9,0.1l0.9,0.2l0.9,0.1l0.8,0.3l0.9,0.2l0.8,0.3l0.7,0.1l0.8,0.4l0.8,0.3l0.7,0.4l0.6,0.3l0.6,0.3l0.7,0.5l0.6,0.3l0.4,0.5l0.5,0.4l0.3,0.5l0.4,0.3l0.4,0.4l0.3,0.5l0.1,0.4l0.2,0.7l0.1,0.4l0.2,0.5l0,0.4l-0.2,0.5l0,0.5l-0.1,0.4l-0.2,0.5l-0.1,0.4l-0.3,0.5l-0.4,0.4l-0.4,0.5l-0.5,0.5l-0.4,0.4l-0.5,0.5l-0.4,0.3l-0.7,0.4l-0.6,0.3l-0.7,0.4l-0.6,0.3l-0.8,0.3l-0.8,0.3l-0.7,0.3l-0.8,0.3l-0.9,0.1l-0.8,0.3l-0.9,0.2l-0.9,0.1l-0.9,0.2l-0.9,0l-1,0.1l-1,0l-1,0.2l-0.9,0l0,-0.2l-0.9,0l-1.1,0l-0.9,0l-0.9,-0.1l-0.9,-0.2l-0.9,0l-0.9,-0.3l-1,-0.1l-0.9,-0.2l-0.7,-0.3l-0.8,-0.1l-0.8,-0.3l-0.7,-0.3l-0.8,-0.3l-0.8,-0.3l-0.6,-0.4l-0.6,-0.4l-0.6,-0.3l-0.4,-0.5l-0.7,-0.3L772,270l-0.5,-0.5L771.2,269l-0.3,-0.4l-0.3,-0.5l-0.1,-0.4l-0.3,-0.5l0,-0.4L770,266.3l0,-0.5Z" class="g4_18" />
<path d="M770,265.8l0,-0.4l0.2,-0.5l0,-0.4l0.3,-0.7l0.1,-0.4l0.3,-0.5l0.3,-0.4l0.3,-0.3l0.5,-0.5l0.4,-0.4l0.5,-0.5l0.6,-0.3l0.6,-0.5l0.6,-0.3l0.6,-0.3l0.8,-0.4l0.8,-0.3l0.6,-0.4l0.9,-0.1l0.8,-0.3l0.7,-0.2l0.9,-0.3l1,-0.1l0.9,-0.2l0.9,-0.1l0.9,0l0.9,-0.2l0.9,-0.1l1.1,0l0.9,0l0.9,0l1,0l1,0.1l1,0.2l0.9,0l0.9,0.1l0.9,0.2l0.9,0.1l0.8,0.3l0.9,0.2l0.8,0.3l0.7,0.1l0.8,0.4l0.8,0.3l0.7,0.4l0.6,0.3l0.6,0.3l0.7,0.5l0.6,0.3l0.4,0.5l0.5,0.4l0.3,0.5l0.4,0.3l0.4,0.4l0.3,0.5l0.1,0.4l0.2,0.7l0.1,0.4l0.2,0.5l0,0.4l-0.2,0.5l0,0.5l-0.1,0.4l-0.2,0.5l-0.1,0.4l-0.3,0.5l-0.4,0.4l-0.4,0.5l-0.5,0.5l-0.4,0.4l-0.5,0.5l-0.4,0.3l-0.7,0.4l-0.6,0.3l-0.7,0.4l-0.6,0.3l-0.8,0.3l-0.8,0.3l-0.7,0.3l-0.8,0.3l-0.9,0.1l-0.8,0.3l-0.9,0.2l-0.9,0.1l-0.9,0.2l-0.9,0l-1,0.1l-1,0l-1,0.2l-0.9,0l0,-0.2l-0.9,0l-1.1,0l-0.9,0l-0.9,-0.1l-0.9,-0.2l-0.9,0l-0.9,-0.3l-1,-0.1l-0.9,-0.2l-0.7,-0.3l-0.8,-0.1l-0.8,-0.3l-0.7,-0.3l-0.8,-0.3l-0.8,-0.3l-0.6,-0.4l-0.6,-0.4l-0.6,-0.3l-0.4,-0.5l-0.7,-0.3L772,270l-0.5,-0.5L771.2,269l-0.3,-0.4l-0.3,-0.5l-0.1,-0.4l-0.3,-0.5l0,-0.4L770,266.3l0,-0.5Z" class="g5_18" />
<path fill-rule="evenodd" d="M770,256.7l0,-0.5l0.2,-0.5l0,-0.6l0.3,-0.4l0.1,-0.5l0.3,-0.4l0.3,-0.5l0.3,-0.5l0.5,-0.3l0.4,-0.4l0.5,-0.5l0.6,-0.3l0.6,-0.4l0.6,-0.3l0.6,-0.4l0.8,-0.4l0.8,-0.3l0.6,-0.3l0.9,-0.2l0.8,-0.3l0.7,-0.1l0.9,-0.3l1,-0.2l0.9,-0.1l0.9,-0.2l0.9,-0.1l0.9,0l0.9,-0.2l1.1,0l0.9,0l0.9,0l1,0l1,0.2l1,0l0.9,0.1L794,248l0.9,0.1l0.9,0.2l0.8,0.3l0.9,0.1l0.8,0.3l0.7,0.2l0.8,0.3l0.8,0.3l0.7,0.4l0.6,0.4l0.6,0.3l0.7,0.4l0.6,0.3l0.4,0.5l0.5,0.4l0.3,0.3l0.4,0.5l0.4,0.5l0.3,0.4l0.1,0.5l0.2,0.4l0.1,0.6l0.2,0.5l0,0.5l-0.2,0.4l0,0.5l-0.1,0.4l-0.2,0.5l-0.1,0.5l-0.3,0.4l-0.4,0.5l-0.4,0.4l-0.5,0.5l-0.4,0.5l-0.5,0.3l-0.4,0.4l-0.7,0.5l-0.6,0.3l-0.7,0.3l-0.6,0.3l-0.8,0.3L799,264l-0.7,0.3l-0.8,0.3l-0.9,0.2l-0.8,0.3l-0.9,0.1l-0.9,0.2l-0.9,0.1l-0.9,0l-1,0.2l-1,0l-1,0.1l-0.9,0l0,-0.1l-0.9,0l-1.1,0l-0.9,-0.2l-0.9,0l-0.9,-0.1l-0.9,0l-0.9,-0.3l-1,-0.2l-0.9,-0.1l-0.7,-0.3l-0.8,-0.2L777.6,264l-0.7,-0.3l-0.8,-0.3l-0.8,-0.3l-0.6,-0.3l-0.6,-0.5L773.5,262l-0.4,-0.4l-0.7,-0.3L772,260.8l-0.5,-0.5l-0.3,-0.4l-0.3,-0.5L770.6,259l-0.1,-0.5L770.2,258l0,-0.4L770,257.1l0,-0.4Z" class="g4_18" />
<path d="M770,256.7l0,-0.5l0.2,-0.5l0,-0.6l0.3,-0.4l0.1,-0.5l0.3,-0.4l0.3,-0.5l0.3,-0.5l0.5,-0.3l0.4,-0.4l0.5,-0.5l0.6,-0.3l0.6,-0.4l0.6,-0.3l0.6,-0.4l0.8,-0.4l0.8,-0.3l0.6,-0.3l0.9,-0.2l0.8,-0.3l0.7,-0.1l0.9,-0.3l1,-0.2l0.9,-0.1l0.9,-0.2l0.9,-0.1l0.9,0l0.9,-0.2l1.1,0l0.9,0l0.9,0l1,0l1,0.2l1,0l0.9,0.1L794,248l0.9,0.1l0.9,0.2l0.8,0.3l0.9,0.1l0.8,0.3l0.7,0.2l0.8,0.3l0.8,0.3l0.7,0.4l0.6,0.4l0.6,0.3l0.7,0.4l0.6,0.3l0.4,0.5l0.5,0.4l0.3,0.3l0.4,0.5l0.4,0.5l0.3,0.4l0.1,0.5l0.2,0.4l0.1,0.6l0.2,0.5l0,0.5l-0.2,0.4l0,0.5l-0.1,0.4l-0.2,0.5l-0.1,0.5l-0.3,0.4l-0.4,0.5l-0.4,0.4l-0.5,0.5l-0.4,0.5l-0.5,0.3l-0.4,0.4l-0.7,0.5l-0.6,0.3l-0.7,0.3l-0.6,0.3l-0.8,0.3L799,264l-0.7,0.3l-0.8,0.3l-0.9,0.2l-0.8,0.3l-0.9,0.1l-0.9,0.2l-0.9,0.1l-0.9,0l-1,0.2l-1,0l-1,0.1l-0.9,0l0,-0.1l-0.9,0l-1.1,0l-0.9,-0.2l-0.9,0l-0.9,-0.1l-0.9,0l-0.9,-0.3l-1,-0.2l-0.9,-0.1l-0.7,-0.3l-0.8,-0.2L777.6,264l-0.7,-0.3l-0.8,-0.3l-0.8,-0.3l-0.6,-0.3l-0.6,-0.5L773.5,262l-0.4,-0.4l-0.7,-0.3L772,260.8l-0.5,-0.5l-0.3,-0.4l-0.3,-0.5L770.6,259l-0.1,-0.5L770.2,258l0,-0.4L770,257.1l0,-0.4Z" class="g5_18" />
<path d="M229.2,476.7c112.3,39.7,224.6,79.4,311.6,55C627.9,507.2,706.6,372.9,746,335" class="g5_18" />
<path fill-rule="evenodd" d="M751.7,330l-3.9,9.5l-5.9,-6.9l9.8,-2.6Z" class="g3_18" />
<path d="M522.5,421.7L743.9,324.2" class="g5_18" />
<path fill-rule="evenodd" d="M751.7,320.8l-6.6,7.8l-3.7,-8.2l10.3,0.4Z" class="g3_18" />
</svg>