<?xml version="1.0" encoding="UTF-8" standalone="no"?>
<!DOCTYPE svg PUBLIC "-//W3C//DTD SVG 1.1//EN"
"http://www.w3.org/Graphics/SVG/1.1/DTD/svg11.dtd">
<svg viewBox="0 0 1100 825" version="1.1" xmlns="http://www.w3.org/2000/svg" xmlns:xlink="http://www.w3.org/1999/xlink">
<defs>
<style type="text/css"><![CDATA[
.g1_22{
fill: #FFFFFF;
}
.g2_22{
}
.g3_22{
fill: #B5DBE5;
fill-opacity: 0.15;
}
.g4_22{
fill: none;
stroke: #90CAD7;
stroke-width: 1.513264;
stroke-linecap: butt;
stroke-linejoin: round;
}
.g5_22{
fill: #9F8471;
}
.g6_22{
fill: none;
stroke: #F5FFE0;
stroke-width: 0.77825004;
stroke-linecap: butt;
stroke-linejoin: round;
}
]]></style>
</defs>
<path fill-rule="evenodd" d="M0,0L1100,0l0,825L0,825L0,0Z" class="g1_22" />
<path fill-rule="evenodd" d="M0,0L1100,0l0,825L0,825L0,0Z" class="g2_22" />
<image preserveAspectRatio="none" x="0" y="0" width="1100" height="825" xlink:href="img/1.png" />
<image preserveAspectRatio="none" x="0" y="8" width="1100" height="710" xlink:href="img/2.png" />
<image preserveAspectRatio="none" x="0" y="30" width="1100" height="581" xlink:href="img/3.png" />
<image preserveAspectRatio="none" x="18" y="28" width="207" height="51" opacity="0.75" xlink:href="img/4.png" />
<image preserveAspectRatio="none" x="18" y="28" width="207" height="51" xlink:href="img/5.png" />
<path fill-rule="evenodd" d="M550,802.8l-451.8,0l0,-498.3l903.6,0l0,498.3l-451.8,0Z" class="g3_22" />
<path d="M550,802.8l-451.8,0l0,-498.3l903.6,0l0,498.3l-451.8,0Z" class="g4_22" />
<path fill-rule="evenodd" d="M376.8,678.2l0,-1.1l0,-1.1l0.1,-1l0.2,-1.1l0.3,-1.1l0.3,-0.9l0.3,-1.1l0.4,-0.9l0.5,-0.9l0.4,-1.1L380,667l0.6,-0.7l0.6,-1l0.7,-0.7l0.7,-0.8l0.9,-0.7l0.7,-0.7l0.8,-0.7l0.9,-0.5l0.9,-0.6l1,-0.4l0.9,-0.7l1,-0.3l1,-0.3l1,-0.3l1.1,-0.3l1.1,-0.1l0.9,-0.2l1,-0.1l1.1,0l45.7,0L399.2,614.3l142.2,43.6l210.6,0l1,0l1.1,0.1l0.9,0.2l1.1,0.1l1.1,0.3l1,0.3l1,0.3l1,0.3l0.9,0.7l1,0.4l0.9,0.6l0.9,0.5l0.8,0.7l0.9,0.7l0.7,0.7l0.6,0.8l0.8,0.7l0.6,1l0.6,0.7l0.6,0.9L770,669l0.5,0.9l0.4,0.9l0.3,1.1l0.3,0.9l0.3,1.1L772,675l0.1,1l0,1.1l0,1.1l0.2,0l0,30.4l0,50.6l-0.2,1l0,1.1l-0.1,1.1l-0.2,1l-0.3,1.1l-0.3,1.1l-0.3,0.9l-0.4,0.9l-0.5,1.1l-0.5,0.9l-0.6,0.9l-0.4,0.8l-0.8,0.9l-0.6,0.8l-0.8,0.7l-0.7,0.8l-0.8,0.7l-0.9,0.7l-0.9,0.6l-0.9,0.4l-1,0.6l-0.9,0.5l-0.9,0.3l-1.1,0.5l-1,0.3l-0.9,0.1l-1.1,0.2l-1.1,0.1l-1.1,0.2l-1,0l-210.6,0l-98.8,0l-45.7,0l-1.1,0l-1,0l-0.9,-0.2l-1.1,-0.1l-1.1,-0.3l-1,-0.3l-1,-0.3l-1,-0.5l-0.9,-0.5l-1,-0.4l-0.9,-0.6L385,775.7L384.2,775l-0.7,-0.7l-0.9,-0.6l-0.7,-0.9L381.2,772l-0.6,-0.8L380,770.3l-0.7,-0.9l-0.4,-0.9l-0.5,-0.9L378,766.5l-0.3,-0.9l-0.3,-1.1l-0.3,-1.1l-0.2,-1l-0.1,-1l0,-1l0,-1.1l0,-50.7l0,-30.4Z" class="g5_22" />
<path d="M376.8,678.2l0,-1.1l0,-1.1l0.1,-1l0.2,-1.1l0.3,-1.1l0.3,-0.9l0.3,-1.1l0.4,-0.9l0.5,-0.9l0.4,-1.1L380,667l0.6,-0.7l0.6,-1l0.7,-0.7l0.7,-0.8l0.9,-0.7l0.7,-0.7l0.8,-0.7l0.9,-0.5l0.9,-0.6l1,-0.4l0.9,-0.7l1,-0.3l1,-0.3l1,-0.3l1.1,-0.3l1.1,-0.1l0.9,-0.2l1,-0.1l1.1,0l45.7,0L399.2,614.3l142.2,43.6l210.6,0l1,0l1.1,0.1l0.9,0.2l1.1,0.1l1.1,0.3l1,0.3l1,0.3l1,0.3l0.9,0.7l1,0.4l0.9,0.6l0.9,0.5l0.8,0.7l0.9,0.7l0.7,0.7l0.6,0.8l0.8,0.7l0.6,1l0.6,0.7l0.6,0.9L770,669l0.5,0.9l0.4,0.9l0.3,1.1l0.3,0.9l0.3,1.1L772,675l0.1,1l0,1.1l0,1.1l0.2,0l0,30.4l0,50.6l-0.2,1l0,1.1l-0.1,1.1l-0.2,1l-0.3,1.1l-0.3,1.1l-0.3,0.9l-0.4,0.9l-0.5,1.1l-0.5,0.9l-0.6,0.9l-0.4,0.8l-0.8,0.9l-0.6,0.8l-0.8,0.7l-0.7,0.8l-0.8,0.7l-0.9,0.7l-0.9,0.6l-0.9,0.4l-1,0.6l-0.9,0.5l-0.9,0.3l-1.1,0.5l-1,0.3l-0.9,0.1l-1.1,0.2l-1.1,0.1l-1.1,0.2l-1,0l-210.6,0l-98.8,0l-45.7,0l-1.1,0l-1,0l-0.9,-0.2l-1.1,-0.1l-1.1,-0.3l-1,-0.3l-1,-0.3l-1,-0.5l-0.9,-0.5l-1,-0.4l-0.9,-0.6L385,775.7L384.2,775l-0.7,-0.7l-0.9,-0.6l-0.7,-0.9L381.2,772l-0.6,-0.8L380,770.3l-0.7,-0.9l-0.4,-0.9l-0.5,-0.9L378,766.5l-0.3,-0.9l-0.3,-1.1l-0.3,-1.1l-0.2,-1l-0.1,-1l0,-1l0,-1.1l0,-50.7l0,-30.4Z" class="g6_22" />
</svg>