<?xml version="1.0" encoding="UTF-8" standalone="no"?>
<!DOCTYPE svg PUBLIC "-//W3C//DTD SVG 1.1//EN"
"http://www.w3.org/Graphics/SVG/1.1/DTD/svg11.dtd">
<svg viewBox="0 0 1100 825" version="1.1" xmlns="http://www.w3.org/2000/svg" xmlns:xlink="http://www.w3.org/1999/xlink">
<defs>
<style type="text/css"><![CDATA[
.g1_29{
fill: #FFFFFF;
}
.g2_29{
}
.g3_29{
fill: #B5DBE5;
fill-opacity: 0.15;
}
.g4_29{
fill: none;
stroke: #90CAD7;
stroke-width: 1.513264;
stroke-linecap: butt;
stroke-linejoin: round;
}
.g5_29{
fill: #9F8471;
}
.g6_29{
fill: none;
stroke: #F5FFE0;
stroke-width: 0.77825004;
stroke-linecap: butt;
stroke-linejoin: round;
}
]]></style>
</defs>
<path fill-rule="evenodd" d="M0,0L1100,0l0,825L0,825L0,0Z" class="g1_29" />
<path fill-rule="evenodd" d="M0,0L1100,0l0,825L0,825L0,0Z" class="g2_29" />
<image preserveAspectRatio="none" x="0" y="0" width="1100" height="825" xlink:href="img/1.png" />
<image preserveAspectRatio="none" x="0" y="8" width="1100" height="710" xlink:href="img/2.png" />
<image preserveAspectRatio="none" x="0" y="30" width="1100" height="581" xlink:href="img/3.png" />
<image preserveAspectRatio="none" x="18" y="28" width="207" height="51" opacity="0.75" xlink:href="img/4.png" />
<image preserveAspectRatio="none" x="18" y="28" width="207" height="51" xlink:href="img/5.png" />
<path fill-rule="evenodd" d="M550,614.6l-451.8,0l0,-289.5l903.6,0l0,289.5l-451.8,0Z" class="g3_29" />
<path d="M550,614.6l-451.8,0l0,-289.5l903.6,0l0,289.5l-451.8,0Z" class="g4_29" />
<path fill-rule="evenodd" d="M442,631.9l0,-0.8l0.1,-0.7l0,-0.8l0.2,-0.8l0.1,-0.6l0.3,-0.7l0.4,-0.7l0.1,-0.7l0.5,-0.6l0.3,-0.8l0.3,-0.6l0.4,-0.6l0.5,-0.6l0.5,-0.5l0.6,-0.6l0.4,-0.5l0.6,-0.4l0.6,-0.5l0.7,-0.4l0.6,-0.3l0.6,-0.5l0.6,-0.3l0.8,-0.3l0.6,-0.2l0.7,-0.3l0.8,-0.1l0.8,-0.2l0.6,0l0.7,-0.1l0.8,0l35.4,0L458.9,587.1l107.3,30.6l159.8,0l0.8,0l0.7,0.1l0.6,0l0.8,0.2l0.8,0.1l0.7,0.3l0.6,0.2l0.8,0.3l0.6,0.3l0.6,0.5l0.6,0.3l0.7,0.4l0.6,0.5l0.6,0.4l0.4,0.5l0.6,0.6l0.5,0.5l0.5,0.6l0.4,0.6l0.3,0.8l0.3,0.6l0.5,0.6l0.1,0.7l0.3,0.7l0.4,0.7l0.1,0.6l0.2,0.8l0,0.8l0.1,0.7l0,0.8l0,21.2l0,35.6l0,0.6l-0.1,0.8l0,0.8l-0.2,0.7l-0.1,0.6l-0.4,0.8l-0.3,0.8l-0.1,0.6l-0.5,0.7l-0.3,0.7l-0.3,0.6l-0.4,0.6l-0.5,0.6l-0.5,0.4l-0.4,0.7l-0.6,0.6l-0.6,0.4l-0.5,0.3l-0.6,0.5l-0.8,0.4l-0.6,0.4l-0.6,0.3l-0.8,0.3l-0.6,0.3l-0.7,0.1l-0.6,0.2l-0.8,0.1l-0.8,0.2l-0.7,0l-0.8,0l-159.8,0.1l-74.6,0l-35.4,0l0,-0.1l-0.8,0l-0.7,0l-0.6,-0.2l-0.8,-0.1l-0.8,-0.2l-0.7,-0.1l-0.6,-0.3l-0.8,-0.3l-0.6,-0.3l-0.6,-0.4l-0.6,-0.4l-0.7,-0.3l-0.6,-0.5l-0.6,-0.4l-0.4,-0.6l-0.6,-0.5l-0.5,-0.6L444.7,697l-0.4,-0.6L444,695.8l-0.3,-0.7l-0.3,-0.6l-0.3,-0.7l-0.4,-0.6l-0.3,-0.8l-0.1,-0.8l-0.2,-0.7l0,-0.6l0,-0.8L442,688.7l0,-35.6l0,-21.2Z" class="g5_29" />
<path d="M442,631.9l0,-0.8l0.1,-0.7l0,-0.8l0.2,-0.8l0.1,-0.6l0.3,-0.7l0.4,-0.7l0.1,-0.7l0.5,-0.6l0.3,-0.8l0.3,-0.6l0.4,-0.6l0.5,-0.6l0.5,-0.5l0.6,-0.6l0.4,-0.5l0.6,-0.4l0.6,-0.5l0.7,-0.4l0.6,-0.3l0.6,-0.5l0.6,-0.3l0.8,-0.3l0.6,-0.2l0.7,-0.3l0.8,-0.1l0.8,-0.2l0.6,0l0.7,-0.1l0.8,0l35.4,0L458.9,587.1l107.3,30.6l159.8,0l0.8,0l0.7,0.1l0.6,0l0.8,0.2l0.8,0.1l0.7,0.3l0.6,0.2l0.8,0.3l0.6,0.3l0.6,0.5l0.6,0.3l0.7,0.4l0.6,0.5l0.6,0.4l0.4,0.5l0.6,0.6l0.5,0.5l0.5,0.6l0.4,0.6l0.3,0.8l0.3,0.6l0.5,0.6l0.1,0.7l0.3,0.7l0.4,0.7l0.1,0.6l0.2,0.8l0,0.8l0.1,0.7l0,0.8l0,21.2l0,35.6l0,0.6l-0.1,0.8l0,0.8l-0.2,0.7l-0.1,0.6l-0.4,0.8l-0.3,0.8l-0.1,0.6l-0.5,0.7l-0.3,0.7l-0.3,0.6l-0.4,0.6l-0.5,0.6l-0.5,0.4l-0.4,0.7l-0.6,0.6l-0.6,0.4l-0.5,0.3l-0.6,0.5l-0.8,0.4l-0.6,0.4l-0.6,0.3l-0.8,0.3l-0.6,0.3l-0.7,0.1l-0.6,0.2l-0.8,0.1l-0.8,0.2l-0.7,0l-0.8,0l-159.8,0.1l-74.6,0l-35.4,0l0,-0.1l-0.8,0l-0.7,0l-0.6,-0.2l-0.8,-0.1l-0.8,-0.2l-0.7,-0.1l-0.6,-0.3l-0.8,-0.3l-0.6,-0.3l-0.6,-0.4l-0.6,-0.4l-0.7,-0.3l-0.6,-0.5l-0.6,-0.4l-0.4,-0.6l-0.6,-0.5l-0.5,-0.6L444.7,697l-0.4,-0.6L444,695.8l-0.3,-0.7l-0.3,-0.6l-0.3,-0.7l-0.4,-0.6l-0.3,-0.8l-0.1,-0.8l-0.2,-0.7l0,-0.6l0,-0.8L442,688.7l0,-35.6l0,-21.2Z" class="g6_29" />
<path fill-rule="evenodd" d="M740.2,671.3l0,-1.1l0.2,-1l0.1,-1.1l0.2,-1.1l0.3,-1l0.1,-1l0.5,-1l0.3,-0.9l0.4,-1l0.7,-1l0.6,-0.9l0.4,-0.8l0.6,-0.9l0.8,-0.8l0.8,-0.8l0.7,-0.7l0.8,-0.6l0.9,-0.8l0.8,-0.5l0.9,-0.6l1.1,-0.6l0.9,-0.4l0.9,-0.3l1.1,-0.3l0.9,-0.3l1.1,-0.4l1,-0.1l1.1,-0.2l1.1,-0.1l1,0l29.4,0l74.5,0l153.7,0l0.9,0l1.2,0.1l1,0.2l1,0.1l1.1,0.4l1.1,0.3l0.9,0.3l1.1,0.3l0.9,0.4l0.9,0.6l0.9,0.6l0.9,0.5l0.8,0.8l0.8,0.6l0.9,0.7l0.6,0.8l0.7,0.8l0.7,0.9l0.6,0.8l0.4,0.9l0.6,1l0.5,1l0.5,0.9l0.3,1l0.3,1l0.3,1l0.1,1.1l0,1.1l0.2,1l0,1.1l0.1,0l0,30.4l0,50.6l-0.1,1l0,1.1l-0.2,1.1l-0.1,1.1l-0.3,1l-0.3,0.9l-0.3,1.1l-0.5,0.9l-0.5,0.9l-0.4,1.1l-0.6,0.9l-0.6,0.8l-0.7,0.9l-0.6,0.8l-0.7,0.7l-0.8,0.8l-0.8,0.8l-0.9,0.6l-0.9,0.4l-0.9,0.6l-0.9,0.7l-0.9,0.4l-1,0.3l-1,0.3l-1.1,0.3l-1.1,0.3l-0.9,0.2l-1.1,0.1l-1,0.2l-1.1,0l-153.7,0l-74.5,0l-29.4,0l-1,0l-1.1,-0.2l-1.1,0l-1,-0.3L755.2,772l-0.9,-0.3l-1.1,-0.3l-0.9,-0.5l-0.9,-0.4l-1.1,-0.7l-0.9,-0.4l-0.8,-0.6l-0.9,-0.6l-0.8,-0.8l-0.7,-0.8l-0.8,-0.7l-0.8,-0.8L744,764.3l-0.4,-0.9L743,762.5l-0.7,-0.9l-0.4,-1.1l-0.3,-0.9l-0.5,-0.9L741,757.6l-0.3,-1l-0.2,-1.1l-0.1,-0.9l-0.2,-1.3l0,-0.9l0,-50.7L708.6,657.6l31.6,13.7Z" class="g5_29" />
<path d="M740.2,671.3l0,-1.1l0.2,-1l0.1,-1.1l0.2,-1.1l0.3,-1l0.1,-1l0.5,-1l0.3,-0.9l0.4,-1l0.7,-1l0.6,-0.9l0.4,-0.8l0.6,-0.9l0.8,-0.8l0.8,-0.8l0.7,-0.7l0.8,-0.6l0.9,-0.8l0.8,-0.5l0.9,-0.6l1.1,-0.6l0.9,-0.4l0.9,-0.3l1.1,-0.3l0.9,-0.3l1.1,-0.4l1,-0.1l1.1,-0.2l1.1,-0.1l1,0l29.4,0l74.5,0l153.7,0l0.9,0l1.2,0.1l1,0.2l1,0.1l1.1,0.4l1.1,0.3l0.9,0.3l1.1,0.3l0.9,0.4l0.9,0.6l0.9,0.6l0.9,0.5l0.8,0.8l0.8,0.6l0.9,0.7l0.6,0.8l0.7,0.8l0.7,0.9l0.6,0.8l0.4,0.9l0.6,1l0.5,1l0.5,0.9l0.3,1l0.3,1l0.3,1l0.1,1.1l0,1.1l0.2,1l0,1.1l0.1,0l0,30.4l0,50.6l-0.1,1l0,1.1l-0.2,1.1l-0.1,1.1l-0.3,1l-0.3,0.9l-0.3,1.1l-0.5,0.9l-0.5,0.9l-0.4,1.1l-0.6,0.9l-0.6,0.8l-0.7,0.9l-0.6,0.8l-0.7,0.7l-0.8,0.8l-0.8,0.8l-0.9,0.6l-0.9,0.4l-0.9,0.6l-0.9,0.7l-0.9,0.4l-1,0.3l-1,0.3l-1.1,0.3l-1.1,0.3l-0.9,0.2l-1.1,0.1l-1,0.2l-1.1,0l-153.7,0l-74.5,0l-29.4,0l-1,0l-1.1,-0.2l-1.1,0l-1,-0.3L755.2,772l-0.9,-0.3l-1.1,-0.3l-0.9,-0.5l-0.9,-0.4l-1.1,-0.7l-0.9,-0.4l-0.8,-0.6l-0.9,-0.6l-0.8,-0.8l-0.7,-0.8l-0.8,-0.7l-0.8,-0.8L744,764.3l-0.4,-0.9L743,762.5l-0.7,-0.9l-0.4,-1.1l-0.3,-0.9l-0.5,-0.9L741,757.6l-0.3,-1l-0.2,-1.1l-0.1,-0.9l-0.2,-1.3l0,-0.9l0,-50.7L708.6,657.6l31.6,13.7Z" class="g6_29" />
</svg>