<?xml version="1.0" encoding="UTF-8" standalone="no"?>
<!DOCTYPE svg PUBLIC "-//W3C//DTD SVG 1.1//EN"
"http://www.w3.org/Graphics/SVG/1.1/DTD/svg11.dtd">
<svg viewBox="0 0 1100 825" version="1.1" xmlns="http://www.w3.org/2000/svg" xmlns:xlink="http://www.w3.org/1999/xlink">
<defs>
<style type="text/css"><![CDATA[
.g1_7{
fill: #FFFFFF;
}
.g2_7{
}
.g3_7{
fill: #B5DBE5;
fill-opacity: 0.15;
}
.g4_7{
fill: none;
stroke: #90CAD7;
stroke-width: 1.513264;
stroke-linecap: butt;
stroke-linejoin: round;
}
.g5_7{
fill: none;
stroke: #76B200;
stroke-width: 1.8333334;
stroke-linecap: butt;
stroke-linejoin: miter;
}
.g6_7{
fill: none;
stroke: #8CF4F2;
stroke-width: 1.8333334;
stroke-linecap: butt;
stroke-linejoin: miter;
}
]]></style>
</defs>
<path fill-rule="evenodd" d="M0,0L1100,0l0,825L0,825L0,0Z" class="g1_7" />
<path fill-rule="evenodd" d="M0,0L1100,0l0,825L0,825L0,0Z" class="g2_7" />
<image preserveAspectRatio="none" x="0" y="0" width="1100" height="825" xlink:href="img/1.png" />
<image preserveAspectRatio="none" x="0" y="8" width="1100" height="710" xlink:href="img/2.png" />
<image preserveAspectRatio="none" x="0" y="30" width="1100" height="581" xlink:href="img/3.png" />
<image preserveAspectRatio="none" x="18" y="28" width="207" height="51" opacity="0.75" xlink:href="img/4.png" />
<image preserveAspectRatio="none" x="18" y="28" width="207" height="51" xlink:href="img/5.png" />
<path fill-rule="evenodd" d="M550,506L94.6,506l0,-47.7l910.8,0l0,47.7L550,506Z" class="g3_7" />
<path d="M550,506L94.6,506l0,-47.7l910.8,0l0,47.7L550,506Z" class="g4_7" />
<path fill-rule="evenodd" d="M550,630.2l-455.4,0l0,-47.7l910.8,0l0,47.7l-455.4,0Z" class="g3_7" />
<path d="M550,630.2l-455.4,0l0,-47.7l910.8,0l0,47.7l-455.4,0Z" class="g4_7" />
<path fill-rule="evenodd" d="M550,372.6l-455.4,0l0,-47.5l910.8,0l0,47.5l-455.4,0Z" class="g3_7" />
<path d="M550,372.6l-455.4,0l0,-47.5l910.8,0l0,47.5l-455.4,0Z" class="g4_7" />
<path d="M105.4,363.9l425.8,0" class="g5_7" />
<path d="M531.2,363.9l18.6,0" class="g6_7" />
<path fill-rule="evenodd" d="M550,754.4l-455.4,0l0,-47.6l910.8,0l0,47.6l-455.4,0Z" class="g3_7" />
<path d="M550,754.4l-455.4,0l0,-47.6l910.8,0l0,47.6l-455.4,0Z" class="g4_7" />
</svg>