<?xml version="1.0" encoding="UTF-8" standalone="no"?>
<!DOCTYPE svg PUBLIC "-//W3C//DTD SVG 1.1//EN"
"http://www.w3.org/Graphics/SVG/1.1/DTD/svg11.dtd">
<svg viewBox="0 0 1100 825" version="1.1" xmlns="http://www.w3.org/2000/svg" xmlns:xlink="http://www.w3.org/1999/xlink">
<defs>
<clipPath id="c0_22"><path d="M0,190.5L0,148.7l1100,0l0,41.8Z" /></clipPath>
<style type="text/css"><![CDATA[
.g1_22{
fill: #FFFFFF;
}
.g2_22{
fill-opacity: 0.46;
}
.g3_22{
fill: #009DD9;
}
.g4_22{
fill: #0F6FC6;
}
.g5_22{
fill: #BCC8E4;
}
]]></style>
</defs>
<path fill-rule="evenodd" d="M0,0L1100,0l0,825L0,825L0,0Z" class="g1_22" />
<path fill-rule="evenodd" d="M0,0L1100,0l0,825L0,825L0,0Z" class="g1_22" />
<path fill-rule="evenodd" d="M550,190.5l-550,0L0,152.2l1099.8,0l0,38.3l-549.8,0Z" class="g2_22" />
<g clip-path="url(#c0_22)">
<path fill-rule="evenodd" d="M550,186.8l-550,0L0,148.5l1099.8,0l0,38.3l-549.8,0Z" class="g1_22" />
</g>
<path fill-rule="evenodd" d="M32.1,185L0,185L0,157.5l64.2,0l0,27.5l-32.1,0Z" class="g2_22" />
<path fill-rule="evenodd" d="M32.1,181.3L0,181.3L0,153.8l64.2,0l0,27.5l-32.1,0Z" class="g3_22" />
<path fill-rule="evenodd" d="M585.4,185L71,185l0,-27.5l1028.8,0l0,27.5l-514.4,0Z" class="g2_22" />
<path fill-rule="evenodd" d="M585.4,181.3L71,181.3l0,-27.5l1028.8,0l0,27.5l-514.4,0Z" class="g4_22" />
<path fill-rule="evenodd" d="M73.3,247.5l490.5,0l0,96.4l-490.5,0l0,-96.4Z" class="g5_22" />
<path fill-rule="evenodd" d="M563.8,247.5l490.4,0l0,96.4l-490.4,0l0,-96.4Z" class="g5_22" />
<path fill-rule="evenodd" d="M73.3,343.9l490.5,0l0,65.2l-490.5,0l0,-65.2Z" class="g5_22" />
<path fill-rule="evenodd" d="M563.8,343.9l490.4,0l0,65.2l-490.4,0l0,-65.2Z" class="g5_22" />
<path fill-rule="evenodd" d="M73.3,409.1l490.5,0l0,65.3l-490.5,0l0,-65.3Z" class="g5_22" />
<path fill-rule="evenodd" d="M563.8,409.1l490.4,0l0,65.3l-490.4,0l0,-65.3Z" class="g5_22" />
<path fill-rule="evenodd" d="M73.3,474.4l490.5,0l0,65.2l-490.5,0l0,-65.2Z" class="g5_22" />
<path fill-rule="evenodd" d="M563.8,474.4l490.4,0l0,65.2l-490.4,0l0,-65.2Z" class="g5_22" />
<path fill-rule="evenodd" d="M73.3,539.6l490.5,0l0,65.2l-490.5,0l0,-65.2Z" class="g5_22" />
<path fill-rule="evenodd" d="M563.8,539.6l490.4,0l0,65.2l-490.4,0l0,-65.2Z" class="g5_22" />
<path fill-rule="evenodd" d="M73.3,604.8l490.5,0l0,65.3l-490.5,0l0,-65.3Z" class="g5_22" />
<path fill-rule="evenodd" d="M563.8,604.8l490.4,0l0,65.3l-490.4,0l0,-65.3Z" class="g5_22" />
<path fill-rule="evenodd" d="M73.3,670.1l490.5,0l0,65.1l-490.5,0l0,-65.1Z" class="g5_22" />
<path fill-rule="evenodd" d="M563.8,670.1l490.4,0l0,65.1l-490.4,0l0,-65.1Z" class="g5_22" />
<path fill-rule="evenodd" d="M73.3,343.9l-0.6,0.6l0,-97.6l0.6,0.6l0.6,0.6l0,95.3l-0.6,0.5Z" class="g4_22" />
<path fill-rule="evenodd" d="M563.8,343.9l-0.7,-0.5l0,-95.3l0.7,-0.6l0.6,-0.6l0,97.6l-0.6,-0.6Z" class="g4_22" />
<path fill-rule="evenodd" d="M563.8,247.5l-0.7,0.6l-489.2,0l-0.6,-0.6l-0.6,-0.6l491.7,0l-0.6,0.6Z" class="g4_22" />
<path fill-rule="evenodd" d="M563.8,343.9l-0.7,-0.5l0,-95.3l0.7,-0.6l0.6,0.6l0,95.3l-0.6,0.5Z" class="g4_22" />
<path fill-rule="evenodd" d="M1054.2,343.9l-0.6,-0.5l0,-95.3l0.6,-0.6l0.4,-0.6l0,97.6l-0.4,-0.6Z" class="g4_22" />
<path fill-rule="evenodd" d="M1054.2,247.5l-0.6,0.6l-489.2,0l-0.6,-0.6l-0.7,-0.6l491.5,0l-0.4,0.6Z" class="g4_22" />
<path fill-rule="evenodd" d="M73.3,409.1l-0.6,0.7l0,-66.4l0.6,0.5l0.6,0.6l0,64l-0.6,0.6Z" class="g4_22" />
<path fill-rule="evenodd" d="M563.8,409.1l-0.7,-0.6l0,-64l0.7,-0.6l0.6,-0.5l0,66.4l-0.6,-0.7Z" class="g4_22" />
<path fill-rule="evenodd" d="M563.8,343.9l-0.7,0.6l-489.2,0l-0.6,-0.6l0.6,-0.5l489.2,0l0.7,0.5Z" class="g4_22" />
<path fill-rule="evenodd" d="M563.8,409.1l-0.7,-0.6l0,-64l0.7,-0.6l0.6,0.6l0,64l-0.6,0.6Z" class="g4_22" />
<path fill-rule="evenodd" d="M1054.2,409.1l-0.6,-0.6l0,-64l0.6,-0.6l0.4,-0.5l0,66.4l-0.4,-0.7Z" class="g4_22" />
<path fill-rule="evenodd" d="M1054.2,343.9l-0.6,0.6l-489.2,0l-0.6,-0.6l0.6,-0.5l489.2,0l0.6,0.5Z" class="g4_22" />
<path fill-rule="evenodd" d="M73.3,474.4L72.7,475l0,-66.5l0.6,0.6l0.6,0.7l0,64l-0.6,0.6Z" class="g4_22" />
<path fill-rule="evenodd" d="M563.8,474.4l-0.7,-0.6l0,-64l0.7,-0.7l0.6,-0.6l0,66.5l-0.6,-0.6Z" class="g4_22" />
<path fill-rule="evenodd" d="M563.8,409.1l-0.7,0.7l-489.2,0l-0.6,-0.7l0.6,-0.6l489.2,0l0.7,0.6Z" class="g4_22" />
<path fill-rule="evenodd" d="M563.8,474.4l-0.7,-0.6l0,-64l0.7,-0.7l0.6,0.7l0,64l-0.6,0.6Z" class="g4_22" />
<path fill-rule="evenodd" d="M1054.2,474.4l-0.6,-0.6l0,-64l0.6,-0.7l0.4,-0.6l0,66.5l-0.4,-0.6Z" class="g4_22" />
<path fill-rule="evenodd" d="M1054.2,409.1l-0.6,0.7l-489.2,0l-0.6,-0.7l0.6,-0.6l489.2,0l0.6,0.6Z" class="g4_22" />
<path fill-rule="evenodd" d="M73.3,539.6l-0.6,0.6l0,-66.4l0.6,0.6l0.6,0.6l0,64l-0.6,0.6Z" class="g4_22" />
<path fill-rule="evenodd" d="M563.8,539.6L563.1,539l0,-64l0.7,-0.6l0.6,-0.6l0,66.4l-0.6,-0.6Z" class="g4_22" />
<path fill-rule="evenodd" d="M563.8,474.4l-0.7,0.6L73.9,475l-0.6,-0.6l0.6,-0.6l489.2,0l0.7,0.6Z" class="g4_22" />
<path fill-rule="evenodd" d="M563.8,539.6L563.1,539l0,-64l0.7,-0.6l0.6,0.6l0,64l-0.6,0.6Z" class="g4_22" />
<path fill-rule="evenodd" d="M1054.2,539.6l-0.6,-0.6l0,-64l0.6,-0.6l0.4,-0.6l0,66.4l-0.4,-0.6Z" class="g4_22" />
<path fill-rule="evenodd" d="M1054.2,474.4l-0.6,0.6l-489.2,0l-0.6,-0.6l0.6,-0.6l489.2,0l0.6,0.6Z" class="g4_22" />
<path fill-rule="evenodd" d="M73.3,604.8l-0.6,0.7l0,-66.5l0.6,0.6l0.6,0.6l0,64l-0.6,0.6Z" class="g4_22" />
<path fill-rule="evenodd" d="M563.8,604.8l-0.7,-0.6l0,-64l0.7,-0.6l0.6,-0.6l0,66.5l-0.6,-0.7Z" class="g4_22" />
<path fill-rule="evenodd" d="M563.8,539.6l-0.7,0.6l-489.2,0l-0.6,-0.6L73.9,539l489.2,0l0.7,0.6Z" class="g4_22" />
<path fill-rule="evenodd" d="M563.8,604.8l-0.7,-0.6l0,-64l0.7,-0.6l0.6,0.6l0,64l-0.6,0.6Z" class="g4_22" />
<path fill-rule="evenodd" d="M1054.2,604.8l-0.6,-0.6l0,-64l0.6,-0.6l0.4,-0.6l0,66.5l-0.4,-0.7Z" class="g4_22" />
<path fill-rule="evenodd" d="M1054.2,539.6l-0.6,0.6l-489.2,0l-0.6,-0.6l0.6,-0.6l489.2,0l0.6,0.6Z" class="g4_22" />
<path fill-rule="evenodd" d="M73.3,670.1l-0.6,0.4l0,-66.3l0.6,0.6l0.6,0.7l0,64l-0.6,0.6Z" class="g4_22" />
<path fill-rule="evenodd" d="M563.8,670.1l-0.7,-0.6l0,-64l0.7,-0.7l0.6,-0.6l0,66.3l-0.6,-0.4Z" class="g4_22" />
<path fill-rule="evenodd" d="M563.8,604.8l-0.7,0.7l-489.2,0l-0.6,-0.7l0.6,-0.6l489.2,0l0.7,0.6Z" class="g4_22" />
<path fill-rule="evenodd" d="M563.8,670.1l-0.7,-0.6l0,-64l0.7,-0.7l0.6,0.7l0,64l-0.6,0.6Z" class="g4_22" />
<path fill-rule="evenodd" d="M1054.2,670.1l-0.6,-0.6l0,-64l0.6,-0.7l0.4,-0.6l0,66.3l-0.4,-0.4Z" class="g4_22" />
<path fill-rule="evenodd" d="M1054.2,604.8l-0.6,0.7l-489.2,0l-0.6,-0.7l0.6,-0.6l489.2,0l0.6,0.6Z" class="g4_22" />
<path fill-rule="evenodd" d="M73.3,735.2l-0.6,0.4l0,-66.1l0.6,0.6l0.6,0.4l0,64.1l-0.6,0.6Z" class="g4_22" />
<path fill-rule="evenodd" d="M563.8,735.2l0.6,0.4l-491.7,0l0.6,-0.4l0.6,-0.6l489.2,0l0.7,0.6Z" class="g4_22" />
<path fill-rule="evenodd" d="M563.8,735.2l-0.7,-0.6l0,-64.1l0.7,-0.4l0.6,-0.6l0,66.1l-0.6,-0.4Z" class="g4_22" />
<path fill-rule="evenodd" d="M563.8,670.1l-0.7,0.4l-489.2,0l-0.6,-0.4l0.6,-0.6l489.2,0l0.7,0.6Z" class="g4_22" />
<path fill-rule="evenodd" d="M563.8,735.2l-0.7,-0.6l0,-64.1l0.7,-0.4l0.6,0.4l0,64.1l-0.6,0.6Z" class="g4_22" />
<path fill-rule="evenodd" d="M1054.2,735.2l0.4,0.4l-491.5,0l0.7,-0.4l0.6,-0.6l489.2,0l0.6,0.6Z" class="g4_22" />
<path fill-rule="evenodd" d="M1054.2,735.2l-0.6,-0.6l0,-64.1l0.6,-0.4l0.4,-0.6l0,66.1l-0.4,-0.4Z" class="g4_22" />
<path fill-rule="evenodd" d="M1054.2,670.1l-0.6,0.4l-489.2,0l-0.6,-0.4l0.6,-0.6l489.2,0l0.6,0.6Z" class="g4_22" />
</svg>