<?xml version="1.0" encoding="UTF-8" standalone="no"?>
<!DOCTYPE svg PUBLIC "-//W3C//DTD SVG 1.1//EN"
"http://www.w3.org/Graphics/SVG/1.1/DTD/svg11.dtd">
<svg viewBox="0 0 1100 825" version="1.1" xmlns="http://www.w3.org/2000/svg" xmlns:xlink="http://www.w3.org/1999/xlink">
<defs>
<style type="text/css"><![CDATA[
.g1_32{
fill: #FFFFFF;
}
.g2_32{
}
]]></style>
</defs>
<path fill-rule="evenodd" d="M0,0L1100,0l0,825L0,825L0,0Z" class="g1_32" />
<image preserveAspectRatio="none" x="0" y="0" width="1100" height="825" xlink:href="img/1.png" />
<path fill-rule="evenodd" d="M545.4,779.2l-527.1,0l0,-678.4l1054,0l0,678.4l-526.9,0Z" class="g1_32" />
<path fill-rule="evenodd" d="M18.3,139l-0.6,0.6l0,-39.4l0.6,0.6l0.6,0.6l0,37L18.3,139Z" class="g2_32" />
<path fill-rule="evenodd" d="M282.8,139l-0.6,-0.6l0,-37l0.6,-0.6l0.6,-0.6l0,39.4L282.8,139Z" class="g2_32" />
<path fill-rule="evenodd" d="M282.8,100.8l-0.6,0.6l-263.3,0l-0.6,-0.6l-0.6,-0.6l265.7,0l-0.6,0.6Z" class="g2_32" />
<path fill-rule="evenodd" d="M282.8,139l-0.6,-0.6l0,-37l0.6,-0.6l0.6,0.6l0,37l-0.6,0.6Z" class="g2_32" />
<path fill-rule="evenodd" d="M540.8,139l-0.7,-0.6l0,-37l0.7,-0.6l0.6,-0.6l0,39.4L540.8,139Z" class="g2_32" />
<path fill-rule="evenodd" d="M540.8,100.8l-0.7,0.6l-256.7,0l-0.6,-0.6l-0.6,-0.6l259.2,0l-0.6,0.6Z" class="g2_32" />
<path fill-rule="evenodd" d="M18.3,258.7l-0.6,0.6l0,-120.9l0.6,0.6l0.6,0.6l0,118.4l-0.6,0.7Z" class="g2_32" />
<path fill-rule="evenodd" d="M282.8,258.7L282.2,258l0,-118.4l0.6,-0.6l0.6,-0.6l0,120.9l-0.6,-0.6Z" class="g2_32" />
<path fill-rule="evenodd" d="M282.8,139l-0.6,0.6l-263.3,0L18.3,139l0.6,-0.6l263.3,0l0.6,0.6Z" class="g2_32" />
<path fill-rule="evenodd" d="M282.8,258.7L282.2,258l0,-118.4l0.6,-0.6l0.6,0.6l0,118.4l-0.6,0.7Z" class="g2_32" />
<path fill-rule="evenodd" d="M540.8,258.7L540.1,258l0,-118.4l0.7,-0.6l0.6,-0.6l0,120.9l-0.6,-0.6Z" class="g2_32" />
<path fill-rule="evenodd" d="M540.8,139l-0.7,0.6l-256.7,0L282.8,139l0.6,-0.6l256.7,0l0.7,0.6Z" class="g2_32" />
<path fill-rule="evenodd" d="M18.3,488.4L17.7,489l0,-231l0.6,0.7l0.6,0.6l0,228.4l-0.6,0.7Z" class="g2_32" />
<path fill-rule="evenodd" d="M282.8,488.4l-0.6,-0.7l0,-228.4l0.6,-0.6l0.6,-0.7l0,231l-0.6,-0.6Z" class="g2_32" />
<path fill-rule="evenodd" d="M282.8,258.7l-0.6,0.6l-263.3,0l-0.6,-0.6L18.9,258l263.3,0l0.6,0.7Z" class="g2_32" />
<path fill-rule="evenodd" d="M282.8,488.4l-0.6,-0.7l0,-228.4l0.6,-0.6l0.6,0.6l0,228.4l-0.6,0.7Z" class="g2_32" />
<path fill-rule="evenodd" d="M540.8,488.4l-0.7,-0.7l0,-228.4l0.7,-0.6l0.6,-0.7l0,231l-0.6,-0.6Z" class="g2_32" />
<path fill-rule="evenodd" d="M540.8,258.7l-0.7,0.6l-256.7,0l-0.6,-0.6l0.6,-0.7l256.7,0l0.7,0.7Z" class="g2_32" />
<path fill-rule="evenodd" d="M18.3,671.2l-0.6,0.7l0,-184.2l0.6,0.7l0.6,0.6l0,181.5l-0.6,0.7Z" class="g2_32" />
<path fill-rule="evenodd" d="M282.8,671.2l0.6,0.7l-265.7,0l0.6,-0.7l0.6,-0.7l263.3,0l0.6,0.7Z" class="g2_32" />
<path fill-rule="evenodd" d="M282.8,671.2l-0.6,-0.7l0,-181.5l0.6,-0.6l0.6,-0.7l0,184.2l-0.6,-0.7Z" class="g2_32" />
<path fill-rule="evenodd" d="M282.8,488.4l-0.6,0.6L18.9,489l-0.6,-0.6l0.6,-0.7l263.3,0l0.6,0.7Z" class="g2_32" />
<path fill-rule="evenodd" d="M282.8,671.2l-0.6,-0.7l0,-181.5l0.6,-0.6l0.6,0.6l0,181.5l-0.6,0.7Z" class="g2_32" />
<path fill-rule="evenodd" d="M540.8,671.2l0.6,0.7l-259.2,0l0.6,-0.7l0.6,-0.7l256.7,0l0.7,0.7Z" class="g2_32" />
<path fill-rule="evenodd" d="M540.8,671.2l-0.7,-0.7l0,-181.5l0.7,-0.6l0.6,-0.7l0,184.2l-0.6,-0.7Z" class="g2_32" />
<path fill-rule="evenodd" d="M540.8,488.4l-0.7,0.6l-256.7,0l-0.6,-0.6l0.6,-0.7l256.7,0l0.7,0.7Z" class="g2_32" />
<path fill-rule="evenodd" d="M559.2,139l-0.6,0.6l0,-39.4l0.6,0.6l0.6,0.6l0,37l-0.6,0.6Z" class="g2_32" />
<path fill-rule="evenodd" d="M811.4,139l-0.6,-0.6l0,-37l0.6,-0.6l0.8,-0.6l0,39.4L811.4,139Z" class="g2_32" />
<path fill-rule="evenodd" d="M811.4,100.8l-0.6,0.6l-251,0l-0.6,-0.6l-0.6,-0.6l253.6,0l-0.8,0.6Z" class="g2_32" />
<path fill-rule="evenodd" d="M811.4,139l-0.6,-0.6l0,-37l0.6,-0.6l0.8,0.6l0,37l-0.8,0.6Z" class="g2_32" />
<path fill-rule="evenodd" d="M1077.2,139l-0.6,-0.6l0,-37l0.6,-0.6l0.6,-0.6l0,39.4l-0.6,-0.6Z" class="g2_32" />
<path fill-rule="evenodd" d="M1077.2,100.8l-0.6,0.6l-264.4,0l-0.8,-0.6l-0.6,-0.6l267,0l-0.6,0.6Z" class="g2_32" />
<path fill-rule="evenodd" d="M559.2,427.9l-0.6,0.6l0,-290.1l0.6,0.6l0.6,0.6l0,287.7l-0.6,0.6Z" class="g2_32" />
<path fill-rule="evenodd" d="M811.4,427.9l-0.6,-0.6l0,-287.7l0.6,-0.6l0.8,-0.6l0,290.1l-0.8,-0.6Z" class="g2_32" />
<path fill-rule="evenodd" d="M811.4,139l-0.6,0.6l-251,0L559.2,139l0.6,-0.6l251,0l0.6,0.6Z" class="g2_32" />
<path fill-rule="evenodd" d="M811.4,427.9l-0.6,-0.6l0,-287.7l0.6,-0.6l0.8,0.6l0,287.7l-0.8,0.6Z" class="g2_32" />
<path fill-rule="evenodd" d="M1077.2,427.9l-0.6,-0.6l0,-287.7l0.6,-0.6l0.6,-0.6l0,290.1l-0.6,-0.6Z" class="g2_32" />
<path fill-rule="evenodd" d="M1077.2,139l-0.6,0.6l-264.4,0L811.4,139l0.8,-0.6l264.4,0l0.6,0.6Z" class="g2_32" />
<path fill-rule="evenodd" d="M559.2,702.2l-0.6,0.6l0,-275.5l0.6,0.6l0.6,0.6l0,273.1l-0.6,0.6Z" class="g2_32" />
<path fill-rule="evenodd" d="M811.4,702.2l0.8,0.6l-253.6,0l0.6,-0.6l0.6,-0.6l251,0l0.6,0.6Z" class="g2_32" />
<path fill-rule="evenodd" d="M811.4,702.2l-0.6,-0.6l0,-273.1l0.6,-0.6l0.8,-0.6l0,275.5l-0.8,-0.6Z" class="g2_32" />
<path fill-rule="evenodd" d="M811.4,427.9l-0.6,0.6l-251,0l-0.6,-0.6l0.6,-0.6l251,0l0.6,0.6Z" class="g2_32" />
<path fill-rule="evenodd" d="M811.4,702.2l-0.6,-0.6l0,-273.1l0.6,-0.6l0.8,0.6l0,273.1l-0.8,0.6Z" class="g2_32" />
<path fill-rule="evenodd" d="M1077.2,702.2l0.6,0.6l-267,0l0.6,-0.6l0.8,-0.6l264.4,0l0.6,0.6Z" class="g2_32" />
<path fill-rule="evenodd" d="M1077.2,702.2l-0.6,-0.6l0,-273.1l0.6,-0.6l0.6,-0.6l0,275.5l-0.6,-0.6Z" class="g2_32" />
<path fill-rule="evenodd" d="M1077.2,427.9l-0.6,0.6l-264.4,0l-0.8,-0.6l0.8,-0.6l264.4,0l0.6,0.6Z" class="g2_32" />
</svg>