<?xml version="1.0" encoding="UTF-8" standalone="no"?>
<!DOCTYPE svg PUBLIC "-//W3C//DTD SVG 1.1//EN"
"http://www.w3.org/Graphics/SVG/1.1/DTD/svg11.dtd">
<svg viewBox="0 0 1100 825" version="1.1" xmlns="http://www.w3.org/2000/svg" xmlns:xlink="http://www.w3.org/1999/xlink">
<defs>
<style type="text/css"><![CDATA[
.g1_5{
fill: #FFFFFF;
}
.g2_5{
fill: none;
stroke: #000000;
stroke-width: 1.513264;
stroke-linecap: butt;
stroke-linejoin: round;
}
.g3_5{
}
]]></style>
</defs>
<path fill-rule="evenodd" d="M0,0L1100,0l0,825L0,825L0,0Z" class="g1_5" />
<image preserveAspectRatio="none" x="0" y="0" width="1100" height="825" xlink:href="img/1.png" />
<path fill-rule="evenodd" d="M545.4,779.2l-527.1,0l0,-678.4l1054,0l0,678.4l-526.9,0Z" class="g1_5" />
<image preserveAspectRatio="none" x="211" y="147" width="642" height="607" xlink:href="img/2.png" />
<path fill-rule="evenodd" d="M160.4,623.3L55,623.3l0,-64.1l210.7,0l0,64.1l-105.3,0Z" class="g1_5" />
<path fill-rule="evenodd" d="M730.1,229.2l-85.5,0l0,-32.1l171.2,0l0,32.1l-85.7,0Z" class="g1_5" />
<path fill-rule="evenodd" d="M540.8,247.5l-91.6,0l0,-53.5l183.3,0l0,53.5l-91.7,0Z" class="g1_5" />
<path d="M550,247.5l37.9,15.1" class="g2_5" />
<path fill-rule="evenodd" d="M595.8,265.8l-10.1,1l3.4,-8.6l6.7,7.6Z" class="g3_5" />
<path d="M733.3,229.2l46.9,15.6" class="g2_5" />
<path fill-rule="evenodd" d="M788.3,247.5l-10.1,1.4l3,-8.6l7.1,7.2Z" class="g3_5" />
<path d="M137.5,623.3l92.4,16.8" class="g2_5" />
<path fill-rule="evenodd" d="M238.3,641.7l-9.7,2.9l1.6,-9l8.1,6.1Z" class="g3_5" />
</svg>