<?xml version="1.0" encoding="UTF-8" standalone="no"?>
<!DOCTYPE svg PUBLIC "-//W3C//DTD SVG 1.1//EN"
"http://www.w3.org/Graphics/SVG/1.1/DTD/svg11.dtd">
<svg viewBox="0 0 1100 825" version="1.1" xmlns="http://www.w3.org/2000/svg" xmlns:xlink="http://www.w3.org/1999/xlink">
<defs>
<style type="text/css"><![CDATA[
.g1_1{
fill: #FFFFFF;
}
.g2_1{
}
.g3_1{
fill: none;
stroke: #000000;
stroke-width: 4.583028;
stroke-linecap: butt;
stroke-linejoin: round;
stroke-opacity: 0.4;
}
.g4_1{
fill: none;
stroke: #DAEDF2;
stroke-width: 4.583028;
stroke-linecap: butt;
stroke-linejoin: round;
stroke-opacity: 0.5;
}
.g5_1{
fill: none;
stroke: #F5FFE0;
stroke-width: 1.6805556;
stroke-linecap: butt;
stroke-linejoin: miter;
stroke-opacity: 0.75;
}
.g6_1{
fill: none;
stroke: #F5FFD6;
stroke-width: 1.6805556;
stroke-linecap: butt;
stroke-linejoin: miter;
}
.g7_1{
fill: none;
stroke: #DAEDF2;
stroke-width: 2.291514;
stroke-linecap: butt;
stroke-linejoin: round;
}
]]></style>
</defs>
<path fill-rule="evenodd" d="M0,0L1100,0l0,825L0,825L0,0Z" class="g1_1" />
<path fill-rule="evenodd" d="M0,0L1100,0l0,825L0,825L0,0Z" class="g2_1" />
<image preserveAspectRatio="none" x="0" y="0" width="1100" height="825" xlink:href="img/1.png" />
<image preserveAspectRatio="none" x="0" y="8" width="1100" height="710" xlink:href="img/2.png" />
<image preserveAspectRatio="none" x="0" y="30" width="1100" height="581" xlink:href="img/3.png" />
<image preserveAspectRatio="none" x="18" y="28" width="207" height="51" opacity="0.75" xlink:href="img/4.png" />
<image preserveAspectRatio="none" x="18" y="28" width="207" height="51" xlink:href="img/5.png" />
<path d="M324,498.2l751.7,0" class="g3_1" />
<path d="M320.8,495l751.7,0" class="g4_1" />
<path d="M65.8,733.3l418.4,0" class="g5_1" />
<path d="M65.8,733.3l418.4,0" class="g6_1" />
<image preserveAspectRatio="none" x="614" y="516" width="431" height="256" xlink:href="img/6.png" />
<path d="M612.9,514.9l433.2,0l0,258l-433.2,0l0,-258Z" class="g7_1" />
<image preserveAspectRatio="none" x="35" y="290" width="241" height="247" xlink:href="img/7.png" />
<path d="M33.2,377.8L176.6,288.1L277.1,449.2L133.7,538.8L33.2,377.8Z" class="g7_1" />
</svg>