<?xml version="1.0" encoding="UTF-8" standalone="no"?>
<!DOCTYPE svg PUBLIC "-//W3C//DTD SVG 1.1//EN"
"http://www.w3.org/Graphics/SVG/1.1/DTD/svg11.dtd">
<svg viewBox="0 0 1100 825" version="1.1" xmlns="http://www.w3.org/2000/svg" xmlns:xlink="http://www.w3.org/1999/xlink">
<defs>
<style type="text/css"><![CDATA[
.g1_26{
fill: #FFFFFF;
}
.g2_26{
fill: none;
stroke: #000000;
stroke-width: 1.513264;
stroke-linecap: butt;
stroke-linejoin: round;
}
.g3_26{
}
]]></style>
</defs>
<path fill-rule="evenodd" d="M0,0L1100,0l0,825L0,825L0,0Z" class="g1_26" />
<image preserveAspectRatio="none" x="0" y="0" width="1100" height="825" xlink:href="img/1.png" />
<path fill-rule="evenodd" d="M545.4,779.2l-527.1,0l0,-678.4l1054,0l0,678.4l-526.9,0Z" class="g1_26" />
<image preserveAspectRatio="none" x="238" y="165" width="642" height="586" xlink:href="img/2.png" />
<path fill-rule="evenodd" d="M577.5,494.8l-119.2,0l0,-54.8l238.4,0l0,54.8l-119.2,0Z" class="g1_26" />
<path d="M696.7,476.7l92.4,-16.8" class="g2_26" />
<path fill-rule="evenodd" d="M797.5,458.3l-8.1,6.1l-1.7,-9l9.8,2.9Z" class="g3_26" />
<path fill-rule="evenodd" d="M737.9,751.5l-114.6,0l0,-45.7l229,0l0,45.7l-114.4,0Z" class="g1_26" />
<path d="M788.3,705.8L630.5,609.4" class="g2_26" />
<path fill-rule="evenodd" d="M623.3,605l10.1,0.9l-4.7,7.7L623.3,605Z" class="g3_26" />
</svg>